<svg width="331" height="136" viewBox="0 0 331 136" fill="none" xmlns="http://www.w3.org/2000/svg">
<path d="M285.317 100.188C290.578 99.717 301.995 98.6805 306.518 98.3036L277.308 103.486L66.9474 103.486C64.6985 102.275 60.8853 100.167 58.467 98.682C57.2793 97.9528 56.428 97.3741 56.2637 97.1258C56.163 96.1973 56.1113 95.2542 56.1113 94.299C56.1113 79.988 67.7126 68.3867 82.0236 68.3867C96.3346 68.3867 107.936 79.988 107.936 94.299C107.852 96.1835 107.497 100.377 106.75 102.073L232.839 101.366C232.191 99.0428 231.844 96.5936 231.844 94.0634C231.844 79.1019 243.972 66.9733 258.934 66.9733C273.895 66.9733 286.024 79.1019 286.024 94.0634C285.945 95.8694 285.553 98.5392 285.317 100.188Z" fill="#464646"/>
<path d="M306.518 98.3036C311.041 97.9267 312.643 95.3198 312.878 94.0634C313.193 87.4676 313.868 73.6634 314.056 71.2135C314.245 68.7636 313.35 66.5807 312.878 65.7955C312.454 65.0888 309.36 60.3153 291.206 55.195C272.832 50.0125 253.908 47.1072 246.213 47.4213L242.209 50.0125C240.01 50.2481 234.576 50.0596 230.43 47.4213C215.119 37.6774 199.728 31.6383 189.677 28.1049L191.091 25.7492C184.338 24.2573 165.414 21.2734 143.742 21.2734C122.07 21.2734 99.6911 25.1995 91.2107 27.1626V30.4605C88.5723 31.5912 57.1321 40.3543 41.7418 44.5945L39.6217 43.8878L23.6032 46.9502C24.2471 48.1461 24.6082 48.8166 25.2521 50.0125C25.2521 56.7968 25.7233 60.5345 25.9588 61.5553L18.8918 81.3428V86.0542C18.8918 93.0269 29.4923 98.068 33.497 98.068L56.6786 99.717M306.518 98.3036C301.995 98.6805 290.578 99.717 285.317 100.188C285.553 98.5392 285.945 95.8694 286.024 94.0634C286.024 79.1019 273.895 66.9733 258.934 66.9733C243.972 66.9733 231.844 79.1019 231.844 94.0634C231.844 96.5936 232.191 99.0428 232.839 101.366L106.75 102.073C107.497 100.377 107.852 96.1835 107.936 94.299C107.936 79.988 96.3346 68.3867 82.0236 68.3867C67.7126 68.3867 56.1113 79.988 56.1113 94.299C56.1113 95.2542 56.163 96.1973 56.2637 97.1258M306.518 98.3036L277.308 103.486L66.9474 103.486C64.6985 102.275 60.8853 100.167 58.467 98.682M56.6786 99.717C56.498 98.8679 56.3589 98.0034 56.2637 97.1258M56.6786 99.717L58.467 98.682M56.2637 97.1258C56.428 97.3741 57.2793 97.9528 58.467 98.682" stroke="#2E2C2F" stroke-width="1.4134" stroke-linejoin="round"/>
<path d="M224.072 51.1905C220.473 45.6292 202.634 35.172 183.788 29.0473C174.115 26.5744 163.603 26.2153 151.046 25.9849C135.262 25.9849 110.763 27.8694 101.811 30.6962C100.342 31.1604 87.4905 36.7214 81.0131 40.7289C80.3509 41.1386 80.4987 42.1045 81.2413 42.339L93.1956 46.1141L88.3841 54.7238L37.7375 54.7239C32.0054 53.1535 29.0216 50.0125 25.2525 50.0125C24.6085 48.8166 24.2475 48.1461 23.6035 46.9502L39.6221 43.8878L41.7421 44.5945C57.1325 40.3543 88.5727 31.5912 91.2111 30.4605V27.1626C99.6914 25.1995 122.07 21.2734 143.742 21.2734C165.414 21.2734 184.338 24.2573 191.091 25.7492L189.678 28.1049C199.729 31.6383 215.119 37.6774 230.431 47.4213C234.577 50.0596 240.01 50.2481 242.209 50.0125L240.324 51.6616L224.07 51.1905" stroke="#2E2C2F" stroke-width="0.70589" stroke-linejoin="round"/>
<path d="M312.879 94.0635C312.643 95.3198 311.041 97.9267 306.518 98.3036C301.995 98.6805 290.578 99.717 285.317 100.188C285.553 98.5392 285.946 95.8695 286.024 94.0635C286.024 79.102 273.895 66.9733 258.934 66.9733C243.972 66.9733 231.844 79.102 231.844 94.0635C231.844 96.5936 232.191 99.0428 232.839 101.366L159.525 101.777V95.4769L225.72 95.4771C226.313 93.5323 226.902 90.9188 227.368 87.8535C228.245 82.0899 228.691 74.7283 227.926 67.2072L228.617 67.3323L231.359 67.7986L232.826 69.8364L235.615 70.5398C236.345 67.8943 240.214 64.8646 242.057 63.6804L227.926 63.2486H227.408C227.092 61.2893 226.685 59.3363 226.174 57.4148H226.575L265.294 59.4352C270.76 60.0005 279.507 63.1257 283.197 64.6176C285.553 66.3451 290.453 70.6952 291.207 74.2758L294.976 73.5691L297.096 70.9779H309.367C308.432 73.1504 307.674 75.702 307.461 78.0449C307.15 81.4667 311.11 84.8763 313.29 85.583C313.266 86.0671 313.248 86.4331 313.232 86.761L307.571 88.141L306.126 90.211C308.051 90.1344 312.371 89.545 313.106 89.312C313.093 89.5774 313.079 89.8744 313.063 90.2115C311.257 91.0566 309.737 91.361 305.042 91.591L302.514 94.351V96.651C304.935 96.718 309.942 95.2524 312.127 94.3911L312.879 94.0635Z" fill="#D9D9D9"/>
<path d="M312.879 94.0635C312.643 95.3198 311.041 97.9267 306.518 98.3036C301.995 98.6805 290.578 99.717 285.317 100.188C285.553 98.5392 285.946 95.8695 286.024 94.0635C286.024 79.102 273.895 66.9733 258.934 66.9733C243.972 66.9733 231.844 79.102 231.844 94.0635C231.844 96.5936 232.191 99.0428 232.839 101.366L159.525 101.777M312.879 94.0635L312.127 94.3911C309.942 95.2524 304.935 96.718 302.514 96.651V94.351L305.042 91.591C309.737 91.361 311.257 91.0566 313.063 90.2115M312.879 94.0635C312.96 92.3623 313.018 91.1361 313.063 90.2115M106.75 102.073L159.525 101.777M313.29 85.583C311.11 84.8763 307.15 81.4667 307.461 78.0449C307.674 75.702 308.432 73.1504 309.367 70.9779H297.096L294.976 73.5691L291.207 74.2758C290.453 70.6952 285.553 66.3451 283.197 64.6176C279.507 63.1257 270.76 60.0005 265.294 59.4352L226.575 57.4148H226.174C226.685 59.3363 227.092 61.2893 227.408 63.2486H227.926L242.057 63.6804C240.214 64.8646 236.345 67.8943 235.615 70.5398L232.826 69.8364L231.359 67.7986L228.617 67.3323L227.926 67.2072C228.691 74.7283 228.245 82.0899 227.368 87.8535C226.902 90.9188 226.313 93.5323 225.72 95.4771L159.525 95.4769V101.777M313.29 85.583C313.266 86.0671 313.248 86.4331 313.232 86.761L307.571 88.141L306.126 90.211C308.051 90.1344 312.371 89.545 313.106 89.312M313.29 85.583C313.213 87.1578 313.195 87.483 313.106 89.312M313.106 89.312C313.093 89.5774 313.079 89.8744 313.063 90.2115M313.106 89.312V89.312C313.107 89.3118 313.107 89.3123 313.107 89.3129L313.064 90.2098C313.064 90.2105 313.063 90.2112 313.063 90.2115V90.2115" stroke="#2E2C2F" stroke-width="0.70589" stroke-linejoin="round"/>
<path d="M23.6035 46.9221L25.2525 49.9844C29.0215 49.9844 32.0054 53.1254 37.7375 54.6958L88.3842 54.6957L93.1956 46.086L81.2413 42.3109C80.4987 42.0764 80.3509 41.1105 81.0131 40.7008C87.4905 36.6934 100.342 31.1323 101.811 30.6682C110.763 27.8414 135.262 25.9568 151.046 25.9568C163.603 26.1872 174.115 26.5463 183.788 29.0192C202.634 35.1439 220.473 45.6012 224.072 51.1624L240.324 51.6335L242.209 49.9844C240.01 50.22 234.577 50.0316 230.431 47.3932C215.119 37.6493 199.729 31.6103 189.678 28.0768L191.091 25.7211C184.338 24.2292 165.414 21.2454 143.742 21.2454C122.07 21.2454 99.6914 25.1715 91.2111 27.1345V30.4324C88.5727 31.5632 57.1325 40.3262 41.7421 44.5664L39.6221 43.8597L23.6035 46.9221Z" fill="#D9D9D9"/>
<path d="M224.072 51.1624C220.473 45.6012 202.634 35.1439 183.788 29.0192C174.115 26.5463 163.603 26.1872 151.046 25.9568C135.262 25.9568 110.763 27.8414 101.811 30.6682C100.342 31.1323 87.4905 36.6934 81.0131 40.7008C80.3509 41.1105 80.4987 42.0764 81.2413 42.3109L93.1956 46.086L88.3841 54.6957L37.7375 54.6958C32.0054 53.1254 29.0216 49.9844 25.2525 49.9844L23.6035 46.9221L39.6221 43.8597L41.7421 44.5664C57.1325 40.3262 88.5727 31.5632 91.2111 30.4324V27.1345C99.6914 25.1715 122.07 21.2454 143.742 21.2454C165.414 21.2454 184.338 24.2292 191.091 25.7211L189.678 28.0768C199.729 31.6103 215.119 37.6493 230.431 47.3932C234.577 50.0316 240.01 50.22 242.209 49.9844L240.324 51.6335L224.072 51.1624ZM224.072 51.1624L224.07 51.1624" stroke="#2E2C2F" stroke-width="0.70589" stroke-linejoin="round"/>
<path d="M189.677 28.1048L191.091 25.7492C184.338 24.2572 165.414 21.2734 143.742 21.2734C122.07 21.2734 99.6911 25.1995 91.2107 27.1626V30.4605C124.813 20.6597 176.696 23.5411 189.677 28.1048Z" fill="#D9D9D9" stroke="#2E2C2F" stroke-width="0.706699" stroke-linejoin="round"/>
<path d="M33.4971 98.0681L56.6787 99.717C56.4981 98.8679 56.359 98.0035 56.2638 97.1258C56.1631 96.1974 56.1114 95.2542 56.1114 94.299L18.8919 86.0542C18.8919 93.027 29.4924 98.0681 33.4971 98.0681Z" fill="#D9D9D9" stroke="#2E2C2F" stroke-width="0.706699" stroke-linejoin="round"/>
<path d="M41.742 44.5947L39.6219 43.888C48.8561 40.119 77.8622 31.1675 91.2109 27.1628V30.4608C88.5726 31.5915 57.1324 40.3546 41.742 44.5947Z" fill="#2E2C2F" fill-opacity="0.4" stroke="#2E2C2F" stroke-width="0.706699" stroke-linejoin="round"/>
<path d="M189.677 28.1049L191.09 25.7493C204.989 29.2828 239.381 44.5003 244.093 48.8348L242.208 50.0126C240.01 50.2481 234.576 50.0597 230.43 47.4213C215.118 37.6774 199.728 31.6384 189.677 28.1049Z" fill="#63A375" fill-opacity="0.4" stroke="#2E2C2F" stroke-width="0.706699" stroke-linejoin="round"/>
<path d="M291.207 55.1951C270.477 48.5992 246.214 47.4214 246.214 47.4214L240.796 51.6616C264.117 51.6616 279.795 56.6412 286.26 58.2574C292.856 59.9064 299.452 62.0265 312.879 65.7956C312.879 65.7956 311.937 61.7909 291.207 55.1951Z" fill="#D9D9D9" stroke="#2E2C2F" stroke-width="0.706699" stroke-linejoin="round"/>
<path d="M314.056 71.2134C314.245 68.7635 313.35 66.5806 312.878 65.7954C311.073 66.6592 307.932 72.8624 307.461 78.0449C307.149 81.4666 311.11 84.8763 313.29 85.583C313.595 79.4057 313.932 72.8319 314.056 71.2134Z" fill="#63A375" fill-opacity="0.4" stroke="#2E2C2F" stroke-width="0.706699"/>
<path d="M283.197 64.6177L312.407 65.7955C310.523 68.3867 310.052 69.5646 309.345 70.978H297.095L294.975 73.5692L291.206 74.2759C290.452 70.6953 285.553 66.3452 283.197 64.6177Z" fill="#D9D9D9" stroke="#2E2C2F" stroke-width="0.706699"/>
<path d="M265.294 59.4352C270.759 60.0006 279.507 63.1258 283.197 64.6177L312.407 65.7955C298.98 62.0265 292.384 59.9064 285.788 58.2574C279.323 56.6412 263.645 51.6616 240.324 51.6616L224.07 51.1904L225.955 57.3151L265.294 59.4352Z" fill="#D9D9D9" stroke="#2E2C2F" stroke-width="0.706699"/>
<path d="M151.046 25.9849L155.993 48.8348C156.531 50.5194 157.052 52.5139 157.54 54.7239C159.646 64.2711 161.121 77.8429 160.561 87.8535C160.399 90.7555 160.065 93.3583 159.527 95.4769L225.721 95.4769C226.314 93.5321 226.902 90.9188 227.368 87.8535C228.88 77.9237 229.112 63.2505 224.072 51.1905C220.473 45.6292 202.634 35.1719 183.789 29.0472C174.115 26.5744 163.603 26.2153 151.046 25.9849Z" fill="#D9D9D9"/>
<path d="M224.072 51.1905L155.993 48.8348M224.072 51.1905C229.112 63.2505 228.88 77.9237 227.368 87.8535M224.072 51.1905C220.473 45.6292 202.634 35.1719 183.789 29.0472C174.115 26.5744 163.603 26.2153 151.046 25.9849L155.993 48.8348M155.993 48.8348C156.531 50.5194 157.052 52.5139 157.54 54.7239M226.146 57.3152C206.384 56.4514 164.997 54.7239 157.54 54.7239M157.54 54.7239C159.646 64.2711 161.121 77.8429 160.561 87.8535M227.368 87.8535C226.902 90.9188 226.314 93.5321 225.721 95.4769L159.527 95.4769C160.065 93.3583 160.399 90.7555 160.561 87.8535M227.368 87.8535L160.561 87.8535" stroke="#2E2C2F" stroke-width="0.706699"/>
<path d="M178.135 56.6085C178.135 55.6662 177.763 55.3328 177.193 55.3116C172.534 55.1389 168.332 54.9924 164.943 54.889C164.001 54.8597 164.001 55.6662 164.001 56.3729C164.001 57.3152 164.472 57.5507 164.943 57.5507L177.193 57.7863C177.664 57.7863 178.135 57.5507 178.135 56.6085Z" fill="#424243" stroke="#2E2C2F" stroke-width="0.706699"/>
<path d="M155.992 48.8348L151.046 25.9849C135.261 25.9849 110.762 27.8694 101.811 30.6962C100.341 31.1604 87.4898 36.7214 81.0124 40.7288C80.3502 41.1385 80.4981 42.1045 81.2406 42.3389L93.1949 46.114L88.3835 54.7239C102.204 69.9806 110.965 79.3565 114.352 87.8535C115.411 90.5081 115.945 93.0769 115.945 95.7125L159.526 95.4769C160.065 93.3583 160.398 90.7555 160.56 87.8535C161.12 77.8429 159.645 64.2711 157.539 54.7239C157.539 54.7239 156.462 50.0126 155.992 48.8348Z" fill="#D9D9D9"/>
<path d="M155.992 48.8348C154.061 39.9113 151.046 25.9849 151.046 25.9849C135.261 25.9849 110.762 27.8694 101.811 30.6962M155.992 48.8348C154.705 48.8348 152.695 48.8348 152.695 48.8348L101.811 48.8348L93.1949 46.114M155.992 48.8348C156.462 50.0126 157.539 54.7239 157.539 54.7239M157.539 54.7239C159.645 64.2711 161.12 77.8429 160.56 87.8535M157.539 54.7239H151.986C131.021 54.7239 88.9489 54.7239 88.3835 54.7239M101.811 30.6962C100.341 31.1604 87.4898 36.7214 81.0124 40.7288C80.3502 41.1385 80.4981 42.1045 81.2406 42.3389L93.1949 46.114M101.811 30.6962L93.1949 46.114M88.3835 54.7239C102.204 69.9806 110.965 79.3565 114.352 87.8535M88.3835 54.7239L93.1949 46.114M160.56 87.8535C160.398 90.7555 160.065 93.3583 159.526 95.4769L115.945 95.7125C115.945 93.0769 115.411 90.5081 114.352 87.8535M160.56 87.8535H114.352" stroke="#2E2C2F" stroke-width="0.706699"/>
<path d="M37.7372 54.7239L87.9661 54.7239C88.2322 54.7239 88.4884 54.8392 88.6671 55.0364C102.324 70.1089 110.988 79.4146 114.353 87.8534C115.411 90.508 115.945 93.0768 115.945 95.7124L159.525 95.4768L159.526 101.602V101.777L106.75 102.073C107.497 100.377 107.852 96.1835 107.936 94.299C107.936 79.9881 96.3346 68.3867 82.0237 68.3867C74.7211 68.3867 68.124 71.4075 63.4139 76.2677L62.7073 75.6893L45.8735 61.5553L37.7372 54.7239Z" fill="#D9D9D9" stroke="#2E2C2F" stroke-width="0.706699"/>
<path d="M62.7074 75.6896L45.8736 61.5557L25.959 61.5557L18.892 81.3432V86.0546L56.1115 94.2994C56.1115 87.291 58.8938 80.9325 63.4141 76.2681L62.7074 75.6896Z" fill="#D9D9D9" stroke="#2E2C2F" stroke-width="0.706699"/>
<path d="M45.873 61.5554L38.9146 55.6662L37.7368 54.6958C32.0047 53.1253 29.0209 49.9844 25.2518 49.9844L25.3361 54.724C25.4825 58.5691 25.7846 60.8021 25.9584 61.5554H45.873Z" fill="#D9D9D9"/>
<path d="M38.9146 55.6662L45.873 61.5554H25.9584C25.7846 60.8021 25.4825 58.5691 25.3361 54.724M38.9146 55.6662L25.3361 54.724M38.9146 55.6662L37.7368 54.6958C32.0047 53.1253 29.0209 49.9844 25.2518 49.9844L25.3361 54.724" stroke="#2E2C2F" stroke-width="0.706699"/>
<path d="M45.873 61.5552L38.9146 55.6661L34.6744 55.3718C34.6744 55.3718 34.4389 58.0217 35.9157 61.5552H45.873Z" fill="#D9D9D9" stroke="#2E2C2F" stroke-width="0.706699"/>
<path d="M110.767 56.456C110.746 55.5139 110.367 55.1886 109.797 55.1797C105.136 55.1075 100.931 55.0517 97.5409 55.0213C96.5982 55.0124 96.6156 55.8186 96.6308 56.5252C96.6511 57.4672 97.1272 57.6926 97.5982 57.6824L109.85 57.6538C110.321 57.6437 110.787 57.398 110.767 56.456Z" fill="#424243" stroke="#2E2C2F" stroke-width="0.706699"/>
<path d="M242.057 63.6805L227.368 63.2044C227.839 65.56 227.839 66.2667 228.007 67.2254L231.359 67.7987L232.826 69.8365L235.615 70.5399C236.345 67.8944 240.214 64.8647 242.057 63.6805Z" fill="#D9D9D9" stroke="#2E2C2F" stroke-width="0.530024" stroke-linejoin="round"/>
<path d="M162.116 47.1856L219.358 49.3057C214.006 44.1156 196.037 34.3011 181.903 30.696C173.833 28.6375 165.031 28.2221 155.991 28.1047L162.116 47.1856Z" fill="#63A375" fill-opacity="0.4" stroke="#2E2C2F" stroke-width="0.706699"/>
<path d="M313.232 86.761L307.571 88.141L306.126 90.211C308.053 90.1343 312.377 89.5444 313.108 89.3116L313.064 90.211C311.258 91.0565 309.738 91.361 305.043 91.591L302.514 94.351V96.651C304.935 96.7181 309.942 95.2524 312.128 94.3911C312.599 94.2051 312.894 93.7509 312.918 93.2443L313.064 90.211L313.108 89.3116L313.232 86.761Z" fill="#D9D9D9"/>
<path d="M313.108 89.3116C312.377 89.5444 308.053 90.1343 306.126 90.211L307.571 88.141L313.232 86.761L313.108 89.3116ZM313.108 89.3116L313.064 90.211M313.064 90.211C311.258 91.0565 309.738 91.361 305.043 91.591L302.514 94.351V96.651C304.935 96.7181 309.942 95.2524 312.128 94.3911C312.599 94.2051 312.894 93.7509 312.918 93.2443L313.064 90.211Z" stroke="#2E2C2F" stroke-width="0.706699"/>
<path d="M147.982 46.7145L147.04 28.1047C139.109 28.1047 123.516 28.6397 111.234 30.5158C107.216 31.1296 103.552 31.8869 100.627 32.8161L94.3017 44.1345L102.518 46.7145L112.647 46.7145L147.982 46.7145Z" fill="#2E2C2F" fill-opacity="0.4"/>
<path d="M111.234 30.5158C123.516 28.6397 139.109 28.1047 147.04 28.1047L147.982 46.7145L112.647 46.7145M111.234 30.5158C107.216 31.1296 103.552 31.8869 100.627 32.8161L94.3017 44.1345L102.518 46.7145L112.647 46.7145M111.234 30.5158L112.647 46.7145" stroke="#2E2C2F" stroke-width="0.706699"/>
<path d="M94.302 44.1348L100.627 32.8164L84.7751 40.5253C84.387 40.714 84.4357 41.2818 84.8502 41.4016L94.302 44.1348Z" fill="#2E2C2F" fill-opacity="0.4" stroke="#2E2C2F" stroke-width="0.706699"/>
<path fill-rule="evenodd" clip-rule="evenodd" d="M237.498 92.8857C237.498 104.855 247.201 114.558 259.17 114.558C271.139 114.558 280.842 104.855 280.842 92.8857C280.842 80.9166 271.139 71.2136 259.17 71.2136C247.201 71.2136 237.498 80.9166 237.498 92.8857ZM258.934 108.904C249.957 108.904 242.68 101.627 242.68 92.65C242.68 83.6732 249.957 76.396 258.934 76.396C267.911 76.396 275.188 83.6732 275.188 92.65C275.188 101.627 267.911 108.904 258.934 108.904Z" fill="#2E2C2F" stroke="#2E2C2F" stroke-width="1.4134"/>
<path fill-rule="evenodd" clip-rule="evenodd" d="M60.1499 92.8857C60.1499 104.855 69.8529 114.558 81.822 114.558C93.7912 114.558 103.494 104.855 103.494 92.8857C103.494 80.9166 93.7912 71.2136 81.822 71.2136C69.8529 71.2136 60.1499 80.9166 60.1499 92.8857ZM81.5866 108.904C72.6097 108.904 65.3325 101.627 65.3325 92.65C65.3325 83.6732 72.6097 76.396 81.5866 76.396C90.5635 76.396 97.8407 83.6732 97.8407 92.65C97.8407 101.627 90.5635 108.904 81.5866 108.904Z" fill="#2E2C2F" stroke="#2E2C2F" stroke-width="1.4134"/>
<path d="M269.77 86.1634L269.77 83.6934C269.77 83.548 269.702 83.4108 269.588 83.3215L265.728 80.3199C265.604 80.2231 265.44 80.195 265.29 80.2448L263.025 80.9999C262.832 81.0641 262.703 81.2441 262.703 81.4469L262.703 87.7966C262.703 88.1062 262.996 88.3316 263.295 88.2519L269.42 86.6186C269.626 86.5636 269.77 86.3768 269.77 86.1634Z" fill="#D9D9D9"/>
<path d="M257.284 92.8856C257.284 93.9264 258.128 94.7702 259.169 94.7702C260.21 94.7702 261.054 93.9264 261.054 92.8856C261.054 91.8448 260.21 91.0011 259.169 91.0011C258.128 91.0011 257.284 91.8448 257.284 92.8856Z" fill="#D9D9D9"/>
<path d="M248.333 86.1634V83.6934C248.333 83.548 248.4 83.4108 248.515 83.3215L252.374 80.3199C252.498 80.2231 252.663 80.195 252.812 80.2448L255.078 80.9999C255.27 81.0641 255.4 81.2441 255.4 81.4469V87.7966C255.4 88.1062 255.107 88.3316 254.807 88.2519L248.683 86.6186C248.476 86.5636 248.333 86.3768 248.333 86.1634Z" fill="#D9D9D9"/>
<path d="M271.392 92.2857L272.936 94.2139C273.027 94.3274 273.06 94.4764 273.026 94.6178L271.89 99.373C271.853 99.5262 271.742 99.651 271.595 99.7055L269.354 100.532C269.164 100.602 268.95 100.543 268.823 100.384L264.855 95.4274C264.661 95.1858 264.75 94.8264 265.033 94.7017L270.835 92.1489C271.03 92.0629 271.259 92.1191 271.392 92.2857Z" fill="#D9D9D9"/>
<path d="M254.618 105.142L256.143 107.084C256.233 107.199 256.37 107.265 256.516 107.265L261.405 107.242C261.563 107.241 261.709 107.162 261.796 107.03L263.111 105.037C263.223 104.868 263.214 104.646 263.089 104.487L259.167 99.4926C258.976 99.2492 258.606 99.2531 258.42 99.5006L254.612 104.568C254.483 104.738 254.486 104.974 254.618 105.142Z" fill="#D9D9D9"/>
<path d="M246.548 92.2857L245.005 94.2139C244.914 94.3274 244.88 94.4764 244.914 94.6179L246.051 99.373C246.088 99.5262 246.198 99.651 246.346 99.7055L248.587 100.532C248.777 100.602 248.991 100.543 249.117 100.384L253.086 95.4274C253.279 95.1858 253.191 94.8264 252.908 94.7017L247.106 92.1489C246.91 92.0629 246.682 92.1191 246.548 92.2857Z" fill="#D9D9D9"/>
<path d="M269.77 86.1634L269.77 83.6934C269.77 83.548 269.702 83.4108 269.588 83.3215L265.728 80.3199C265.604 80.2231 265.44 80.195 265.29 80.2448L263.025 80.9999C262.832 81.0641 262.703 81.2441 262.703 81.4469L262.703 87.7966C262.703 88.1062 262.996 88.3316 263.295 88.2519L269.42 86.6186C269.626 86.5636 269.77 86.3768 269.77 86.1634Z" stroke="#2E2C2F" stroke-width="0.706699"/>
<path d="M257.284 92.8856C257.284 93.9264 258.128 94.7702 259.169 94.7702C260.21 94.7702 261.054 93.9264 261.054 92.8856C261.054 91.8448 260.21 91.0011 259.169 91.0011C258.128 91.0011 257.284 91.8448 257.284 92.8856Z" stroke="#2E2C2F" stroke-width="0.706699"/>
<path d="M248.333 86.1634V83.6934C248.333 83.548 248.4 83.4108 248.515 83.3215L252.374 80.3199C252.498 80.2231 252.663 80.195 252.812 80.2448L255.078 80.9999C255.27 81.0641 255.4 81.2441 255.4 81.4469V87.7966C255.4 88.1062 255.107 88.3316 254.807 88.2519L248.683 86.6186C248.476 86.5636 248.333 86.3768 248.333 86.1634Z" stroke="#2E2C2F" stroke-width="0.706699"/>
<path d="M271.392 92.2857L272.936 94.2139C273.027 94.3274 273.06 94.4764 273.026 94.6178L271.89 99.373C271.853 99.5262 271.742 99.651 271.595 99.7055L269.354 100.532C269.164 100.602 268.95 100.543 268.823 100.384L264.855 95.4274C264.661 95.1858 264.75 94.8264 265.033 94.7017L270.835 92.1489C271.03 92.0629 271.259 92.1191 271.392 92.2857Z" stroke="#2E2C2F" stroke-width="0.706699"/>
<path d="M254.618 105.142L256.143 107.084C256.233 107.199 256.37 107.265 256.516 107.265L261.405 107.242C261.563 107.241 261.709 107.162 261.796 107.03L263.111 105.037C263.223 104.868 263.214 104.646 263.089 104.487L259.167 99.4926C258.976 99.2492 258.606 99.2531 258.42 99.5006L254.612 104.568C254.483 104.738 254.486 104.974 254.618 105.142Z" stroke="#2E2C2F" stroke-width="0.706699"/>
<path d="M246.548 92.2857L245.005 94.2139C244.914 94.3274 244.88 94.4764 244.914 94.6179L246.051 99.373C246.088 99.5262 246.198 99.651 246.346 99.7055L248.587 100.532C248.777 100.602 248.991 100.543 249.117 100.384L253.086 95.4274C253.279 95.1858 253.191 94.8264 252.908 94.7017L247.106 92.1489C246.91 92.0629 246.682 92.1191 246.548 92.2857Z" stroke="#2E2C2F" stroke-width="0.706699"/>
<path d="M71.1874 86.1634V83.6934C71.1874 83.548 71.2546 83.4108 71.3693 83.3215L75.2286 80.3199C75.3529 80.2231 75.5174 80.195 75.6668 80.2448L77.9323 80.9999C78.1247 81.0641 78.2544 81.2441 78.2544 81.4469V87.7966C78.2544 88.1062 77.961 88.3316 77.6619 88.2519L71.5372 86.6186C71.3309 86.5636 71.1874 86.3768 71.1874 86.1634Z" fill="#D9D9D9"/>
<path d="M92.624 86.1634L92.624 83.6934C92.624 83.548 92.5569 83.4108 92.4421 83.3215L88.5828 80.3199C88.4585 80.2231 88.294 80.195 88.1446 80.2448L85.8792 80.9999C85.6868 81.0641 85.557 81.2441 85.557 81.4469L85.557 87.7966C85.557 88.1062 85.8504 88.3316 86.1495 88.2519L92.2743 86.6186C92.4805 86.5636 92.624 86.3768 92.624 86.1634Z" fill="#D9D9D9"/>
<path d="M94.2468 92.2857L95.7905 94.2139C95.8814 94.3274 95.9148 94.4764 95.881 94.6178L94.7442 99.373C94.7076 99.5262 94.5968 99.651 94.449 99.7055L92.2086 100.532C92.0183 100.602 91.8045 100.543 91.6778 100.384L87.7093 95.4274C87.5158 95.1858 87.604 94.8264 87.8873 94.7017L93.6893 92.1489C93.8847 92.0629 94.1134 92.1191 94.2468 92.2857Z" fill="#D9D9D9"/>
<path d="M77.4721 105.142L78.9976 107.084C79.0874 107.199 79.225 107.265 79.3704 107.265L84.2595 107.242C84.417 107.241 84.5637 107.162 84.6505 107.03L85.9658 105.037C86.0775 104.868 86.0684 104.646 85.9431 104.487L82.0214 99.4926C81.8302 99.2492 81.4602 99.2531 81.2743 99.5006L77.466 104.568C77.3378 104.738 77.3403 104.974 77.4721 105.142Z" fill="#D9D9D9"/>
<path d="M69.4028 92.2857L67.8591 94.2139C67.7682 94.3274 67.7348 94.4764 67.7686 94.6179L68.9054 99.373C68.942 99.5262 69.0528 99.651 69.2006 99.7055L71.441 100.532C71.6313 100.602 71.8451 100.543 71.9718 100.384L75.9403 95.4274C76.1338 95.1858 76.0456 94.8264 75.7622 94.7017L69.9603 92.1489C69.7649 92.0629 69.5362 92.1191 69.4028 92.2857Z" fill="#D9D9D9"/>
<path d="M71.1874 86.1634V83.6934C71.1874 83.548 71.2546 83.4108 71.3693 83.3215L75.2286 80.3199C75.3529 80.2231 75.5174 80.195 75.6668 80.2448L77.9323 80.9999C78.1247 81.0641 78.2544 81.2441 78.2544 81.4469V87.7966C78.2544 88.1062 77.961 88.3316 77.6619 88.2519L71.5372 86.6186C71.3309 86.5636 71.1874 86.3768 71.1874 86.1634Z" stroke="#2E2C2F" stroke-width="0.706699"/>
<path d="M92.624 86.1634L92.624 83.6934C92.624 83.548 92.5569 83.4108 92.4421 83.3215L88.5828 80.3199C88.4585 80.2231 88.294 80.195 88.1446 80.2448L85.8792 80.9999C85.6868 81.0641 85.557 81.2441 85.557 81.4469L85.557 87.7966C85.557 88.1062 85.8504 88.3316 86.1495 88.2519L92.2743 86.6186C92.4805 86.5636 92.624 86.3768 92.624 86.1634Z" stroke="#2E2C2F" stroke-width="0.706699"/>
<path d="M94.2468 92.2857L95.7905 94.2139C95.8814 94.3274 95.9148 94.4764 95.881 94.6178L94.7442 99.373C94.7076 99.5262 94.5968 99.651 94.449 99.7055L92.2086 100.532C92.0183 100.602 91.8045 100.543 91.6778 100.384L87.7093 95.4274C87.5158 95.1858 87.604 94.8264 87.8873 94.7017L93.6893 92.1489C93.8847 92.0629 94.1134 92.1191 94.2468 92.2857Z" stroke="#2E2C2F" stroke-width="0.706699"/>
<path d="M77.4721 105.142L78.9976 107.084C79.0874 107.199 79.225 107.265 79.3704 107.265L84.2595 107.242C84.417 107.241 84.5637 107.162 84.6505 107.03L85.9658 105.037C86.0775 104.868 86.0684 104.646 85.9431 104.487L82.0214 99.4926C81.8302 99.2492 81.4602 99.2531 81.2743 99.5006L77.466 104.568C77.3378 104.738 77.3403 104.974 77.4721 105.142Z" stroke="#2E2C2F" stroke-width="0.706699"/>
<path d="M69.4028 92.2857L67.8591 94.2139C67.7682 94.3274 67.7348 94.4764 67.7686 94.6179L68.9054 99.373C68.942 99.5262 69.0528 99.651 69.2006 99.7055L71.441 100.532C71.6313 100.602 71.8451 100.543 71.9718 100.384L75.9403 95.4274C76.1338 95.1858 76.0456 94.8264 75.7622 94.7017L69.9603 92.1489C69.7649 92.0629 69.5362 92.1191 69.4028 92.2857Z" stroke="#2E2C2F" stroke-width="0.706699"/>
<path d="M210.643 51.897L213.146 53.9306C213.865 54.5151 214.91 54.4612 215.566 53.8058C216.241 53.1302 216.275 52.0456 215.642 51.3294L213.856 49.3058C214.046 49.1459 214.233 48.988 214.412 48.8346C214.977 44.8771 212.135 44.0448 210.643 44.1233H206.223C205.602 44.1233 205.15 44.7141 205.314 45.3135L206.92 51.2027C207.032 51.6126 207.404 51.897 207.829 51.897H210.643Z" fill="#63A375" fill-opacity="0.4"/>
<path d="M210.643 51.897L213.146 53.9306C213.865 54.5151 214.91 54.4612 215.566 53.8058V53.8058C216.241 53.1302 216.275 52.0456 215.642 51.3294L213.856 49.3058M210.643 51.897H207.829C207.404 51.897 207.032 51.6126 206.92 51.2027L205.314 45.3135C205.15 44.7141 205.602 44.1233 206.223 44.1233H210.643C212.135 44.0448 214.977 44.8771 214.412 48.8346C214.233 48.988 214.046 49.1459 213.856 49.3058M210.643 51.897C211.254 51.4219 212.639 50.3249 213.856 49.3058" stroke="#2E2C2F" stroke-width="0.706699"/>
<path d="M8.39062 76.6816H2.74711V74.1487C2.74711 73.808 2.8113 73.5106 2.93967 73.2563C3.06558 73.002 3.24456 72.8045 3.47662 72.6638C3.70621 72.5206 3.97777 72.449 4.2913 72.449C4.63939 72.449 4.93564 72.5305 5.18004 72.6934C5.42198 72.8539 5.59726 73.123 5.70588 73.5007H5.7244C5.78118 73.2859 5.86511 73.1168 5.97621 72.9934C6.0873 72.8674 6.23419 72.7761 6.41688 72.7193C6.59709 72.6601 6.82422 72.6206 7.09825 72.6008C7.31549 72.5885 7.49941 72.5737 7.65001 72.5564C7.8006 72.5391 7.92527 72.5206 8.02402 72.5008C8.1203 72.4811 8.1956 72.4589 8.24991 72.4342C8.30175 72.407 8.33755 72.3786 8.3573 72.349H8.39062V73.0415C8.35606 73.081 8.30052 73.1131 8.22399 73.1378C8.14499 73.16 8.01908 73.1797 7.84627 73.197C7.67099 73.2118 7.42535 73.2291 7.10935 73.2489C6.71189 73.2711 6.42552 73.3735 6.25024 73.5562C6.07249 73.7364 5.98361 74.0191 5.98361 74.4042V76.0373H8.39062V76.6816ZM5.46148 76.0373V74.3598C5.46148 73.9401 5.3652 73.6278 5.17264 73.4229C4.98007 73.2155 4.71716 73.1119 4.38388 73.1119C4.03085 73.1119 3.76299 73.2094 3.58031 73.4044C3.39762 73.597 3.30628 73.9006 3.30628 74.3154V76.0373H5.46148ZM8.48691 69.8309C8.48691 70.2457 8.39186 70.5999 8.20177 70.8937C8.00921 71.185 7.75122 71.4072 7.42782 71.5603C7.10195 71.7133 6.73904 71.7898 6.33911 71.7898C5.94905 71.7898 5.59479 71.7108 5.27632 71.5528C4.95539 71.3924 4.69987 71.1677 4.50978 70.8789C4.31969 70.59 4.22464 70.2531 4.22464 69.8679C4.22464 69.5742 4.27896 69.3137 4.38758 69.0866C4.49374 68.857 4.64062 68.6632 4.82825 68.5052C5.02575 68.3373 5.26521 68.2114 5.54665 68.1275C5.82808 68.0435 6.13791 68.0003 6.47613 67.9979L6.47613 71.1899C6.76497 71.1751 7.02542 71.1134 7.25748 71.0048C7.48707 70.8962 7.66852 70.7431 7.80183 70.5456C7.93514 70.3456 8.0018 70.1049 8.0018 69.8235C8.0018 69.5223 7.93268 69.2705 7.79443 69.0681C7.65618 68.8632 7.46485 68.7262 7.22045 68.657V68.0793C7.46485 68.1361 7.68333 68.2435 7.87589 68.4015C8.06599 68.557 8.21535 68.7558 8.32397 68.9977C8.43259 69.2396 8.48691 69.5174 8.48691 69.8309ZM6.04657 71.1788L6.04657 68.6237C5.74785 68.641 5.49851 68.7027 5.29854 68.8089C5.09611 68.915 4.94304 69.0582 4.83936 69.2384C4.73567 69.4186 4.68383 69.6285 4.68383 69.8679C4.68383 70.1247 4.74184 70.3456 4.85787 70.5308C4.97143 70.7159 5.13067 70.8641 5.33557 70.9752C5.54048 71.0838 5.77747 71.1517 6.04657 71.1788ZM8.47209 66.0389C8.47209 66.2957 8.42889 66.5277 8.34248 66.7351C8.25608 66.9425 8.12771 67.1067 7.95736 67.2276C7.78702 67.3461 7.57594 67.4054 7.32413 67.4054C7.01801 67.4054 6.78225 67.3338 6.61684 67.1906C6.44897 67.0449 6.32677 66.8437 6.25024 66.587C6.17124 66.3278 6.11075 66.0303 6.06878 65.6946C6.04163 65.465 6.0083 65.2712 5.9688 65.1132C5.9293 64.9552 5.87005 64.8354 5.79105 64.754C5.70958 64.6725 5.59849 64.6318 5.45777 64.6318C5.2109 64.6318 5.01711 64.712 4.87639 64.8725C4.73567 65.0329 4.66531 65.2662 4.66531 65.5724C4.66531 65.913 4.74061 66.1698 4.8912 66.3426C5.04179 66.5154 5.25164 66.6092 5.52073 66.624V67.198C5.29113 67.1857 5.07882 67.1215 4.88379 67.0054C4.6863 66.8869 4.5283 66.7104 4.4098 66.4759C4.28883 66.2389 4.22835 65.939 4.22835 65.5761C4.22835 65.3786 4.2481 65.1959 4.2876 65.028C4.3271 64.8601 4.38758 64.7145 4.46905 64.591C4.57027 64.4306 4.70975 64.3071 4.8875 64.2207C5.06525 64.1318 5.28249 64.0874 5.53924 64.0874H7.53151C7.6821 64.0874 7.79813 64.0652 7.8796 64.0208C7.96107 63.9763 8.0018 63.8961 8.0018 63.7801C8.0018 63.7504 7.99933 63.722 7.99439 63.6949C7.98699 63.6653 7.97958 63.6406 7.97218 63.6208V63.5986H8.38692C8.40173 63.6406 8.41531 63.6912 8.42766 63.7504C8.44 63.8072 8.44617 63.8751 8.44617 63.9541C8.44617 64.0923 8.41655 64.2121 8.3573 64.3133C8.29558 64.4145 8.20547 64.4923 8.08697 64.5466C7.96847 64.6009 7.82282 64.6281 7.65001 64.6281H7.5204L7.72777 64.5688V64.6281C7.92774 64.7416 8.10178 64.9157 8.24991 65.1502C8.39803 65.3847 8.47209 65.681 8.47209 66.0389ZM8.03513 65.8982C8.03513 65.6217 7.97835 65.3897 7.86479 65.202C7.74876 65.0119 7.60433 64.8688 7.43152 64.7725C7.25624 64.6762 7.07726 64.6281 6.89457 64.6281H6.15396C6.19839 64.6873 6.2416 64.7663 6.28356 64.8651C6.32306 64.9613 6.35886 65.0712 6.39095 65.1946C6.42058 65.3181 6.44773 65.4539 6.47242 65.602C6.50945 65.8439 6.55759 66.0538 6.61684 66.2315C6.67362 66.4068 6.75633 66.5426 6.86495 66.6388C6.97111 66.7351 7.12293 66.7833 7.32043 66.7833C7.50559 66.7833 7.65001 66.7401 7.75369 66.6537C7.85738 66.5672 7.93021 66.4562 7.97218 66.3204C8.01414 66.1846 8.03513 66.0439 8.03513 65.8982ZM8.39062 62.9987H4.31722V62.4173H5.07636V62.3914C4.83442 62.2655 4.63939 62.0976 4.49127 61.8878C4.34067 61.6779 4.26538 61.4372 4.26538 61.1657C4.26538 61.1089 4.27032 61.0583 4.28019 61.0138C4.2876 60.9669 4.29747 60.925 4.30981 60.8879H4.86898V60.9065C4.85417 60.9558 4.84429 61.0027 4.83936 61.0472C4.83195 61.0916 4.82825 61.1447 4.82825 61.2064C4.82825 61.3743 4.86034 61.531 4.92453 61.6767C4.98625 61.8199 5.07389 61.947 5.18745 62.0581C5.29854 62.1667 5.42938 62.2519 5.57998 62.3136C5.73057 62.3753 5.89721 62.4062 6.07989 62.4062H8.39062V62.9987Z" fill="#2E2C2F" fill-opacity="0.4"/>
<path d="M329.249 76.0984H323.606V72.2768H324.179V75.454H326.031V72.7878H326.583V75.454H329.249V76.0984ZM329.249 71.7472H325.176V71.1659H325.935V71.1399C325.693 71.014 325.498 70.8462 325.35 70.6363C325.199 70.4265 325.124 70.1858 325.124 69.9142C325.124 69.8574 325.129 69.8068 325.139 69.7624C325.146 69.7155 325.156 69.6735 325.168 69.6365H325.727V69.655C325.713 69.7044 325.703 69.7513 325.698 69.7957C325.69 69.8402 325.687 69.8932 325.687 69.9549C325.687 70.1228 325.719 70.2796 325.783 70.4252C325.845 70.5684 325.932 70.6956 326.046 70.8067C326.157 70.9153 326.288 71.0005 326.438 71.0622C326.589 71.1239 326.756 71.1548 326.938 71.1548H329.249V71.7472ZM329.349 67.3517C329.349 67.7541 329.253 68.1034 329.06 68.3996C328.868 68.6934 328.61 68.9206 328.286 69.081C327.963 69.239 327.605 69.318 327.212 69.318C326.82 69.318 326.463 69.239 326.142 69.081C325.821 68.9206 325.566 68.6934 325.376 68.3996C325.183 68.1034 325.087 67.7541 325.087 67.3517C325.087 66.9443 325.183 66.595 325.376 66.3037C325.566 66.0099 325.821 65.784 326.142 65.626C326.463 65.468 326.819 65.389 327.209 65.389C327.604 65.389 327.963 65.468 328.286 65.626C328.61 65.784 328.868 66.0099 329.06 66.3037C329.253 66.595 329.349 66.9443 329.349 67.3517ZM328.864 67.3554C328.864 67.0715 328.792 66.8283 328.649 66.6259C328.506 66.421 328.31 66.2642 328.06 66.1556C327.811 66.0469 327.527 65.9926 327.209 65.9926C326.89 65.9926 326.607 66.0469 326.361 66.1556C326.111 66.2642 325.915 66.421 325.772 66.6259C325.629 66.8283 325.557 67.0715 325.557 67.3554C325.557 67.6393 325.629 67.8837 325.772 68.0886C325.915 68.291 326.111 68.4466 326.361 68.5552C326.61 68.6638 326.894 68.7181 327.212 68.7181C327.531 68.7181 327.815 68.665 328.064 68.5589C328.311 68.4503 328.506 68.2935 328.649 68.0886C328.792 67.8837 328.864 67.6393 328.864 67.3554ZM329.249 64.6151H325.176V64.0337H325.79V64.0078C325.655 63.914 325.535 63.8053 325.431 63.6819C325.325 63.556 325.242 63.4103 325.183 63.2449C325.121 63.0795 325.09 62.8907 325.09 62.6784C325.09 62.392 325.144 62.1488 325.25 61.9489C325.353 61.7464 325.501 61.5921 325.694 61.486C325.887 61.3773 326.119 61.323 326.39 61.323H329.249V61.9044H326.461C326.179 61.9044 325.963 61.9896 325.813 62.1599C325.659 62.3278 325.583 62.5611 325.583 62.8598C325.583 63.0869 325.632 63.2881 325.731 63.4634C325.83 63.6387 325.964 63.7757 326.135 63.8745C326.303 63.9732 326.491 64.0226 326.701 64.0226H329.249V64.6151ZM329.282 59.1752C329.282 59.3555 329.255 59.5122 329.201 59.6455C329.147 59.7764 329.061 59.8776 328.945 59.9492C328.827 60.0183 328.675 60.0529 328.49 60.0529H325.639V60.6787H325.176V60.0529H323.894V59.4715H325.176V58.5976H325.639V59.4715H328.36C328.511 59.4715 328.617 59.4345 328.679 59.3604C328.74 59.2839 328.771 59.1715 328.771 59.0234C328.771 58.9617 328.766 58.8963 328.757 58.8271C328.744 58.7556 328.732 58.6975 328.719 58.6531V58.6346H329.219C329.239 58.721 329.254 58.8111 329.264 58.9049C329.276 58.9963 329.282 59.0864 329.282 59.1752Z" fill="#2E2C2F" fill-opacity="0.4"/>
<path d="M161.806 7.88855C161.626 7.88855 161.469 7.8614 161.336 7.80708C161.205 7.75277 161.104 7.6676 161.032 7.55157C160.963 7.43307 160.928 7.28124 160.928 7.09609V4.24471H160.303V3.78182H160.928V2.50055H161.51V3.78182H162.384V4.24471H161.51V6.96648C161.51 7.11707 161.547 7.22323 161.621 7.28495C161.697 7.34667 161.81 7.37753 161.958 7.37753C162.02 7.37753 162.085 7.37259 162.154 7.36271C162.226 7.35037 162.284 7.33803 162.328 7.32568H162.347V7.8256C162.26 7.84535 162.17 7.86016 162.076 7.87004C161.985 7.88238 161.895 7.88855 161.806 7.88855ZM164.828 7.95521C164.425 7.95521 164.076 7.85893 163.78 7.66637C163.486 7.47381 163.259 7.21582 163.098 6.89242C162.94 6.56902 162.861 6.21105 162.861 5.81852C162.861 5.42599 162.94 5.06926 163.098 4.74833C163.259 4.42739 163.486 4.17188 163.78 3.98179C164.076 3.78923 164.425 3.69295 164.828 3.69295C165.235 3.69295 165.584 3.78923 165.876 3.98179C166.17 4.17188 166.395 4.42739 166.553 4.74833C166.711 5.06926 166.79 5.42476 166.79 5.81482C166.79 6.20982 166.711 6.56902 166.553 6.89242C166.395 7.21582 166.17 7.47381 165.876 7.66637C165.584 7.85893 165.235 7.95521 164.828 7.95521ZM164.824 7.4701C165.108 7.4701 165.351 7.39851 165.554 7.25532C165.759 7.11214 165.915 6.91587 166.024 6.66653C166.133 6.41719 166.187 6.13329 166.187 5.81482C166.187 5.49635 166.133 5.21368 166.024 4.96681C165.915 4.71747 165.759 4.52121 165.554 4.37802C165.351 4.23483 165.108 4.16324 164.824 4.16324C164.54 4.16324 164.296 4.23483 164.091 4.37802C163.888 4.52121 163.733 4.71747 163.624 4.96681C163.516 5.21615 163.461 5.50006 163.461 5.81852C163.461 6.13699 163.514 6.42089 163.621 6.67023C163.729 6.91711 163.886 7.11214 164.091 7.25532C164.296 7.39851 164.54 7.4701 164.824 7.4701ZM167.564 9.22167V3.78182H168.146V4.53355H168.172C168.268 4.34839 168.383 4.1941 168.516 4.07066C168.652 3.94476 168.805 3.84971 168.975 3.78552C169.146 3.71887 169.333 3.68554 169.538 3.68554C169.874 3.68554 170.174 3.76948 170.438 3.93735C170.702 4.10276 170.91 4.34469 171.06 4.66316C171.211 4.97915 171.286 5.36428 171.286 5.81852C171.286 6.25055 171.213 6.62703 171.068 6.94797C170.924 7.2689 170.721 7.51701 170.457 7.69229C170.192 7.86757 169.879 7.95521 169.516 7.95521C169.215 7.95521 168.946 7.88732 168.709 7.75154C168.474 7.61576 168.293 7.4232 168.164 7.17386H168.142C168.145 7.26026 168.147 7.36395 168.149 7.48492C168.154 7.60341 168.157 7.73919 168.157 7.89226V9.22167H167.564ZM169.453 7.4664C169.715 7.4664 169.937 7.39728 170.12 7.25903C170.302 7.11831 170.442 6.92451 170.538 6.67764C170.634 6.43077 170.682 6.1481 170.682 5.82963C170.682 5.49882 170.634 5.21122 170.538 4.96681C170.442 4.71994 170.302 4.52861 170.12 4.39283C169.937 4.25458 169.716 4.18546 169.457 4.18546C169.165 4.18546 168.92 4.25829 168.72 4.40394C168.522 4.5496 168.373 4.74709 168.272 4.99644C168.173 5.24331 168.124 5.52228 168.124 5.83333C168.124 6.14193 168.17 6.41966 168.264 6.66653C168.361 6.9134 168.507 7.10843 168.705 7.25162C168.902 7.39481 169.152 7.4664 169.453 7.4664Z" fill="#2E2C2F" fill-opacity="0.4"/>
</svg>
