<svg width="332" height="136" viewBox="0 0 332 136" fill="none" xmlns="http://www.w3.org/2000/svg">
<path d="M47.753 100.48C42.492 100.009 31.0749 98.9725 26.5521 98.5956L55.7623 103.778L266.123 103.778C268.372 102.567 272.185 100.459 274.603 98.974C275.791 98.2448 276.642 97.666 276.807 97.4178C276.907 96.4893 276.959 95.5462 276.959 94.591C276.959 80.28 265.358 68.6787 251.047 68.6787C236.736 68.6787 225.134 80.28 225.134 94.591C225.219 96.4755 225.574 100.669 226.321 102.365L100.231 101.658C100.88 99.3348 101.227 96.8856 101.227 94.3554C101.227 79.3939 89.0979 67.2653 74.1364 67.2653C59.175 67.2653 47.0463 79.3939 47.0463 94.3554C47.1248 96.1614 47.5174 98.8312 47.753 100.48Z" fill="#464646"/>
<path d="M26.5521 98.5956C22.0292 98.2187 20.4274 95.6118 20.1918 94.3554C19.8777 87.7595 19.2024 73.9554 19.014 71.5055C18.8255 69.0556 19.7207 66.8727 20.1918 66.0874C20.6158 65.3808 23.7099 60.6073 41.8639 55.487C60.238 50.3045 79.1619 47.3992 86.8571 47.7133L90.8617 50.3045C93.0603 50.5401 98.494 50.3516 102.64 47.7133C117.952 37.9693 133.342 31.9303 143.393 28.3969L141.98 26.0412C148.732 24.5493 167.656 21.5654 189.328 21.5654C211 21.5654 233.379 25.4915 241.86 27.4546V30.7525C244.498 31.8832 275.938 40.6463 291.329 44.8865L293.449 44.1798L309.467 47.2422C308.823 48.4381 308.462 49.1086 307.818 50.3045C307.818 57.0888 307.347 60.8265 307.111 61.8473L314.178 81.6348V86.3461C314.178 93.3189 303.578 98.36 299.573 98.36L276.392 100.009M26.5521 98.5956C31.0749 98.9725 42.492 100.009 47.753 100.48C47.5174 98.8312 47.1248 96.1614 47.0463 94.3554C47.0463 79.3939 59.175 67.2653 74.1364 67.2653C89.0979 67.2653 101.227 79.3939 101.227 94.3554C101.227 96.8856 100.88 99.3348 100.231 101.658L226.321 102.365C225.574 100.669 225.219 96.4755 225.134 94.591C225.134 80.28 236.736 68.6787 251.047 68.6787C265.358 68.6787 276.959 80.28 276.959 94.591C276.959 95.5462 276.907 96.4893 276.807 97.4178M26.5521 98.5956L55.7623 103.778L266.123 103.778C268.372 102.567 272.185 100.459 274.603 98.974M276.392 100.009C276.572 99.1599 276.711 98.2954 276.807 97.4178M276.392 100.009L274.603 98.974M276.807 97.4178C276.642 97.666 275.791 98.2448 274.603 98.974" stroke="#2E2C2F" stroke-width="1.4134" stroke-linejoin="round"/>
<path d="M108.999 51.4825C112.597 45.9212 130.437 35.464 149.282 29.3393C158.955 26.8664 169.467 26.5073 182.024 26.2769C197.808 26.2769 222.307 28.1614 231.259 30.9882C232.729 31.4524 245.58 37.0134 252.057 41.0209C252.719 41.4306 252.572 42.3965 251.829 42.631L239.875 46.406L244.686 55.0158L295.333 55.0159C301.065 53.4455 304.049 50.3045 307.818 50.3045C308.462 49.1086 308.823 48.4381 309.467 47.2422L293.448 44.1798L291.328 44.8865C275.938 40.6463 244.498 31.8832 241.859 30.7525V27.4546C233.379 25.4915 211 21.5654 189.328 21.5654C167.656 21.5654 148.732 24.5493 141.979 26.0412L143.393 28.3969C133.342 31.9303 117.951 37.9693 102.64 47.7133C98.4936 50.3516 93.0599 50.5401 90.8613 50.3045L92.7459 51.9536L109 51.4824" stroke="#2E2C2F" stroke-width="0.70589" stroke-linejoin="round"/>
<path d="M20.1917 94.3554C20.4273 95.6118 22.0291 98.2187 26.552 98.5956C31.0748 98.9725 42.492 100.009 47.7529 100.48C47.5174 98.8312 47.1248 96.1615 47.0462 94.3554C47.0462 79.394 59.1749 67.2653 74.1364 67.2653C89.0978 67.2653 101.226 79.394 101.226 94.3554C101.226 96.8856 100.88 99.3348 100.231 101.658L173.545 102.069V95.7689L107.35 95.7691C106.757 93.8243 106.169 91.2108 105.702 88.1455C104.825 82.3819 104.379 75.0203 105.144 67.4992L104.453 67.6242L101.711 68.0906L100.244 70.1284L97.4553 70.8318C96.7254 68.1863 92.8563 65.1566 91.013 63.9724L105.144 63.5406H105.662C105.978 61.5813 106.385 59.6283 106.897 57.7068H106.495L67.7759 59.7272C62.3108 60.2925 53.5636 63.4177 49.8731 64.9096C47.5174 66.6371 42.6176 70.9872 41.8638 74.5678L38.0947 73.8611L35.9747 71.2699H23.7038C24.638 73.4424 25.3967 75.994 25.6097 78.3369C25.9208 81.7586 21.9601 85.1683 19.7803 85.875C19.804 86.3591 19.8219 86.7251 19.8382 87.053L25.4998 88.433L26.9446 90.503C25.0192 90.4263 20.6988 89.837 19.9641 89.604C19.977 89.8693 19.9913 90.1664 20.0076 90.5034C21.8131 91.3485 23.3334 91.653 28.0282 91.883L30.5566 94.643V96.943C28.1353 97.01 23.1288 95.5444 20.9431 94.6831L20.1917 94.3554Z" fill="#D9D9D9"/>
<path d="M20.1917 94.3554C20.4273 95.6118 22.0291 98.2187 26.552 98.5956C31.0748 98.9725 42.492 100.009 47.7529 100.48C47.5174 98.8312 47.1248 96.1615 47.0462 94.3554C47.0462 79.394 59.1749 67.2653 74.1364 67.2653C89.0978 67.2653 101.226 79.394 101.226 94.3554C101.226 96.8856 100.88 99.3348 100.231 101.658L173.545 102.069M20.1917 94.3554L20.9431 94.6831C23.1288 95.5444 28.1353 97.01 30.5566 96.943V94.643L28.0282 91.883C23.3334 91.653 21.8131 91.3485 20.0076 90.5034M20.1917 94.3554C20.1107 92.6542 20.0521 91.4281 20.0076 90.5034M226.321 102.365L173.545 102.069M19.7803 85.875C21.9601 85.1683 25.9208 81.7586 25.6097 78.3369C25.3967 75.994 24.638 73.4424 23.7038 71.2699H35.9747L38.0947 73.8611L41.8638 74.5678C42.6176 70.9872 47.5174 66.6371 49.8731 64.9096C53.5636 63.4177 62.3108 60.2925 67.7759 59.7272L106.495 57.7068H106.897C106.385 59.6283 105.978 61.5813 105.662 63.5406H105.144L91.013 63.9724C92.8563 65.1566 96.7254 68.1863 97.4553 70.8318L100.244 70.1284L101.711 68.0906L104.453 67.6242L105.144 67.4992C104.379 75.0203 104.825 82.3819 105.702 88.1455C106.169 91.2108 106.757 93.8243 107.35 95.7691L173.545 95.7689V102.069M19.7803 85.875C19.804 86.3591 19.8219 86.7251 19.8382 87.053L25.4998 88.433L26.9446 90.503C25.0192 90.4263 20.6988 89.837 19.9641 89.604M19.7803 85.875C19.8575 87.4498 19.8755 87.775 19.9641 89.604M19.9641 89.604C19.977 89.8693 19.9913 90.1664 20.0076 90.5034M19.9641 89.604V89.604C19.9635 89.6038 19.9629 89.6043 19.9629 89.6049L20.0065 90.5018C20.0065 90.5025 20.0069 90.5032 20.0076 90.5034V90.5034" stroke="#2E2C2F" stroke-width="0.70589" stroke-linejoin="round"/>
<path d="M309.467 47.2138L307.818 50.2762C304.049 50.2762 301.065 53.4171 295.333 54.9876L244.686 54.9874L239.875 46.3777L251.829 42.6027C252.572 42.3682 252.719 41.4023 252.057 40.9926C245.58 36.9851 232.729 31.4241 231.259 30.9599C222.307 28.1331 197.808 26.2486 182.024 26.2486C169.467 26.479 158.955 26.8381 149.282 29.3109C130.437 35.4357 112.597 45.8929 108.999 51.4542L92.7459 51.9253L90.8613 50.2762C93.0599 50.5117 98.4936 50.3233 102.64 47.6849C117.951 37.941 133.342 31.902 143.393 28.3685L141.979 26.0129C148.732 24.5209 167.656 21.5371 189.328 21.5371C211 21.5371 233.379 25.4632 241.859 27.4263V30.7242C244.498 31.8549 275.938 40.618 291.328 44.8582L293.448 44.1515L309.467 47.2138Z" fill="#D9D9D9"/>
<path d="M108.999 51.4542C112.597 45.8929 130.437 35.4357 149.282 29.3109C158.955 26.8381 169.467 26.479 182.024 26.2486C197.808 26.2486 222.307 28.1331 231.259 30.9599C232.729 31.4241 245.58 36.9851 252.057 40.9926C252.719 41.4023 252.572 42.3682 251.829 42.6027L239.875 46.3777L244.686 54.9874L295.333 54.9876C301.065 53.4171 304.049 50.2762 307.818 50.2762L309.467 47.2138L293.448 44.1515L291.328 44.8582C275.938 40.618 244.498 31.8549 241.859 30.7242V27.4263C233.379 25.4632 211 21.5371 189.328 21.5371C167.656 21.5371 148.732 24.5209 141.979 26.0129L143.393 28.3685C133.342 31.902 117.951 37.941 102.64 47.6849C98.4936 50.3233 93.0599 50.5117 90.8613 50.2762L92.7459 51.9253L108.999 51.4542ZM108.999 51.4542L109 51.4541" stroke="#2E2C2F" stroke-width="0.70589" stroke-linejoin="round"/>
<path d="M143.393 28.3968L141.979 26.0412C148.732 24.5492 167.656 21.5654 189.328 21.5654C211 21.5654 233.379 25.4915 241.86 27.4546V30.7525C208.257 20.9517 156.374 23.8331 143.393 28.3968Z" fill="#D9D9D9" stroke="#2E2C2F" stroke-width="0.706699" stroke-linejoin="round"/>
<path d="M299.573 98.3598L276.392 100.009C276.572 99.1597 276.711 98.2952 276.806 97.4176C276.907 96.4891 276.959 95.546 276.959 94.5908L314.178 86.3459C314.178 93.3187 303.578 98.3598 299.573 98.3598Z" fill="#D9D9D9" stroke="#2E2C2F" stroke-width="0.706699" stroke-linejoin="round"/>
<path d="M291.328 44.8867L293.448 44.18C284.214 40.411 255.208 31.4595 241.859 27.4548V30.7528C244.498 31.8835 275.938 40.6465 291.328 44.8867Z" fill="#2E2C2F" fill-opacity="0.4" stroke="#2E2C2F" stroke-width="0.706699" stroke-linejoin="round"/>
<path d="M143.393 28.3969L141.98 26.0413C128.082 29.5748 93.6889 44.7923 88.9775 49.1267L90.8621 50.3046C93.0607 50.5401 98.4944 50.3517 102.64 47.7133C117.952 37.9694 133.342 31.9304 143.393 28.3969Z" fill="#63A375" fill-opacity="0.4" stroke="#2E2C2F" stroke-width="0.706699" stroke-linejoin="round"/>
<path d="M41.8635 55.4868C62.5934 48.891 86.8567 47.7131 86.8567 47.7131L92.2747 51.9533C68.9536 51.9533 53.2752 56.933 46.8104 58.5492C40.2146 60.1981 33.6187 62.3182 20.1914 66.0873C20.1914 66.0873 21.1336 62.0827 41.8635 55.4868Z" fill="#D9D9D9" stroke="#2E2C2F" stroke-width="0.706699" stroke-linejoin="round"/>
<path d="M19.014 71.5054C18.8255 69.0555 19.7207 66.8726 20.1918 66.0874C21.9978 66.9511 25.1387 73.1544 25.6098 78.3368C25.9209 81.7586 21.9602 85.1683 19.7804 85.875C19.4754 79.6977 19.1385 73.1239 19.014 71.5054Z" fill="#63A375" fill-opacity="0.4" stroke="#2E2C2F" stroke-width="0.706699"/>
<path d="M49.8733 64.9097L20.6631 66.0875C22.5476 68.6787 23.0187 69.8566 23.7254 71.27H35.9749L38.095 73.8612L41.864 74.5679C42.6179 70.9873 47.5176 66.6372 49.8733 64.9097Z" fill="#D9D9D9" stroke="#2E2C2F" stroke-width="0.706699"/>
<path d="M67.7762 59.7272C62.3111 60.2926 53.5637 63.4178 49.8732 64.9097L20.6631 66.0875C34.0904 62.3185 40.6863 60.1984 47.2821 58.5494C53.7469 56.9332 69.4253 51.9536 92.7464 51.9536L109 51.4824L107.116 57.6071L67.7762 59.7272Z" fill="#D9D9D9" stroke="#2E2C2F" stroke-width="0.706699"/>
<path d="M182.024 26.2769L177.077 49.1268C176.539 50.8114 176.018 52.8058 175.531 55.0159C173.425 64.5631 171.949 78.1349 172.509 88.1455C172.672 91.0475 173.005 93.6503 173.544 95.7689L107.349 95.7689C106.757 93.8241 106.168 91.2108 105.702 88.1455C104.191 78.2157 103.958 63.5424 108.998 51.4824C112.597 45.9212 130.436 35.4639 149.282 29.3392C158.955 26.8663 169.467 26.5073 182.024 26.2769Z" fill="#D9D9D9"/>
<path d="M108.998 51.4824L177.077 49.1268M108.998 51.4824C103.958 63.5424 104.191 78.2157 105.702 88.1455M108.998 51.4824C112.597 45.9212 130.436 35.4639 149.282 29.3392C158.955 26.8663 169.467 26.5073 182.024 26.2769L177.077 49.1268M177.077 49.1268C176.539 50.8114 176.018 52.8058 175.531 55.0159M106.924 57.6072C126.686 56.7434 168.073 55.0159 175.531 55.0159M175.531 55.0159C173.425 64.5631 171.949 78.1349 172.509 88.1455M105.702 88.1455C106.168 91.2108 106.757 93.8241 107.349 95.7689L173.544 95.7689C173.005 93.6503 172.672 91.0475 172.509 88.1455M105.702 88.1455L172.509 88.1455" stroke="#2E2C2F" stroke-width="0.706699"/>
<path d="M154.936 56.9005C154.936 55.9582 155.307 55.6248 155.878 55.6036C160.536 55.4309 164.738 55.2844 168.127 55.1809C169.07 55.1517 169.07 55.9582 169.07 56.6649C169.07 57.6072 168.598 57.8427 168.127 57.8427L155.878 58.0783C155.407 58.0783 154.936 57.8427 154.936 56.9005Z" fill="#424243" stroke="#2E2C2F" stroke-width="0.706699"/>
<path d="M177.077 49.1268L182.024 26.2769C197.808 26.2769 222.307 28.1614 231.259 30.9882C232.728 31.4523 245.58 37.0134 252.057 41.0208C252.719 41.4305 252.571 42.3964 251.829 42.6309L239.874 46.406L244.686 55.0159C230.865 70.2726 222.105 79.6485 218.717 88.1455C217.659 90.8001 217.125 93.3689 217.125 96.0045L173.543 95.7689C173.005 93.6503 172.671 91.0475 172.509 88.1455C171.949 78.1349 173.425 64.5631 175.53 55.0159C175.53 55.0159 176.607 50.3046 177.077 49.1268Z" fill="#D9D9D9"/>
<path d="M177.077 49.1268C179.009 40.2033 182.024 26.2769 182.024 26.2769C197.808 26.2769 222.307 28.1614 231.259 30.9882M177.077 49.1268C178.365 49.1268 180.375 49.1268 180.375 49.1268L231.259 49.1268L239.874 46.406M177.077 49.1268C176.607 50.3046 175.53 55.0159 175.53 55.0159M175.53 55.0159C173.425 64.5631 171.949 78.1349 172.509 88.1455M175.53 55.0159H181.083C202.048 55.0159 244.12 55.0159 244.686 55.0159M231.259 30.9882C232.728 31.4523 245.58 37.0134 252.057 41.0208C252.719 41.4305 252.571 42.3964 251.829 42.6309L239.874 46.406M231.259 30.9882L239.874 46.406M244.686 55.0159C230.865 70.2726 222.105 79.6485 218.717 88.1455M244.686 55.0159L239.874 46.406M172.509 88.1455C172.671 91.0475 173.005 93.6503 173.543 95.7689L217.125 96.0045C217.125 93.3689 217.659 90.8001 218.717 88.1455M172.509 88.1455H218.717" stroke="#2E2C2F" stroke-width="0.706699"/>
<path d="M295.333 55.0156L245.104 55.0156C244.838 55.0156 244.582 55.131 244.403 55.3281C230.746 70.4006 222.082 79.7063 218.717 88.1451C217.659 90.7997 217.125 93.3686 217.125 96.0041L173.545 95.7686L173.544 101.893V102.069L226.321 102.364C225.574 100.668 225.219 96.4753 225.134 94.5908C225.134 80.2798 236.736 68.6785 251.047 68.6785C258.349 68.6785 264.946 71.6993 269.656 76.5595L270.363 75.981L287.197 61.847L295.333 55.0156Z" fill="#D9D9D9" stroke="#2E2C2F" stroke-width="0.706699"/>
<path d="M270.363 75.9814L287.197 61.8474L307.111 61.8474L314.178 81.635V86.3463L276.959 94.5911C276.959 87.5828 274.177 81.2243 269.656 76.5599L270.363 75.9814Z" fill="#D9D9D9" stroke="#2E2C2F" stroke-width="0.706699"/>
<path d="M287.197 61.8474L294.156 55.9582L295.333 54.9878C301.066 53.4173 304.049 50.2764 307.818 50.2764L307.734 55.016C307.588 58.8611 307.286 61.0941 307.112 61.8474H287.197Z" fill="#D9D9D9"/>
<path d="M294.156 55.9582L287.197 61.8474H307.112C307.286 61.0941 307.588 58.8611 307.734 55.016M294.156 55.9582L307.734 55.016M294.156 55.9582L295.333 54.9878C301.066 53.4173 304.049 50.2764 307.818 50.2764L307.734 55.016" stroke="#2E2C2F" stroke-width="0.706699"/>
<path d="M287.197 61.8472L294.156 55.9581L298.396 55.6638C298.396 55.6638 298.631 58.3137 297.155 61.8472H287.197Z" fill="#D9D9D9" stroke="#2E2C2F" stroke-width="0.706699"/>
<path d="M222.304 56.748C222.324 55.8059 222.703 55.4806 223.274 55.4717C227.935 55.3995 232.139 55.3437 235.529 55.3133C236.472 55.3044 236.455 56.1106 236.44 56.8172C236.419 57.7592 235.943 57.9846 235.472 57.9744L223.22 57.9458C222.749 57.9357 222.283 57.69 222.304 56.748Z" fill="#424243" stroke="#2E2C2F" stroke-width="0.706699"/>
<path d="M91.0131 63.9723L105.702 63.4961C105.231 65.8518 105.231 66.5585 105.063 67.5172L101.711 68.0905L100.244 70.1283L97.4554 70.8316C96.7255 68.1862 92.8564 65.1564 91.0131 63.9723Z" fill="#D9D9D9" stroke="#2E2C2F" stroke-width="0.530024" stroke-linejoin="round"/>
<path d="M170.955 47.4776L113.712 49.5977C119.064 44.4076 137.033 34.5931 151.167 30.988C159.237 28.9295 168.039 28.5141 177.079 28.3967L170.955 47.4776Z" fill="#2E2C2F" fill-opacity="0.4" stroke="#2E2C2F" stroke-width="0.706699"/>
<path d="M19.8379 87.053L25.4994 88.433L26.9442 90.503C25.0178 90.4263 20.6936 89.8363 19.9625 89.6036L20.0062 90.503C21.8122 91.3485 23.3322 91.653 28.0278 91.883L30.5562 94.643V96.943C28.1349 97.01 23.1284 95.5444 20.9428 94.6831C20.4709 94.4971 20.1763 94.0429 20.152 93.5363L20.0062 90.503L19.9625 89.6036L19.8379 87.053Z" fill="#D9D9D9"/>
<path d="M19.9625 89.6036C20.6936 89.8363 25.0178 90.4263 26.9442 90.503L25.4994 88.433L19.8379 87.053L19.9625 89.6036ZM19.9625 89.6036L20.0062 90.503M20.0062 90.503C21.8122 91.3485 23.3322 91.653 28.0278 91.883L30.5562 94.643V96.943C28.1349 97.01 23.1284 95.5444 20.9428 94.6831C20.4709 94.4971 20.1763 94.0429 20.152 93.5363L20.0062 90.503Z" stroke="#2E2C2F" stroke-width="0.706699"/>
<path d="M185.088 47.0065L186.03 28.3967C193.962 28.3967 209.554 28.9317 221.836 30.8078C225.854 31.4216 229.518 32.1789 232.444 33.1081L238.769 44.4265L230.552 47.0065L220.423 47.0065L185.088 47.0065Z" fill="#2E2C2F" fill-opacity="0.4"/>
<path d="M221.836 30.8078C209.554 28.9317 193.962 28.3967 186.03 28.3967L185.088 47.0065L220.423 47.0065M221.836 30.8078C225.854 31.4216 229.518 32.1789 232.444 33.1081L238.769 44.4264L230.552 47.0065L220.423 47.0065M221.836 30.8078L220.423 47.0065" stroke="#2E2C2F" stroke-width="0.706699"/>
<path d="M238.768 44.4265L232.443 33.1082L248.295 40.8171C248.683 41.0058 248.635 41.5735 248.22 41.6934L238.768 44.4265Z" fill="#2E2C2F" fill-opacity="0.4" stroke="#2E2C2F" stroke-width="0.706699"/>
<path fill-rule="evenodd" clip-rule="evenodd" d="M95.5727 93.1777C95.5727 105.147 85.8698 114.85 73.9006 114.85C61.9314 114.85 52.2285 105.147 52.2285 93.1777C52.2285 81.2085 61.9314 71.5056 73.9006 71.5056C85.8698 71.5056 95.5727 81.2085 95.5727 93.1777ZM74.1361 109.196C83.1129 109.196 90.3901 101.919 90.3901 92.942C90.3901 83.9651 83.1129 76.688 74.1361 76.688C65.1592 76.688 57.882 83.9651 57.882 92.942C57.882 101.919 65.1592 109.196 74.1361 109.196Z" fill="#2E2C2F" stroke="#2E2C2F" stroke-width="1.4134"/>
<path fill-rule="evenodd" clip-rule="evenodd" d="M272.92 93.1777C272.92 105.147 263.217 114.85 251.248 114.85C239.279 114.85 229.576 105.147 229.576 93.1777C229.576 81.2085 239.279 71.5056 251.248 71.5056C263.217 71.5056 272.92 81.2085 272.92 93.1777ZM251.484 109.196C260.461 109.196 267.738 101.919 267.738 92.942C267.738 83.9651 260.461 76.688 251.484 76.688C242.507 76.688 235.23 83.9651 235.23 92.942C235.23 101.919 242.507 109.196 251.484 109.196Z" fill="#2E2C2F" stroke="#2E2C2F" stroke-width="1.4134"/>
<path d="M63.3008 86.4554L63.3008 83.9854C63.3008 83.84 63.3679 83.7028 63.4827 83.6135L67.342 80.6118C67.4663 80.5151 67.6308 80.487 67.7802 80.5368L70.0457 81.2919C70.238 81.3561 70.3678 81.5361 70.3678 81.7389L70.3678 88.0886C70.3678 88.3982 70.0744 88.6236 69.7753 88.5439L63.6505 86.9106C63.4443 86.8556 63.3008 86.6688 63.3008 86.4554Z" fill="#D9D9D9"/>
<path d="M75.7858 93.1776C75.7858 94.2184 74.9421 95.0622 73.9013 95.0622C72.8605 95.0622 72.0168 94.2184 72.0168 93.1776C72.0168 92.1368 72.8605 91.2931 73.9013 91.2931C74.9421 91.2931 75.7858 92.1368 75.7858 93.1776Z" fill="#D9D9D9"/>
<path d="M84.7374 86.4554V83.9854C84.7374 83.84 84.6702 83.7028 84.5555 83.6135L80.6962 80.6118C80.5719 80.5151 80.4074 80.487 80.258 80.5368L77.9925 81.2919C77.8001 81.3561 77.6704 81.5361 77.6704 81.7389V88.0886C77.6704 88.3982 77.9638 88.6236 78.2629 88.5439L84.3876 86.9106C84.5939 86.8556 84.7374 86.6688 84.7374 86.4554Z" fill="#D9D9D9"/>
<path d="M61.678 92.5777L60.1343 94.5059C60.0434 94.6193 60.01 94.7684 60.0438 94.9098L61.1806 99.665C61.2172 99.8182 61.328 99.943 61.4758 99.9975L63.7162 100.824C63.9065 100.894 64.1203 100.835 64.2471 100.676L68.2155 95.7194C68.409 95.4778 68.3208 95.1184 68.0375 94.9937L62.2355 92.4409C62.0401 92.3549 61.8114 92.4111 61.678 92.5777Z" fill="#D9D9D9"/>
<path d="M78.4527 105.434L76.9272 107.376C76.8374 107.491 76.6998 107.557 76.5544 107.557L71.6653 107.534C71.5078 107.533 71.3611 107.454 71.2743 107.322L69.959 105.329C69.8473 105.16 69.8564 104.938 69.9817 104.779L73.9034 99.7846C74.0946 99.5412 74.4646 99.5451 74.6506 99.7925L78.4588 104.86C78.587 105.03 78.5845 105.266 78.4527 105.434Z" fill="#D9D9D9"/>
<path d="M86.5221 92.5777L88.0657 94.5059C88.1566 94.6194 88.19 94.7684 88.1562 94.9098L87.0194 99.665C86.9828 99.8182 86.872 99.943 86.7242 99.9975L84.4838 100.824C84.2935 100.894 84.0797 100.835 83.953 100.676L79.9845 95.7194C79.791 95.4778 79.8792 95.1184 80.1626 94.9937L85.9645 92.4409C86.1599 92.3549 86.3887 92.4111 86.5221 92.5777Z" fill="#D9D9D9"/>
<path d="M63.3008 86.4554L63.3008 83.9854C63.3008 83.84 63.3679 83.7028 63.4827 83.6135L67.342 80.6118C67.4663 80.5151 67.6308 80.487 67.7802 80.5368L70.0457 81.2919C70.238 81.3561 70.3678 81.5361 70.3678 81.7389L70.3678 88.0886C70.3678 88.3982 70.0744 88.6236 69.7753 88.5439L63.6505 86.9106C63.4443 86.8556 63.3008 86.6688 63.3008 86.4554Z" stroke="#2E2C2F" stroke-width="0.706699"/>
<path d="M75.7858 93.1776C75.7858 94.2184 74.9421 95.0622 73.9013 95.0622C72.8605 95.0622 72.0168 94.2184 72.0168 93.1776C72.0168 92.1368 72.8605 91.2931 73.9013 91.2931C74.9421 91.2931 75.7858 92.1368 75.7858 93.1776Z" stroke="#2E2C2F" stroke-width="0.706699"/>
<path d="M84.7374 86.4554V83.9854C84.7374 83.84 84.6702 83.7028 84.5555 83.6135L80.6962 80.6118C80.5719 80.5151 80.4074 80.487 80.258 80.5368L77.9925 81.2919C77.8001 81.3561 77.6704 81.5361 77.6704 81.7389V88.0886C77.6704 88.3982 77.9638 88.6236 78.2629 88.5439L84.3876 86.9106C84.5939 86.8556 84.7374 86.6688 84.7374 86.4554Z" stroke="#2E2C2F" stroke-width="0.706699"/>
<path d="M61.678 92.5777L60.1343 94.5059C60.0434 94.6193 60.01 94.7684 60.0438 94.9098L61.1806 99.665C61.2172 99.8182 61.328 99.943 61.4758 99.9975L63.7162 100.824C63.9065 100.894 64.1203 100.835 64.2471 100.676L68.2155 95.7194C68.409 95.4778 68.3208 95.1184 68.0375 94.9937L62.2355 92.4409C62.0401 92.3549 61.8114 92.4111 61.678 92.5777Z" stroke="#2E2C2F" stroke-width="0.706699"/>
<path d="M78.4527 105.434L76.9272 107.376C76.8374 107.491 76.6998 107.557 76.5544 107.557L71.6653 107.534C71.5078 107.533 71.3611 107.454 71.2743 107.322L69.959 105.329C69.8473 105.16 69.8564 104.938 69.9817 104.779L73.9034 99.7846C74.0946 99.5412 74.4646 99.5451 74.6506 99.7925L78.4588 104.86C78.587 105.03 78.5845 105.266 78.4527 105.434Z" stroke="#2E2C2F" stroke-width="0.706699"/>
<path d="M86.5221 92.5777L88.0657 94.5059C88.1566 94.6194 88.19 94.7684 88.1562 94.9098L87.0194 99.665C86.9828 99.8182 86.872 99.943 86.7242 99.9975L84.4838 100.824C84.2935 100.894 84.0797 100.835 83.953 100.676L79.9845 95.7194C79.791 95.4778 79.8792 95.1184 80.1626 94.9937L85.9645 92.4409C86.1599 92.3549 86.3887 92.4111 86.5221 92.5777Z" stroke="#2E2C2F" stroke-width="0.706699"/>
<path d="M261.883 86.4554V83.9854C261.883 83.84 261.816 83.7028 261.701 83.6135L257.842 80.6118C257.717 80.5151 257.553 80.487 257.403 80.5368L255.138 81.2919C254.946 81.3561 254.816 81.5361 254.816 81.7389V88.0886C254.816 88.3982 255.109 88.6236 255.408 88.5439L261.533 86.9106C261.739 86.8556 261.883 86.6688 261.883 86.4554Z" fill="#D9D9D9"/>
<path d="M240.446 86.4554L240.446 83.9854C240.446 83.84 240.513 83.7028 240.628 83.6135L244.487 80.6118C244.612 80.5151 244.776 80.487 244.926 80.5368L247.191 81.2919C247.384 81.3561 247.513 81.5361 247.513 81.7389L247.513 88.0886C247.513 88.3982 247.22 88.6236 246.921 88.5439L240.796 86.9106C240.59 86.8556 240.446 86.6688 240.446 86.4554Z" fill="#D9D9D9"/>
<path d="M238.823 92.5777L237.28 94.5059C237.189 94.6193 237.156 94.7684 237.189 94.9098L238.326 99.665C238.363 99.8182 238.473 99.943 238.621 99.9975L240.862 100.824C241.052 100.894 241.266 100.835 241.393 100.676L245.361 95.7194C245.554 95.4778 245.466 95.1184 245.183 94.9937L239.381 92.4409C239.186 92.3549 238.957 92.4111 238.823 92.5777Z" fill="#D9D9D9"/>
<path d="M255.598 105.434L254.073 107.376C253.983 107.491 253.845 107.557 253.7 107.557L248.811 107.534C248.653 107.533 248.507 107.454 248.42 107.322L247.104 105.329C246.993 105.16 247.002 104.938 247.127 104.779L251.049 99.7846C251.24 99.5412 251.61 99.5451 251.796 99.7925L255.604 104.86C255.733 105.03 255.73 105.266 255.598 105.434Z" fill="#D9D9D9"/>
<path d="M263.668 92.5777L265.211 94.5059C265.302 94.6194 265.335 94.7684 265.302 94.9098L264.165 99.665C264.128 99.8182 264.018 99.943 263.87 99.9975L261.629 100.824C261.439 100.894 261.225 100.835 261.098 100.676L257.13 95.7194C256.937 95.4778 257.025 95.1184 257.308 94.9937L263.11 92.4409C263.305 92.3549 263.534 92.4111 263.668 92.5777Z" fill="#D9D9D9"/>
<path d="M261.883 86.4554V83.9854C261.883 83.84 261.816 83.7028 261.701 83.6135L257.842 80.6118C257.717 80.5151 257.553 80.487 257.403 80.5368L255.138 81.2919C254.946 81.3561 254.816 81.5361 254.816 81.7389V88.0886C254.816 88.3982 255.109 88.6236 255.408 88.5439L261.533 86.9106C261.739 86.8556 261.883 86.6688 261.883 86.4554Z" stroke="#2E2C2F" stroke-width="0.706699"/>
<path d="M240.446 86.4554L240.446 83.9854C240.446 83.84 240.513 83.7028 240.628 83.6135L244.487 80.6118C244.612 80.5151 244.776 80.487 244.926 80.5368L247.191 81.2919C247.384 81.3561 247.513 81.5361 247.513 81.7389L247.513 88.0886C247.513 88.3982 247.22 88.6236 246.921 88.5439L240.796 86.9106C240.59 86.8556 240.446 86.6688 240.446 86.4554Z" stroke="#2E2C2F" stroke-width="0.706699"/>
<path d="M238.823 92.5777L237.28 94.5059C237.189 94.6193 237.156 94.7684 237.189 94.9098L238.326 99.665C238.363 99.8182 238.473 99.943 238.621 99.9975L240.862 100.824C241.052 100.894 241.266 100.835 241.393 100.676L245.361 95.7194C245.554 95.4778 245.466 95.1184 245.183 94.9937L239.381 92.4409C239.186 92.3549 238.957 92.4111 238.823 92.5777Z" stroke="#2E2C2F" stroke-width="0.706699"/>
<path d="M255.598 105.434L254.073 107.376C253.983 107.491 253.845 107.557 253.7 107.557L248.811 107.534C248.653 107.533 248.507 107.454 248.42 107.322L247.104 105.329C246.993 105.16 247.002 104.938 247.127 104.779L251.049 99.7846C251.24 99.5412 251.61 99.5451 251.796 99.7925L255.604 104.86C255.733 105.03 255.73 105.266 255.598 105.434Z" stroke="#2E2C2F" stroke-width="0.706699"/>
<path d="M263.668 92.5777L265.211 94.5059C265.302 94.6194 265.335 94.7684 265.302 94.9098L264.165 99.665C264.128 99.8182 264.018 99.943 263.87 99.9975L261.629 100.824C261.439 100.894 261.225 100.835 261.098 100.676L257.13 95.7194C256.937 95.4778 257.025 95.1184 257.308 94.9937L263.11 92.4409C263.305 92.3549 263.534 92.4111 263.668 92.5777Z" stroke="#2E2C2F" stroke-width="0.706699"/>
<path d="M122.427 52.189L119.925 54.2226C119.205 54.8071 118.16 54.7532 117.505 54.0978C116.829 53.4222 116.796 52.3376 117.428 51.6214L119.215 49.5978C119.024 49.4379 118.837 49.28 118.658 49.1266C118.093 45.1691 120.936 44.3368 122.427 44.4153H126.847C127.469 44.4153 127.92 45.0061 127.756 45.6055L126.15 51.4947C126.039 51.9046 125.666 52.189 125.241 52.189H122.427Z" fill="#D9D9D9"/>
<path d="M122.427 52.189L119.925 54.2226C119.205 54.8071 118.16 54.7532 117.505 54.0978V54.0978C116.829 53.4222 116.796 52.3376 117.428 51.6214L119.215 49.5978M122.427 52.189H125.241C125.666 52.189 126.039 51.9046 126.15 51.4947L127.756 45.6055C127.92 45.0061 127.469 44.4153 126.847 44.4153H122.427C120.936 44.3368 118.093 45.1691 118.658 49.1266C118.837 49.28 119.024 49.4379 119.215 49.5978M122.427 52.189C121.817 51.7139 120.431 50.6169 119.215 49.5978" stroke="#2E2C2F" stroke-width="0.706699"/>
<path d="M8.77832 76.6816H3.1348V72.86H3.70878V76.0373H5.56033V73.3711H6.11209V76.0373H8.77832V76.6816ZM8.77832 72.3305H4.70492V71.7491H5.46405V71.7232C5.22212 71.5973 5.02709 71.4294 4.87896 71.2196C4.72837 71.0097 4.65307 70.769 4.65307 70.4975C4.65307 70.4407 4.65801 70.3901 4.66789 70.3456C4.67529 70.2987 4.68517 70.2568 4.69751 70.2197H5.25668V70.2382C5.24187 70.2876 5.23199 70.3345 5.22705 70.379C5.21965 70.4234 5.21594 70.4765 5.21594 70.5382C5.21594 70.7061 5.24804 70.8628 5.31222 71.0085C5.37394 71.1517 5.46158 71.2788 5.57514 71.3899C5.68624 71.4985 5.81708 71.5837 5.96767 71.6454C6.11826 71.7071 6.2849 71.738 6.46759 71.738H8.77832V72.3305ZM8.8783 67.9349C8.8783 68.3373 8.78202 68.6867 8.58946 68.9829C8.3969 69.2767 8.13892 69.5038 7.81552 69.6643C7.49211 69.8223 7.13415 69.9013 6.74162 69.9013C6.34909 69.9013 5.99236 69.8223 5.67142 69.6643C5.35049 69.5038 5.09498 69.2767 4.90488 68.9829C4.71232 68.6867 4.61604 68.3373 4.61604 67.9349C4.61604 67.5276 4.71232 67.1783 4.90488 66.8869C5.09498 66.5932 5.35049 66.3673 5.67142 66.2093C5.99236 66.0513 6.34786 65.9723 6.73792 65.9723C7.13291 65.9723 7.49211 66.0513 7.81552 66.2093C8.13892 66.3673 8.3969 66.5932 8.58946 66.8869C8.78202 67.1783 8.8783 67.5276 8.8783 67.9349ZM8.3932 67.9386C8.3932 67.6547 8.32161 67.4116 8.17842 67.2091C8.03523 67.0042 7.83897 66.8474 7.58963 66.7388C7.34029 66.6302 7.05638 66.5759 6.73792 66.5759C6.41945 66.5759 6.13678 66.6302 5.88991 66.7388C5.64056 66.8474 5.4443 67.0042 5.30111 67.2091C5.15793 67.4116 5.08634 67.6547 5.08634 67.9386C5.08634 68.2225 5.15793 68.4669 5.30111 68.6718C5.4443 68.8743 5.64056 69.0298 5.88991 69.1384C6.13925 69.2471 6.42315 69.3014 6.74162 69.3014C7.06008 69.3014 7.34399 69.2483 7.59333 69.1421C7.8402 69.0335 8.03523 68.8767 8.17842 68.6718C8.32161 68.4669 8.3932 68.2225 8.3932 67.9386ZM8.77832 65.1983H4.70492V64.617H5.31963V64.591C5.18385 64.4972 5.06412 64.3886 4.96043 64.2652C4.85427 64.1393 4.77157 63.9936 4.71232 63.8282C4.6506 63.6628 4.61975 63.4739 4.61975 63.2616C4.61975 62.9752 4.67282 62.7321 4.77898 62.5321C4.88266 62.3297 5.03079 62.1754 5.22335 62.0692C5.41591 61.9606 5.64797 61.9063 5.91953 61.9063H8.77832V62.4877H5.98989C5.70845 62.4877 5.49244 62.5728 5.34185 62.7432C5.18879 62.9111 5.11226 63.1444 5.11226 63.4431C5.11226 63.6702 5.16163 63.8714 5.26038 64.0467C5.35913 64.222 5.49368 64.359 5.66402 64.4577C5.83189 64.5565 6.02075 64.6058 6.23059 64.6058H8.77832V65.1983ZM8.81165 59.7585C8.81165 59.9387 8.78449 60.0955 8.73018 60.2288C8.67587 60.3596 8.5907 60.4608 8.47467 60.5324C8.35617 60.6016 8.20434 60.6361 8.01919 60.6361H5.1678V61.2619H4.70492V60.6361H3.42365V60.0547H4.70492V59.1808H5.1678V60.0547H7.88958C8.04017 60.0547 8.14633 60.0177 8.20804 59.9436C8.26976 59.8671 8.30062 59.7548 8.30062 59.6067C8.30062 59.5449 8.29568 59.4795 8.28581 59.4104C8.27347 59.3388 8.26112 59.2808 8.24878 59.2364V59.2178H8.7487C8.76845 59.3042 8.78326 59.3944 8.79313 59.4882C8.80548 59.5795 8.81165 59.6696 8.81165 59.7585Z" fill="#2E2C2F" fill-opacity="0.4"/>
<path d="M329.637 76.0984H323.993V73.5655C323.993 73.2248 324.057 72.9273 324.186 72.673C324.312 72.4187 324.491 72.2212 324.723 72.0805C324.952 71.9373 325.224 71.8657 325.537 71.8657C325.885 71.8657 326.182 71.9472 326.426 72.1101C326.668 72.2706 326.843 72.5397 326.952 72.9174H326.97C327.027 72.7026 327.111 72.5335 327.222 72.4101C327.333 72.2842 327.48 72.1929 327.663 72.1361C327.843 72.0768 328.07 72.0373 328.344 72.0176C328.562 72.0052 328.746 71.9904 328.896 71.9731C329.047 71.9559 329.171 71.9373 329.27 71.9176C329.366 71.8978 329.442 71.8756 329.496 71.8509C329.548 71.8238 329.584 71.7954 329.603 71.7658H329.637V72.4582C329.602 72.4977 329.547 72.5298 329.47 72.5545C329.391 72.5767 329.265 72.5965 329.092 72.6138C328.917 72.6286 328.671 72.6459 328.355 72.6656C327.958 72.6878 327.672 72.7903 327.496 72.973C327.319 73.1532 327.23 73.4359 327.23 73.821V75.454H329.637V76.0984ZM326.708 75.454V73.7765C326.708 73.3569 326.611 73.0446 326.419 72.8397C326.226 72.6323 325.963 72.5286 325.63 72.5286C325.277 72.5286 325.009 72.6261 324.826 72.8211C324.644 73.0137 324.552 73.3174 324.552 73.7321V75.454H326.708ZM329.733 69.2477C329.733 69.6624 329.638 70.0167 329.448 70.3104C329.255 70.6018 328.997 70.8239 328.674 70.977C328.348 71.1301 327.985 71.2066 327.585 71.2066C327.195 71.2066 326.841 71.1276 326.522 70.9696C326.201 70.8091 325.946 70.5845 325.756 70.2956C325.566 70.0068 325.471 69.6698 325.471 69.2847C325.471 68.9909 325.525 68.7305 325.634 68.5033C325.74 68.2737 325.887 68.0799 326.074 67.9219C326.272 67.7541 326.511 67.6282 326.793 67.5442C327.074 67.4603 327.384 67.4171 327.722 67.4146V70.6067C328.011 70.5919 328.272 70.5302 328.504 70.4215C328.733 70.3129 328.915 70.1599 329.048 69.9624C329.181 69.7624 329.248 69.5217 329.248 69.2403C329.248 68.9391 329.179 68.6873 329.041 68.4848C328.902 68.2799 328.711 68.1429 328.467 68.0738V67.4961C328.711 67.5529 328.929 67.6603 329.122 67.8183C329.312 67.9738 329.461 68.1725 329.57 68.4145C329.679 68.6564 329.733 68.9341 329.733 69.2477ZM327.293 70.5956V68.0404C326.994 68.0577 326.745 68.1194 326.545 68.2256C326.342 68.3318 326.189 68.4749 326.085 68.6552C325.982 68.8354 325.93 69.0452 325.93 69.2847C325.93 69.5414 325.988 69.7624 326.104 69.9475C326.218 70.1327 326.377 70.2808 326.582 70.3919C326.787 70.5005 327.024 70.5684 327.293 70.5956ZM329.718 65.4557C329.718 65.7124 329.675 65.9445 329.589 66.1519C329.502 66.3592 329.374 66.5234 329.203 66.6444C329.033 66.7629 328.822 66.8221 328.57 66.8221C328.264 66.8221 328.028 66.7505 327.863 66.6074C327.695 66.4617 327.573 66.2605 327.496 66.0037C327.417 65.7445 327.357 65.447 327.315 65.1113C327.288 64.8817 327.254 64.6879 327.215 64.5299C327.175 64.3719 327.116 64.2522 327.037 64.1707C326.956 64.0892 326.845 64.0485 326.704 64.0485C326.457 64.0485 326.263 64.1287 326.122 64.2892C325.982 64.4497 325.911 64.683 325.911 64.9891C325.911 65.3298 325.987 65.5865 326.137 65.7593C326.288 65.9322 326.498 66.026 326.767 66.0408V66.6148C326.537 66.6024 326.325 66.5382 326.13 66.4222C325.932 66.3037 325.774 66.1272 325.656 65.8927C325.535 65.6557 325.474 65.3557 325.474 64.9928C325.474 64.7953 325.494 64.6126 325.534 64.4447C325.573 64.2769 325.634 64.1312 325.715 64.0078C325.816 63.8473 325.956 63.7239 326.134 63.6375C326.311 63.5486 326.529 63.5042 326.785 63.5042H328.778C328.928 63.5042 329.044 63.4819 329.126 63.4375C329.207 63.3931 329.248 63.3128 329.248 63.1968C329.248 63.1672 329.245 63.1388 329.24 63.1116C329.233 63.082 329.226 63.0573 329.218 63.0376V63.0153H329.633C329.648 63.0573 329.661 63.1079 329.674 63.1672C329.686 63.224 329.692 63.2918 329.692 63.3708C329.692 63.5091 329.663 63.6288 329.603 63.73C329.542 63.8313 329.452 63.909 329.333 63.9633C329.215 64.0177 329.069 64.0448 328.896 64.0448H328.766L328.974 63.9856V64.0448C329.174 64.1584 329.348 64.3324 329.496 64.5669C329.644 64.8015 329.718 65.0977 329.718 65.4557ZM329.281 65.315C329.281 65.0385 329.224 64.8064 329.111 64.6188C328.995 64.4287 328.85 64.2855 328.678 64.1892C328.502 64.0929 328.323 64.0448 328.141 64.0448H327.4C327.444 64.1041 327.488 64.1831 327.53 64.2818C327.569 64.3781 327.605 64.4879 327.637 64.6114C327.667 64.7348 327.694 64.8706 327.719 65.0187C327.756 65.2607 327.804 65.4705 327.863 65.6482C327.92 65.8235 328.002 65.9593 328.111 66.0556C328.217 66.1519 328.369 66.2 328.567 66.2C328.752 66.2 328.896 66.1568 329 66.0704C329.103 65.984 329.176 65.8729 329.218 65.7371C329.26 65.6013 329.281 65.4606 329.281 65.315ZM329.637 62.4154H325.563V61.8341H326.322V61.8081C326.081 61.6822 325.885 61.5144 325.737 61.3045C325.587 61.0947 325.511 60.854 325.511 60.5824C325.511 60.5256 325.516 60.475 325.526 60.4306C325.534 60.3837 325.544 60.3417 325.556 60.3047H326.115V60.3232C326.1 60.3726 326.09 60.4195 326.085 60.4639C326.078 60.5084 326.074 60.5614 326.074 60.6231C326.074 60.791 326.106 60.9478 326.171 61.0934C326.232 61.2366 326.32 61.3638 326.434 61.4749C326.545 61.5835 326.675 61.6687 326.826 61.7304C326.977 61.7921 327.143 61.823 327.326 61.823H329.637V62.4154Z" fill="#2E2C2F" fill-opacity="0.4"/>
<path d="M162.194 7.88855C162.014 7.88855 161.857 7.8614 161.723 7.80708C161.593 7.75277 161.491 7.6676 161.42 7.55157C161.351 7.43307 161.316 7.28124 161.316 7.09609V4.24471H160.69V3.78182H161.316V2.50055H161.898V3.78182H162.771V4.24471H161.898V6.96648C161.898 7.11707 161.935 7.22323 162.009 7.28495C162.085 7.34667 162.197 7.37753 162.346 7.37753C162.407 7.37753 162.473 7.37259 162.542 7.36271C162.613 7.35037 162.671 7.33803 162.716 7.32568H162.734V7.8256C162.648 7.84535 162.558 7.86016 162.464 7.87004C162.373 7.88238 162.283 7.88855 162.194 7.88855ZM165.216 7.95521C164.813 7.95521 164.464 7.85893 164.168 7.66637C163.874 7.47381 163.647 7.21582 163.486 6.89242C163.328 6.56902 163.249 6.21105 163.249 5.81852C163.249 5.42599 163.328 5.06926 163.486 4.74833C163.647 4.42739 163.874 4.17188 164.168 3.98179C164.464 3.78923 164.813 3.69295 165.216 3.69295C165.623 3.69295 165.972 3.78923 166.263 3.98179C166.557 4.17188 166.783 4.42739 166.941 4.74833C167.099 5.06926 167.178 5.42476 167.178 5.81482C167.178 6.20982 167.099 6.56902 166.941 6.89242C166.783 7.21582 166.557 7.47381 166.263 7.66637C165.972 7.85893 165.623 7.95521 165.216 7.95521ZM165.212 7.4701C165.496 7.4701 165.739 7.39851 165.941 7.25532C166.146 7.11214 166.303 6.91587 166.412 6.66653C166.52 6.41719 166.575 6.13329 166.575 5.81482C166.575 5.49635 166.52 5.21368 166.412 4.96681C166.303 4.71747 166.146 4.52121 165.941 4.37802C165.739 4.23483 165.496 4.16324 165.212 4.16324C164.928 4.16324 164.683 4.23483 164.479 4.37802C164.276 4.52121 164.121 4.71747 164.012 4.96681C163.903 5.21615 163.849 5.50006 163.849 5.81852C163.849 6.13699 163.902 6.42089 164.008 6.67023C164.117 6.91711 164.274 7.11214 164.479 7.25532C164.683 7.39851 164.928 7.4701 165.212 7.4701ZM167.952 9.22167V3.78182H168.533V4.53355H168.559C168.656 4.34839 168.77 4.1941 168.904 4.07066C169.04 3.94476 169.193 3.84971 169.363 3.78552C169.533 3.71887 169.721 3.68554 169.926 3.68554C170.262 3.68554 170.562 3.76948 170.826 3.93735C171.09 4.10276 171.297 4.34469 171.448 4.66316C171.598 4.97915 171.674 5.36428 171.674 5.81852C171.674 6.25055 171.601 6.62703 171.455 6.94797C171.312 7.2689 171.108 7.51701 170.844 7.69229C170.58 7.86757 170.267 7.95521 169.904 7.95521C169.602 7.95521 169.333 7.88732 169.096 7.75154C168.862 7.61576 168.68 7.4232 168.552 7.17386H168.53C168.532 7.26026 168.535 7.36395 168.537 7.48492C168.542 7.60341 168.545 7.73919 168.545 7.89226V9.22167H167.952ZM169.841 7.4664C170.102 7.4664 170.325 7.39728 170.507 7.25903C170.69 7.11831 170.829 6.92451 170.926 6.67764C171.022 6.43077 171.07 6.1481 171.07 5.82963C171.07 5.49882 171.022 5.21122 170.926 4.96681C170.829 4.71994 170.69 4.52861 170.507 4.39283C170.325 4.25458 170.104 4.18546 169.844 4.18546C169.553 4.18546 169.307 4.25829 169.107 4.40394C168.91 4.5496 168.761 4.74709 168.659 4.99644C168.561 5.24331 168.511 5.52228 168.511 5.83333C168.511 6.14193 168.558 6.41966 168.652 6.66653C168.748 6.9134 168.895 7.10843 169.093 7.25162C169.29 7.39481 169.539 7.4664 169.841 7.4664Z" fill="#2E2C2F" fill-opacity="0.4"/>
</svg>
