<svg width="331" height="180" viewBox="0 0 331 180" fill="none" xmlns="http://www.w3.org/2000/svg">
<path d="M266.271 148.148V148.855C266.31 148.855 266.349 148.852 266.387 148.845L266.271 148.148ZM283.239 145.32L283.355 146.017L283.385 146.012L283.415 146.005L283.239 145.32ZM313.403 117.748L314.11 117.781L314.11 117.764V117.748H313.403ZM266.271 30.7888L266.387 30.0914C266.349 30.085 266.31 30.0818 266.271 30.0818V30.7888ZM283.239 33.6167L283.415 32.9322L283.385 32.9244L283.355 32.9193L283.239 33.6167ZM313.403 61.189H314.11V61.1724L314.11 61.1558L313.403 61.189ZM124.706 147.441C124.316 147.441 123.999 147.757 123.999 148.148C123.999 148.538 124.316 148.855 124.706 148.855V147.441ZM114.711 148.855C115.102 148.855 115.418 148.538 115.418 148.148C115.418 147.757 115.102 147.441 114.711 147.441V148.855ZM114.696 31.4958C115.087 31.4958 115.403 31.1792 115.403 30.7888C115.403 30.3983 115.087 30.0818 114.696 30.0818V31.4958ZM124.844 30.0818C124.453 30.0818 124.137 30.3983 124.137 30.7888C124.137 31.1792 124.453 31.4958 124.844 31.4958V30.0818ZM17.4131 112.799C17.4131 119.043 21.3435 128.044 28.1571 135.459C34.9922 142.897 44.8311 148.855 56.7685 148.855V147.441C45.3284 147.441 35.843 141.733 29.1983 134.502C22.5322 127.247 18.8271 118.573 18.8271 112.799H17.4131ZM56.7685 148.855C56.8142 148.855 56.8598 148.855 56.9054 148.855C56.951 148.855 56.9966 148.855 57.0421 148.855C57.0876 148.855 57.1332 148.855 57.1786 148.855C57.2241 148.855 57.2696 148.855 57.315 148.855C57.3604 148.855 57.4058 148.855 57.4511 148.855C57.4965 148.855 57.5418 148.855 57.5871 148.855C57.6324 148.855 57.6777 148.855 57.7229 148.855C57.7681 148.855 57.8133 148.855 57.8585 148.855C57.9037 148.855 57.9488 148.855 57.9939 148.855C58.039 148.855 58.0841 148.855 58.1292 148.855C58.1742 148.855 58.2192 148.855 58.2642 148.855C58.3092 148.855 58.3542 148.855 58.3991 148.855C58.444 148.855 58.4889 148.855 58.5338 148.855C58.5787 148.855 58.6235 148.855 58.6683 148.855C58.7131 148.855 58.7579 148.855 58.8027 148.855C58.8474 148.855 58.8921 148.855 58.9368 148.855C58.9815 148.855 59.0261 148.855 59.0708 148.855C59.1154 148.855 59.16 148.855 59.2045 148.855C59.2491 148.855 59.2936 148.855 59.3381 148.855C59.3826 148.855 59.4271 148.855 59.4715 148.855C59.516 148.855 59.5604 148.855 59.6047 148.855C59.6491 148.855 59.6935 148.855 59.7378 148.855C59.7821 148.855 59.8264 148.855 59.8706 148.855C59.9149 148.855 59.9591 148.855 60.0033 148.855C60.0475 148.855 60.0917 148.855 60.1358 148.855C60.1799 148.855 60.224 148.855 60.2681 148.855C60.3122 148.855 60.3562 148.855 60.4002 148.855C60.4442 148.855 60.4882 148.855 60.5321 148.855C60.5761 148.855 60.62 148.855 60.6639 148.855C60.7078 148.855 60.7516 148.855 60.7954 148.855C60.8393 148.855 60.883 148.855 60.9268 148.855C60.9706 148.855 61.0143 148.855 61.058 148.855C61.1017 148.855 61.1454 148.855 61.189 148.855C61.2326 148.855 61.2762 148.855 61.3198 148.855C61.3634 148.855 61.4069 148.855 61.4504 148.855C61.494 148.855 61.5374 148.855 61.5809 148.855C61.6243 148.855 61.6678 148.855 61.7111 148.855C61.7545 148.855 61.7979 148.855 61.8412 148.855C61.8845 148.855 61.9278 148.855 61.9711 148.855C62.0144 148.855 62.0576 148.855 62.1008 148.855C62.144 148.855 62.1872 148.855 62.2303 148.855C62.2734 148.855 62.3165 148.855 62.3596 148.855C62.4027 148.855 62.4457 148.855 62.4888 148.855C62.5318 148.855 62.5748 148.855 62.6177 148.855C62.6607 148.855 62.7036 148.855 62.7465 148.855C62.7894 148.855 62.8322 148.855 62.875 148.855C62.9179 148.855 62.9607 148.855 63.0034 148.855C63.0462 148.855 63.0889 148.855 63.1316 148.855C63.1743 148.855 63.217 148.855 63.2596 148.855C63.3023 148.855 63.3449 148.855 63.3875 148.855C63.43 148.855 63.4726 148.855 63.5151 148.855C63.5576 148.855 63.6001 148.855 63.6426 148.855C63.685 148.855 63.7274 148.855 63.7698 148.855C63.8122 148.855 63.8546 148.855 63.8969 148.855C63.9392 148.855 63.9815 148.855 64.0238 148.855C64.066 148.855 64.1083 148.855 64.1505 148.855C64.1927 148.855 64.2348 148.855 64.277 148.855C64.3191 148.855 64.3612 148.855 64.4033 148.855C64.4454 148.855 64.4874 148.855 64.5294 148.855C64.5714 148.855 64.6134 148.855 64.6554 148.855C64.6973 148.855 64.7392 148.855 64.7811 148.855C64.823 148.855 64.8648 148.855 64.9067 148.855C64.9485 148.855 64.9903 148.855 65.032 148.855C65.0738 148.855 65.1155 148.855 65.1572 148.855C65.1989 148.855 65.2406 148.855 65.2822 148.855C65.3238 148.855 65.3654 148.855 65.407 148.855C65.4486 148.855 65.4901 148.855 65.5316 148.855C65.5731 148.855 65.6146 148.855 65.656 148.855C65.6975 148.855 65.7389 148.855 65.7803 148.855C65.8217 148.855 65.863 148.855 65.9043 148.855C65.9456 148.855 65.9869 148.855 66.0282 148.855C66.0694 148.855 66.1106 148.855 66.1518 148.855C66.193 148.855 66.2342 148.855 66.2753 148.855C66.3164 148.855 66.3575 148.855 66.3986 148.855C66.4396 148.855 66.4807 148.855 66.5217 148.855C66.5627 148.855 66.6036 148.855 66.6446 148.855C66.6855 148.855 66.7264 148.855 66.7673 148.855C66.8082 148.855 66.849 148.855 66.8898 148.855C66.9306 148.855 66.9714 148.855 67.0121 148.855C67.0529 148.855 67.0936 148.855 67.1343 148.855C67.1749 148.855 67.2156 148.855 67.2562 148.855C67.2968 148.855 67.3374 148.855 67.3779 148.855C67.4185 148.855 67.459 148.855 67.4995 148.855C67.54 148.855 67.5804 148.855 67.6209 148.855C67.6613 148.855 67.7017 148.855 67.742 148.855C67.7824 148.855 67.8227 148.855 67.863 148.855C67.9033 148.855 67.9436 148.855 67.9838 148.855C68.024 148.855 68.0642 148.855 68.1044 148.855C68.1446 148.855 68.1847 148.855 68.2248 148.855C68.2649 148.855 68.305 148.855 68.345 148.855C68.3851 148.855 68.4251 148.855 68.465 148.855C68.505 148.855 68.545 148.855 68.5849 148.855C68.6248 148.855 68.6647 148.855 68.7045 148.855C68.7444 148.855 68.7842 148.855 68.824 148.855C68.8637 148.855 68.9035 148.855 68.9432 148.855C68.9829 148.855 69.0226 148.855 69.0623 148.855C69.1019 148.855 69.1415 148.855 69.1811 148.855C69.2207 148.855 69.2603 148.855 69.2998 148.855C69.3393 148.855 69.3788 148.855 69.4183 148.855C69.4577 148.855 69.4971 148.855 69.5365 148.855C69.5759 148.855 69.6153 148.855 69.6546 148.855C69.6939 148.855 69.7332 148.855 69.7725 148.855C69.8118 148.855 69.851 148.855 69.8902 148.855C69.9294 148.855 69.9686 148.855 70.0077 148.855C70.0468 148.855 70.0859 148.855 70.125 148.855C70.1641 148.855 70.2031 148.855 70.2421 148.855C70.2811 148.855 70.3201 148.855 70.359 148.855C70.398 148.855 70.4369 148.855 70.4758 148.855C70.5146 148.855 70.5535 148.855 70.5923 148.855C70.6311 148.855 70.6699 148.855 70.7086 148.855C70.7474 148.855 70.7861 148.855 70.8248 148.855C70.8635 148.855 70.9021 148.855 70.9407 148.855C70.9793 148.855 71.0179 148.855 71.0565 148.855C71.095 148.855 71.1335 148.855 71.172 148.855C71.2105 148.855 71.249 148.855 71.2874 148.855C71.3258 148.855 71.3642 148.855 71.4025 148.855C71.4409 148.855 71.4792 148.855 71.5175 148.855C71.5558 148.855 71.594 148.855 71.6323 148.855C71.6705 148.855 71.7087 148.855 71.7468 148.855C71.785 148.855 71.8231 148.855 71.8612 148.855C71.8993 148.855 71.9374 148.855 71.9754 148.855C72.0134 148.855 72.0514 148.855 72.0894 148.855C72.1273 148.855 72.1653 148.855 72.2032 148.855C72.2411 148.855 72.2789 148.855 72.3168 148.855C72.3546 148.855 72.3924 148.855 72.4302 148.855C72.4679 148.855 72.5057 148.855 72.5434 148.855C72.5811 148.855 72.6187 148.855 72.6564 148.855C72.694 148.855 72.7316 148.855 72.7692 148.855C72.8067 148.855 72.8443 148.855 72.8818 148.855C72.9193 148.855 72.9567 148.855 72.9942 148.855C73.0316 148.855 73.069 148.855 73.1064 148.855C73.1438 148.855 73.1811 148.855 73.2184 148.855C73.2557 148.855 73.293 148.855 73.3302 148.855C73.3675 148.855 73.4047 148.855 73.4418 148.855C73.479 148.855 73.5161 148.855 73.5532 148.855C73.5904 148.855 73.6274 148.855 73.6645 148.855C73.7015 148.855 73.7385 148.855 73.7755 148.855C73.8125 148.855 73.8494 148.855 73.8863 148.855C73.9232 148.855 73.9601 148.855 73.9969 148.855C74.0338 148.855 74.0706 148.855 74.1074 148.855C74.1441 148.855 74.1809 148.855 74.2176 148.855C74.2543 148.855 74.291 148.855 74.3276 148.855C74.3643 148.855 74.4009 148.855 74.4375 148.855C74.474 148.855 74.5106 148.855 74.5471 148.855C74.5836 148.855 74.6201 148.855 74.6565 148.855C74.693 148.855 74.7294 148.855 74.7658 148.855C74.8021 148.855 74.8385 148.855 74.8748 148.855C74.9111 148.855 74.9474 148.855 74.9836 148.855C75.0199 148.855 75.0561 148.855 75.0923 148.855C75.1284 148.855 75.1646 148.855 75.2007 148.855C75.2368 148.855 75.2729 148.855 75.3089 148.855C75.345 148.855 75.381 148.855 75.417 148.855C75.4529 148.855 75.4889 148.855 75.5248 148.855C75.5607 148.855 75.5966 148.855 75.6324 148.855C75.6683 148.855 75.7041 148.855 75.7399 148.855C75.7756 148.855 75.8114 148.855 75.8471 148.855C75.8828 148.855 75.9185 148.855 75.9541 148.855C75.9898 148.855 76.0254 148.855 76.0609 148.855C76.0965 148.855 76.1321 148.855 76.1676 148.855C76.2031 148.855 76.2386 148.855 76.274 148.855C76.3094 148.855 76.3449 148.855 76.3802 148.855C76.4156 148.855 76.451 148.855 76.4863 148.855C76.5216 148.855 76.5568 148.855 76.5921 148.855C76.6273 148.855 76.6625 148.855 76.6977 148.855C76.7329 148.855 76.768 148.855 76.8031 148.855C76.8382 148.855 76.8733 148.855 76.9084 148.855C76.9434 148.855 76.9784 148.855 77.0134 148.855C77.0483 148.855 77.0833 148.855 77.1182 148.855C77.1531 148.855 77.188 148.855 77.2228 148.855C77.2576 148.855 77.2924 148.855 77.3272 148.855C77.362 148.855 77.3967 148.855 77.4314 148.855C77.4661 148.855 77.5008 148.855 77.5354 148.855C77.5701 148.855 77.6047 148.855 77.6392 148.855C77.6738 148.855 77.7083 148.855 77.7428 148.855C77.7773 148.855 77.8118 148.855 77.8462 148.855C77.8807 148.855 77.9151 148.855 77.9494 148.855C77.9838 148.855 78.0181 148.855 78.0524 148.855C78.0867 148.855 78.121 148.855 78.1552 148.855C78.1894 148.855 78.2236 148.855 78.2578 148.855C78.292 148.855 78.3261 148.855 78.3602 148.855C78.3943 148.855 78.4283 148.855 78.4624 148.855C78.4964 148.855 78.5304 148.855 78.5643 148.855C78.5983 148.855 78.6322 148.855 78.6661 148.855C78.7 148.855 78.7338 148.855 78.7677 148.855C78.8015 148.855 78.8353 148.855 78.869 148.855C78.9028 148.855 78.9365 148.855 78.9702 148.855C79.0039 148.855 79.0375 148.855 79.0712 148.855C79.1048 148.855 79.1384 148.855 79.1719 148.855C79.2055 148.855 79.239 148.855 79.2724 148.855C79.3059 148.855 79.3394 148.855 79.3728 148.855C79.4062 148.855 79.4396 148.855 79.4729 148.855C79.5063 148.855 79.5396 148.855 79.5729 148.855C79.6061 148.855 79.6394 148.855 79.6726 148.855C79.7058 148.855 79.739 148.855 79.7721 148.855C79.8052 148.855 79.8384 148.855 79.8714 148.855C79.9045 148.855 79.9375 148.855 79.9705 148.855C80.0035 148.855 80.0365 148.855 80.0694 148.855C80.1024 148.855 80.1353 148.855 80.1681 148.855C80.201 148.855 80.2338 148.855 80.2666 148.855C80.2994 148.855 80.3322 148.855 80.3649 148.855C80.3977 148.855 80.4303 148.855 80.463 148.855C80.4957 148.855 80.5283 148.855 80.5609 148.855C80.5935 148.855 80.626 148.855 80.6586 148.855C80.6911 148.855 80.7236 148.855 80.756 148.855C80.7885 148.855 80.8209 148.855 80.8533 148.855C80.8857 148.855 80.918 148.855 80.9503 148.855C80.9826 148.855 81.0149 148.855 81.0472 148.855C81.0794 148.855 81.1116 148.855 81.1438 148.855C81.176 148.855 81.2081 148.855 81.2402 148.855C81.2723 148.855 81.3044 148.855 81.3365 148.855C81.3685 148.855 81.4005 148.855 81.4325 148.855C81.4644 148.855 81.4964 148.855 81.5283 148.855C81.5602 148.855 81.5921 148.855 81.6239 148.855C81.6557 148.855 81.6875 148.855 81.7193 148.855C81.751 148.855 81.7828 148.855 81.8145 148.855C81.8462 148.855 81.8778 148.855 81.9094 148.855C81.9411 148.855 81.9727 148.855 82.0042 148.855C82.0358 148.855 82.0673 148.855 82.0988 148.855C82.1303 148.855 82.1617 148.855 82.1931 148.855C82.2245 148.855 82.2559 148.855 82.2873 148.855C82.3186 148.855 82.3499 148.855 82.3812 148.855C82.4125 148.855 82.4437 148.855 82.4749 148.855C82.5061 148.855 82.5373 148.855 82.5685 148.855C82.5996 148.855 82.6307 148.855 82.6618 148.855C82.6928 148.855 82.7239 148.855 82.7549 148.855C82.7859 148.855 82.8168 148.855 82.8478 148.855C82.8787 148.855 82.9096 148.855 82.9405 148.855C82.9713 148.855 83.0021 148.855 83.0329 148.855C83.0637 148.855 83.0945 148.855 83.1252 148.855C83.1559 148.855 83.1866 148.855 83.2173 148.855C83.2479 148.855 83.2785 148.855 83.3091 148.855C83.3397 148.855 83.3702 148.855 83.4007 148.855C83.4313 148.855 83.4617 148.855 83.4922 148.855C83.5226 148.855 83.553 148.855 83.5834 148.855C83.6138 148.855 83.6441 148.855 83.6744 148.855C83.7047 148.855 83.735 148.855 83.7652 148.855C83.7954 148.855 83.8256 148.855 83.8558 148.855C83.8859 148.855 83.9161 148.855 83.9462 148.855C83.9762 148.855 84.0063 148.855 84.0363 148.855C84.0663 148.855 84.0963 148.855 84.1263 148.855C84.1562 148.855 84.1861 148.855 84.216 148.855C84.2459 148.855 84.2757 148.855 84.3056 148.855C84.3354 148.855 84.3651 148.855 84.3949 148.855C84.4246 148.855 84.4543 148.855 84.484 148.855C84.5137 148.855 84.5433 148.855 84.5729 148.855C84.6025 148.855 84.6321 148.855 84.6616 148.855C84.6911 148.855 84.7206 148.855 84.7501 148.855C84.7795 148.855 84.8089 148.855 84.8383 148.855C84.8677 148.855 84.8971 148.855 84.9264 148.855C84.9557 148.855 84.985 148.855 85.0142 148.855C85.0435 148.855 85.0727 148.855 85.1019 148.855C85.131 148.855 85.1602 148.855 85.1893 148.855C85.2184 148.855 85.2475 148.855 85.2765 148.855C85.3055 148.855 85.3345 148.855 85.3635 148.855C85.3924 148.855 85.4214 148.855 85.4503 148.855C85.4791 148.855 85.508 148.855 85.5368 148.855C85.5657 148.855 85.5944 148.855 85.6232 148.855C85.6519 148.855 85.6806 148.855 85.7093 148.855C85.738 148.855 85.7666 148.855 85.7953 148.855C85.8239 148.855 85.8524 148.855 85.881 148.855C85.9095 148.855 85.938 148.855 85.9665 148.855C85.9949 148.855 86.0234 148.855 86.0518 148.855C86.0802 148.855 86.1085 148.855 86.1368 148.855C86.1652 148.855 86.1935 148.855 86.2217 148.855C86.25 148.855 86.2782 148.855 86.3064 148.855C86.3345 148.855 86.3627 148.855 86.3908 148.855C86.4189 148.855 86.447 148.855 86.475 148.855C86.5031 148.855 86.5311 148.855 86.559 148.855C86.587 148.855 86.6149 148.855 86.6428 148.855C86.6707 148.855 86.6986 148.855 86.7264 148.855C86.7542 148.855 86.782 148.855 86.8098 148.855C86.8375 148.855 86.8652 148.855 86.8929 148.855C86.9206 148.855 86.9482 148.855 86.9759 148.855C87.0035 148.855 87.031 148.855 87.0586 148.855C87.0861 148.855 87.1136 148.855 87.1411 148.855C87.1686 148.855 87.196 148.855 87.2234 148.855C87.2508 148.855 87.2781 148.855 87.3055 148.855C87.3328 148.855 87.3601 148.855 87.3873 148.855C87.4146 148.855 87.4418 148.855 87.469 148.855C87.4961 148.855 87.5233 148.855 87.5504 148.855C87.5775 148.855 87.6046 148.855 87.6316 148.855C87.6587 148.855 87.6857 148.855 87.7126 148.855C87.7396 148.855 87.7665 148.855 87.7934 148.855C87.8203 148.855 87.8471 148.855 87.874 148.855C87.9008 148.855 87.9276 148.855 87.9543 148.855C87.9811 148.855 88.0078 148.855 88.0345 148.855C88.0611 148.855 88.0878 148.855 88.1144 148.855C88.141 148.855 88.1675 148.855 88.1941 148.855C88.2206 148.855 88.2471 148.855 88.2736 148.855C88.3 148.855 88.3264 148.855 88.3528 148.855C88.3792 148.855 88.4056 148.855 88.4319 148.855C88.4582 148.855 88.4845 148.855 88.5107 148.855C88.537 148.855 88.5632 148.855 88.5893 148.855C88.6155 148.855 88.6416 148.855 88.6677 148.855C88.6938 148.855 88.7199 148.855 88.7459 148.855C88.772 148.855 88.7979 148.855 88.8239 148.855C88.8499 148.855 88.8758 148.855 88.9016 148.855C88.9275 148.855 88.9534 148.855 88.9792 148.855C89.005 148.855 89.0308 148.855 89.0565 148.855C89.0822 148.855 89.1079 148.855 89.1336 148.855C89.1593 148.855 89.1849 148.855 89.2105 148.855C89.2361 148.855 89.2616 148.855 89.2871 148.855C89.3126 148.855 89.3381 148.855 89.3636 148.855C89.389 148.855 89.4144 148.855 89.4398 148.855C89.4652 148.855 89.4905 148.855 89.5158 148.855C89.5411 148.855 89.5664 148.855 89.5916 148.855C89.6168 148.855 89.642 148.855 89.6672 148.855C89.6923 148.855 89.7174 148.855 89.7425 148.855C89.7676 148.855 89.7926 148.855 89.8176 148.855C89.8426 148.855 89.8676 148.855 89.8925 148.855C89.9175 148.855 89.9424 148.855 89.9672 148.855C89.9921 148.855 90.0169 148.855 90.0417 148.855C90.0665 148.855 90.0913 148.855 90.116 148.855C90.1407 148.855 90.1654 148.855 90.19 148.855C90.2146 148.855 90.2393 148.855 90.2638 148.855C90.2884 148.855 90.3129 148.855 90.3374 148.855C90.3619 148.855 90.3864 148.855 90.4108 148.855C90.4352 148.855 90.4596 148.855 90.4839 148.855C90.5083 148.855 90.5326 148.855 90.5569 148.855C90.5811 148.855 90.6054 148.855 90.6296 148.855C90.6538 148.855 90.678 148.855 90.7021 148.855C90.7262 148.855 90.7503 148.855 90.7744 148.855C90.7984 148.855 90.8224 148.855 90.8464 148.855C90.8704 148.855 90.8943 148.855 90.9182 148.855C90.9421 148.855 90.966 148.855 90.9899 148.855C91.0137 148.855 91.0375 148.855 91.0612 148.855C91.085 148.855 91.1087 148.855 91.1324 148.855C91.1561 148.855 91.1797 148.855 91.2034 148.855C91.227 148.855 91.2505 148.855 91.2741 148.855C91.2976 148.855 91.3211 148.855 91.3446 148.855C91.3681 148.855 91.3915 148.855 91.4149 148.855C91.4383 148.855 91.4616 148.855 91.4849 148.855C91.5083 148.855 91.5315 148.855 91.5548 148.855C91.578 148.855 91.6012 148.855 91.6244 148.855C91.6476 148.855 91.6707 148.855 91.6938 148.855C91.7169 148.855 91.7399 148.855 91.763 148.855C91.786 148.855 91.809 148.855 91.8319 148.855C91.8549 148.855 91.8778 148.855 91.9006 148.855C91.9235 148.855 91.9464 148.855 91.9692 148.855C91.992 148.855 92.0147 148.855 92.0374 148.855C92.0602 148.855 92.0828 148.855 92.1055 148.855C92.1281 148.855 92.1508 148.855 92.1733 148.855C92.1959 148.855 92.2184 148.855 92.241 148.855C92.2635 148.855 92.2859 148.855 92.3083 148.855C92.3308 148.855 92.3532 148.855 92.3755 148.855C92.3979 148.855 92.4202 148.855 92.4425 148.855C92.4647 148.855 92.487 148.855 92.5092 148.855C92.5314 148.855 92.5535 148.855 92.5757 148.855C92.5978 148.855 92.6199 148.855 92.642 148.855C92.664 148.855 92.686 148.855 92.708 148.855C92.73 148.855 92.7519 148.855 92.7738 148.855C92.7957 148.855 92.8176 148.855 92.8394 148.855C92.8613 148.855 92.883 148.855 92.9048 148.855C92.9266 148.855 92.9483 148.855 92.97 148.855C92.9916 148.855 93.0133 148.855 93.0349 148.855C93.0565 148.855 93.0781 148.855 93.0996 148.855C93.1211 148.855 93.1426 148.855 93.1641 148.855C93.1855 148.855 93.2069 148.855 93.2283 148.855C93.2497 148.855 93.2711 148.855 93.2924 148.855C93.3137 148.855 93.3349 148.855 93.3562 148.855C93.3774 148.855 93.3986 148.855 93.4197 148.855C93.4409 148.855 93.462 148.855 93.4831 148.855C93.5042 148.855 93.5252 148.855 93.5462 148.855C93.5672 148.855 93.5882 148.855 93.6091 148.855C93.6301 148.855 93.651 148.855 93.6718 148.855C93.6927 148.855 93.7135 148.855 93.7343 148.855C93.755 148.855 93.7758 148.855 93.7965 148.855C93.8172 148.855 93.8379 148.855 93.8585 148.855C93.8791 148.855 93.8997 148.855 93.9203 148.855C93.9408 148.855 93.9613 148.855 93.9818 148.855C94.0023 148.855 94.0227 148.855 94.0431 148.855C94.0635 148.855 94.0839 148.855 94.1042 148.855C94.1246 148.855 94.1448 148.855 94.1651 148.855C94.1853 148.855 94.2056 148.855 94.2257 148.855C94.2459 148.855 94.2661 148.855 94.2862 148.855C94.3063 148.855 94.3263 148.855 94.3463 148.855C94.3664 148.855 94.3864 148.855 94.4063 148.855C94.4263 148.855 94.4462 148.855 94.466 148.855C94.4859 148.855 94.5057 148.855 94.5255 148.855C94.5453 148.855 94.5651 148.855 94.5848 148.855C94.6045 148.855 94.6242 148.855 94.6439 148.855C94.6635 148.855 94.6831 148.855 94.7027 148.855C94.7223 148.855 94.7418 148.855 94.7613 148.855C94.7808 148.855 94.8002 148.855 94.8197 148.855C94.8391 148.855 94.8585 148.855 94.8778 148.855C94.8971 148.855 94.9164 148.855 94.9357 148.855C94.955 148.855 94.9742 148.855 94.9934 148.855C95.0126 148.855 95.0317 148.855 95.0508 148.855C95.07 148.855 95.089 148.855 95.1081 148.855C95.1271 148.855 95.1461 148.855 95.1651 148.855C95.184 148.855 95.203 148.855 95.2218 148.855C95.2407 148.855 95.2596 148.855 95.2784 148.855C95.2972 148.855 95.316 148.855 95.3347 148.855C95.3534 148.855 95.3721 148.855 95.3908 148.855C95.4094 148.855 95.428 148.855 95.4466 148.855C95.4652 148.855 95.4837 148.855 95.5022 148.855C95.5208 148.855 95.5392 148.855 95.5576 148.855C95.5761 148.855 95.5945 148.855 95.6128 148.855C95.6311 148.855 95.6495 148.855 95.6677 148.855C95.686 148.855 95.7042 148.855 95.7224 148.855C95.7406 148.855 95.7588 148.855 95.7769 148.855C95.795 148.855 95.8131 148.855 95.8312 148.855C95.8492 148.855 95.8672 148.855 95.8852 148.855C95.9031 148.855 95.9211 148.855 95.939 148.855C95.9568 148.855 95.9747 148.855 95.9925 148.855C96.0103 148.855 96.0281 148.855 96.0458 148.855C96.0636 148.855 96.0813 148.855 96.0989 148.855C96.1166 148.855 96.1342 148.855 96.1518 148.855C96.1694 148.855 96.1869 148.855 96.2044 148.855C96.2219 148.855 96.2394 148.855 96.2568 148.855C96.2742 148.855 96.2916 148.855 96.309 148.855C96.3263 148.855 96.3436 148.855 96.3609 148.855C96.3782 148.855 96.3954 148.855 96.4126 148.855C96.4298 148.855 96.447 148.855 96.4641 148.855C96.4812 148.855 96.4983 148.855 96.5153 148.855C96.5324 148.855 96.5494 148.855 96.5663 148.855C96.5833 148.855 96.6002 148.855 96.6171 148.855C96.634 148.855 96.6509 148.855 96.6677 148.855C96.6845 148.855 96.7012 148.855 96.718 148.855C96.7347 148.855 96.7514 148.855 96.7681 148.855C96.7847 148.855 96.8013 148.855 96.8179 148.855C96.8345 148.855 96.851 148.855 96.8675 148.855C96.884 148.855 96.9005 148.855 96.9169 148.855C96.9333 148.855 96.9497 148.855 96.9661 148.855C96.9824 148.855 96.9987 148.855 97.015 148.855C97.0312 148.855 97.0475 148.855 97.0637 148.855C97.0799 148.855 97.096 148.855 97.1121 148.855C97.1282 148.855 97.1443 148.855 97.1603 148.855C97.1764 148.855 97.1924 148.855 97.2083 148.855C97.2243 148.855 97.2402 148.855 97.2561 148.855C97.272 148.855 97.2878 148.855 97.3036 148.855C97.3194 148.855 97.3352 148.855 97.3509 148.855C97.3666 148.855 97.3823 148.855 97.3979 148.855C97.4136 148.855 97.4292 148.855 97.4447 148.855C97.4603 148.855 97.4758 148.855 97.4913 148.855C97.5068 148.855 97.5223 148.855 97.5377 148.855C97.5531 148.855 97.5685 148.855 97.5838 148.855C97.5991 148.855 97.6144 148.855 97.6297 148.855C97.6449 148.855 97.6601 148.855 97.6753 148.855C97.6905 148.855 97.7056 148.855 97.7207 148.855C97.7358 148.855 97.7509 148.855 97.7659 148.855C97.7809 148.855 97.7959 148.855 97.8108 148.855C97.8258 148.855 97.8407 148.855 97.8556 148.855C97.8704 148.855 97.8852 148.855 97.9 148.855C97.9148 148.855 97.9296 148.855 97.9443 148.855C97.959 148.855 97.9736 148.855 97.9883 148.855C98.0029 148.855 98.0175 148.855 98.032 148.855C98.0466 148.855 98.0611 148.855 98.0756 148.855C98.09 148.855 98.1045 148.855 98.1189 148.855C98.1332 148.855 98.1476 148.855 98.1619 148.855C98.1762 148.855 98.1905 148.855 98.2047 148.855C98.219 148.855 98.2332 148.855 98.2473 148.855C98.2615 148.855 98.2756 148.855 98.2897 148.855C98.3037 148.855 98.3178 148.855 98.3318 148.855C98.3458 148.855 98.3597 148.855 98.3736 148.855C98.3876 148.855 98.4015 148.855 98.4153 148.855C98.4291 148.855 98.4429 148.855 98.4567 148.855C98.4705 148.855 98.4842 148.855 98.4979 148.855C98.5115 148.855 98.5252 148.855 98.5388 148.855C98.5524 148.855 98.566 148.855 98.5795 148.855C98.593 148.855 98.6065 148.855 98.6199 148.855C98.6334 148.855 98.6468 148.855 98.6601 148.855C98.6735 148.855 98.6868 148.855 98.7001 148.855C98.7134 148.855 98.7267 148.855 98.7399 148.855C98.7531 148.855 98.7663 148.855 98.7794 148.855C98.7925 148.855 98.8056 148.855 98.8186 148.855C98.8317 148.855 98.8447 148.855 98.8577 148.855C98.8706 148.855 98.8836 148.855 98.8965 148.855C98.9094 148.855 98.9222 148.855 98.935 148.855C98.9478 148.855 98.9606 148.855 98.9733 148.855C98.9861 148.855 98.9988 148.855 99.0114 148.855C99.0241 148.855 99.0367 148.855 99.0492 148.855C99.0618 148.855 99.0744 148.855 99.0868 148.855C99.0993 148.855 99.1118 148.855 99.1242 148.855C99.1366 148.855 99.149 148.855 99.1613 148.855C99.1737 148.855 99.186 148.855 99.1982 148.855C99.2105 148.855 99.2227 148.855 99.2349 148.855C99.247 148.855 99.2592 148.855 99.2713 148.855C99.2834 148.855 99.2954 148.855 99.3074 148.855C99.3194 148.855 99.3314 148.855 99.3433 148.855C99.3553 148.855 99.3672 148.855 99.379 148.855C99.3909 148.855 99.4027 148.855 99.4145 148.855C99.4263 148.855 99.438 148.855 99.4497 148.855C99.4614 148.855 99.473 148.855 99.4846 148.855C99.4963 148.855 99.5078 148.855 99.5194 148.855C99.5309 148.855 99.5424 148.855 99.5539 148.855C99.5653 148.855 99.5767 148.855 99.5881 148.855C99.5995 148.855 99.6108 148.855 99.6221 148.855C99.6334 148.855 99.6447 148.855 99.6559 148.855C99.6671 148.855 99.6783 148.855 99.6894 148.855C99.7005 148.855 99.7116 148.855 99.7227 148.855C99.7337 148.855 99.7448 148.855 99.7557 148.855C99.7667 148.855 99.7776 148.855 99.7885 148.855C99.7994 148.855 99.8103 148.855 99.8211 148.855C99.8319 148.855 99.8427 148.855 99.8534 148.855C99.8641 148.855 99.8748 148.855 99.8855 148.855C99.8961 148.855 99.9067 148.855 99.9173 148.855C99.9279 148.855 99.9384 148.855 99.9489 148.855C99.9594 148.855 99.9699 148.855 99.9803 148.855C99.9907 148.855 100.001 148.855 100.011 148.855C100.022 148.855 100.032 148.855 100.042 148.855C100.052 148.855 100.063 148.855 100.073 148.855C100.083 148.855 100.093 148.855 100.103 148.855C100.113 148.855 100.123 148.855 100.133 148.855C100.143 148.855 100.153 148.855 100.163 148.855C100.173 148.855 100.183 148.855 100.193 148.855C100.203 148.855 100.213 148.855 100.222 148.855C100.232 148.855 100.242 148.855 100.252 148.855C100.261 148.855 100.271 148.855 100.28 148.855C100.29 148.855 100.3 148.855 100.309 148.855C100.319 148.855 100.328 148.855 100.338 148.855C100.347 148.855 100.356 148.855 100.366 148.855V147.441C100.356 147.441 100.347 147.441 100.338 147.441C100.328 147.441 100.319 147.441 100.309 147.441C100.3 147.441 100.29 147.441 100.28 147.441C100.271 147.441 100.261 147.441 100.252 147.441C100.242 147.441 100.232 147.441 100.222 147.441C100.213 147.441 100.203 147.441 100.193 147.441C100.183 147.441 100.173 147.441 100.163 147.441C100.153 147.441 100.143 147.441 100.133 147.441C100.123 147.441 100.113 147.441 100.103 147.441C100.093 147.441 100.083 147.441 100.073 147.441C100.063 147.441 100.052 147.441 100.042 147.441C100.032 147.441 100.022 147.441 100.011 147.441C100.001 147.441 99.9907 147.441 99.9803 147.441C99.9699 147.441 99.9594 147.441 99.9489 147.441C99.9384 147.441 99.9279 147.441 99.9173 147.441C99.9067 147.441 99.8961 147.441 99.8855 147.441C99.8748 147.441 99.8641 147.441 99.8534 147.441C99.8427 147.441 99.8319 147.441 99.8211 147.441C99.8103 147.441 99.7994 147.441 99.7885 147.441C99.7776 147.441 99.7667 147.441 99.7557 147.441C99.7448 147.441 99.7337 147.441 99.7227 147.441C99.7116 147.441 99.7005 147.441 99.6894 147.441C99.6783 147.441 99.6671 147.441 99.6559 147.441C99.6447 147.441 99.6334 147.441 99.6221 147.441C99.6108 147.441 99.5995 147.441 99.5881 147.441C99.5767 147.441 99.5653 147.441 99.5539 147.441C99.5424 147.441 99.5309 147.441 99.5194 147.441C99.5078 147.441 99.4963 147.441 99.4846 147.441C99.473 147.441 99.4614 147.441 99.4497 147.441C99.438 147.441 99.4263 147.441 99.4145 147.441C99.4027 147.441 99.3909 147.441 99.379 147.441C99.3672 147.441 99.3553 147.441 99.3433 147.441C99.3314 147.441 99.3194 147.441 99.3074 147.441C99.2954 147.441 99.2834 147.441 99.2713 147.441C99.2592 147.441 99.247 147.441 99.2349 147.441C99.2227 147.441 99.2105 147.441 99.1982 147.441C99.186 147.441 99.1737 147.441 99.1613 147.441C99.149 147.441 99.1366 147.441 99.1242 147.441C99.1118 147.441 99.0993 147.441 99.0868 147.441C99.0744 147.441 99.0618 147.441 99.0492 147.441C99.0367 147.441 99.0241 147.441 99.0114 147.441C98.9988 147.441 98.9861 147.441 98.9733 147.441C98.9606 147.441 98.9478 147.441 98.935 147.441C98.9222 147.441 98.9094 147.441 98.8965 147.441C98.8836 147.441 98.8706 147.441 98.8577 147.441C98.8447 147.441 98.8317 147.441 98.8186 147.441C98.8056 147.441 98.7925 147.441 98.7794 147.441C98.7663 147.441 98.7531 147.441 98.7399 147.441C98.7267 147.441 98.7134 147.441 98.7001 147.441C98.6868 147.441 98.6735 147.441 98.6601 147.441C98.6468 147.441 98.6334 147.441 98.6199 147.441C98.6065 147.441 98.593 147.441 98.5795 147.441C98.566 147.441 98.5524 147.441 98.5388 147.441C98.5252 147.441 98.5115 147.441 98.4979 147.441C98.4842 147.441 98.4705 147.441 98.4567 147.441C98.4429 147.441 98.4291 147.441 98.4153 147.441C98.4015 147.441 98.3876 147.441 98.3736 147.441C98.3597 147.441 98.3458 147.441 98.3318 147.441C98.3178 147.441 98.3037 147.441 98.2897 147.441C98.2756 147.441 98.2615 147.441 98.2473 147.441C98.2332 147.441 98.219 147.441 98.2047 147.441C98.1905 147.441 98.1762 147.441 98.1619 147.441C98.1476 147.441 98.1332 147.441 98.1189 147.441C98.1045 147.441 98.09 147.441 98.0756 147.441C98.0611 147.441 98.0466 147.441 98.032 147.441C98.0175 147.441 98.0029 147.441 97.9883 147.441C97.9736 147.441 97.959 147.441 97.9443 147.441C97.9296 147.441 97.9148 147.441 97.9 147.441C97.8852 147.441 97.8704 147.441 97.8556 147.441C97.8407 147.441 97.8258 147.441 97.8108 147.441C97.7959 147.441 97.7809 147.441 97.7659 147.441C97.7509 147.441 97.7358 147.441 97.7207 147.441C97.7056 147.441 97.6905 147.441 97.6753 147.441C97.6601 147.441 97.6449 147.441 97.6297 147.441C97.6144 147.441 97.5991 147.441 97.5838 147.441C97.5685 147.441 97.5531 147.441 97.5377 147.441C97.5223 147.441 97.5068 147.441 97.4913 147.441C97.4758 147.441 97.4603 147.441 97.4447 147.441C97.4292 147.441 97.4136 147.441 97.3979 147.441C97.3823 147.441 97.3666 147.441 97.3509 147.441C97.3352 147.441 97.3194 147.441 97.3036 147.441C97.2878 147.441 97.272 147.441 97.2561 147.441C97.2402 147.441 97.2243 147.441 97.2083 147.441C97.1924 147.441 97.1764 147.441 97.1603 147.441C97.1443 147.441 97.1282 147.441 97.1121 147.441C97.096 147.441 97.0799 147.441 97.0637 147.441C97.0475 147.441 97.0312 147.441 97.015 147.441C96.9987 147.441 96.9824 147.441 96.9661 147.441C96.9497 147.441 96.9333 147.441 96.9169 147.441C96.9005 147.441 96.884 147.441 96.8675 147.441C96.851 147.441 96.8345 147.441 96.8179 147.441C96.8013 147.441 96.7847 147.441 96.7681 147.441C96.7514 147.441 96.7347 147.441 96.718 147.441C96.7012 147.441 96.6845 147.441 96.6677 147.441C96.6509 147.441 96.634 147.441 96.6171 147.441C96.6002 147.441 96.5833 147.441 96.5663 147.441C96.5494 147.441 96.5324 147.441 96.5153 147.441C96.4983 147.441 96.4812 147.441 96.4641 147.441C96.447 147.441 96.4298 147.441 96.4126 147.441C96.3954 147.441 96.3782 147.441 96.3609 147.441C96.3436 147.441 96.3263 147.441 96.309 147.441C96.2916 147.441 96.2742 147.441 96.2568 147.441C96.2394 147.441 96.2219 147.441 96.2044 147.441C96.1869 147.441 96.1694 147.441 96.1518 147.441C96.1342 147.441 96.1166 147.441 96.0989 147.441C96.0813 147.441 96.0636 147.441 96.0458 147.441C96.0281 147.441 96.0103 147.441 95.9925 147.441C95.9747 147.441 95.9568 147.441 95.939 147.441C95.9211 147.441 95.9031 147.441 95.8852 147.441C95.8672 147.441 95.8492 147.441 95.8312 147.441C95.8131 147.441 95.795 147.441 95.7769 147.441C95.7588 147.441 95.7406 147.441 95.7224 147.441C95.7042 147.441 95.686 147.441 95.6677 147.441C95.6495 147.441 95.6311 147.441 95.6128 147.441C95.5945 147.441 95.5761 147.441 95.5576 147.441C95.5392 147.441 95.5208 147.441 95.5022 147.441C95.4837 147.441 95.4652 147.441 95.4466 147.441C95.428 147.441 95.4094 147.441 95.3908 147.441C95.3721 147.441 95.3534 147.441 95.3347 147.441C95.316 147.441 95.2972 147.441 95.2784 147.441C95.2596 147.441 95.2407 147.441 95.2218 147.441C95.203 147.441 95.184 147.441 95.1651 147.441C95.1461 147.441 95.1271 147.441 95.1081 147.441C95.089 147.441 95.07 147.441 95.0508 147.441C95.0317 147.441 95.0126 147.441 94.9934 147.441C94.9742 147.441 94.955 147.441 94.9357 147.441C94.9164 147.441 94.8971 147.441 94.8778 147.441C94.8585 147.441 94.8391 147.441 94.8197 147.441C94.8002 147.441 94.7808 147.441 94.7613 147.441C94.7418 147.441 94.7223 147.441 94.7027 147.441C94.6831 147.441 94.6635 147.441 94.6439 147.441C94.6242 147.441 94.6045 147.441 94.5848 147.441C94.5651 147.441 94.5453 147.441 94.5255 147.441C94.5057 147.441 94.4859 147.441 94.466 147.441C94.4462 147.441 94.4263 147.441 94.4063 147.441C94.3864 147.441 94.3664 147.441 94.3463 147.441C94.3263 147.441 94.3063 147.441 94.2862 147.441C94.2661 147.441 94.2459 147.441 94.2257 147.441C94.2056 147.441 94.1853 147.441 94.1651 147.441C94.1448 147.441 94.1246 147.441 94.1042 147.441C94.0839 147.441 94.0635 147.441 94.0431 147.441C94.0227 147.441 94.0023 147.441 93.9818 147.441C93.9613 147.441 93.9408 147.441 93.9203 147.441C93.8997 147.441 93.8791 147.441 93.8585 147.441C93.8379 147.441 93.8172 147.441 93.7965 147.441C93.7758 147.441 93.755 147.441 93.7343 147.441C93.7135 147.441 93.6927 147.441 93.6718 147.441C93.651 147.441 93.6301 147.441 93.6091 147.441C93.5882 147.441 93.5672 147.441 93.5462 147.441C93.5252 147.441 93.5042 147.441 93.4831 147.441C93.462 147.441 93.4409 147.441 93.4197 147.441C93.3986 147.441 93.3774 147.441 93.3562 147.441C93.3349 147.441 93.3137 147.441 93.2924 147.441C93.2711 147.441 93.2497 147.441 93.2283 147.441C93.2069 147.441 93.1855 147.441 93.1641 147.441C93.1426 147.441 93.1211 147.441 93.0996 147.441C93.0781 147.441 93.0565 147.441 93.0349 147.441C93.0133 147.441 92.9916 147.441 92.97 147.441C92.9483 147.441 92.9266 147.441 92.9048 147.441C92.883 147.441 92.8613 147.441 92.8394 147.441C92.8176 147.441 92.7957 147.441 92.7738 147.441C92.7519 147.441 92.73 147.441 92.708 147.441C92.686 147.441 92.664 147.441 92.642 147.441C92.6199 147.441 92.5978 147.441 92.5757 147.441C92.5535 147.441 92.5314 147.441 92.5092 147.441C92.487 147.441 92.4647 147.441 92.4425 147.441C92.4202 147.441 92.3979 147.441 92.3755 147.441C92.3532 147.441 92.3308 147.441 92.3083 147.441C92.2859 147.441 92.2635 147.441 92.241 147.441C92.2184 147.441 92.1959 147.441 92.1733 147.441C92.1508 147.441 92.1281 147.441 92.1055 147.441C92.0828 147.441 92.0602 147.441 92.0374 147.441C92.0147 147.441 91.992 147.441 91.9692 147.441C91.9464 147.441 91.9235 147.441 91.9006 147.441C91.8778 147.441 91.8549 147.441 91.8319 147.441C91.809 147.441 91.786 147.441 91.763 147.441C91.7399 147.441 91.7169 147.441 91.6938 147.441C91.6707 147.441 91.6476 147.441 91.6244 147.441C91.6012 147.441 91.578 147.441 91.5548 147.441C91.5315 147.441 91.5083 147.441 91.4849 147.441C91.4616 147.441 91.4383 147.441 91.4149 147.441C91.3915 147.441 91.3681 147.441 91.3446 147.441C91.3211 147.441 91.2976 147.441 91.2741 147.441C91.2505 147.441 91.227 147.441 91.2034 147.441C91.1797 147.441 91.1561 147.441 91.1324 147.441C91.1087 147.441 91.085 147.441 91.0612 147.441C91.0375 147.441 91.0137 147.441 90.9899 147.441C90.966 147.441 90.9421 147.441 90.9182 147.441C90.8943 147.441 90.8704 147.441 90.8464 147.441C90.8224 147.441 90.7984 147.441 90.7744 147.441C90.7503 147.441 90.7262 147.441 90.7021 147.441C90.678 147.441 90.6538 147.441 90.6296 147.441C90.6054 147.441 90.5811 147.441 90.5569 147.441C90.5326 147.441 90.5083 147.441 90.4839 147.441C90.4596 147.441 90.4352 147.441 90.4108 147.441C90.3864 147.441 90.3619 147.441 90.3374 147.441C90.3129 147.441 90.2884 147.441 90.2638 147.441C90.2393 147.441 90.2146 147.441 90.19 147.441C90.1654 147.441 90.1407 147.441 90.116 147.441C90.0913 147.441 90.0665 147.441 90.0417 147.441C90.0169 147.441 89.9921 147.441 89.9672 147.441C89.9424 147.441 89.9175 147.441 89.8925 147.441C89.8676 147.441 89.8426 147.441 89.8176 147.441C89.7926 147.441 89.7676 147.441 89.7425 147.441C89.7174 147.441 89.6923 147.441 89.6672 147.441C89.642 147.441 89.6168 147.441 89.5916 147.441C89.5664 147.441 89.5411 147.441 89.5158 147.441C89.4905 147.441 89.4652 147.441 89.4398 147.441C89.4144 147.441 89.389 147.441 89.3636 147.441C89.3381 147.441 89.3126 147.441 89.2871 147.441C89.2616 147.441 89.2361 147.441 89.2105 147.441C89.1849 147.441 89.1593 147.441 89.1336 147.441C89.1079 147.441 89.0822 147.441 89.0565 147.441C89.0308 147.441 89.005 147.441 88.9792 147.441C88.9534 147.441 88.9275 147.441 88.9016 147.441C88.8758 147.441 88.8499 147.441 88.8239 147.441C88.7979 147.441 88.772 147.441 88.7459 147.441C88.7199 147.441 88.6938 147.441 88.6677 147.441C88.6416 147.441 88.6155 147.441 88.5893 147.441C88.5632 147.441 88.537 147.441 88.5107 147.441C88.4845 147.441 88.4582 147.441 88.4319 147.441C88.4056 147.441 88.3792 147.441 88.3528 147.441C88.3264 147.441 88.3 147.441 88.2736 147.441C88.2471 147.441 88.2206 147.441 88.1941 147.441C88.1675 147.441 88.141 147.441 88.1144 147.441C88.0878 147.441 88.0611 147.441 88.0345 147.441C88.0078 147.441 87.9811 147.441 87.9543 147.441C87.9276 147.441 87.9008 147.441 87.874 147.441C87.8471 147.441 87.8203 147.441 87.7934 147.441C87.7665 147.441 87.7396 147.441 87.7126 147.441C87.6857 147.441 87.6587 147.441 87.6316 147.441C87.6046 147.441 87.5775 147.441 87.5504 147.441C87.5233 147.441 87.4961 147.441 87.469 147.441C87.4418 147.441 87.4146 147.441 87.3873 147.441C87.3601 147.441 87.3328 147.441 87.3055 147.441C87.2781 147.441 87.2508 147.441 87.2234 147.441C87.196 147.441 87.1686 147.441 87.1411 147.441C87.1136 147.441 87.0861 147.441 87.0586 147.441C87.031 147.441 87.0035 147.441 86.9759 147.441C86.9482 147.441 86.9206 147.441 86.8929 147.441C86.8652 147.441 86.8375 147.441 86.8098 147.441C86.782 147.441 86.7542 147.441 86.7264 147.441C86.6986 147.441 86.6707 147.441 86.6428 147.441C86.6149 147.441 86.587 147.441 86.559 147.441C86.5311 147.441 86.5031 147.441 86.475 147.441C86.447 147.441 86.4189 147.441 86.3908 147.441C86.3627 147.441 86.3345 147.441 86.3064 147.441C86.2782 147.441 86.25 147.441 86.2217 147.441C86.1935 147.441 86.1652 147.441 86.1368 147.441C86.1085 147.441 86.0802 147.441 86.0518 147.441C86.0234 147.441 85.9949 147.441 85.9665 147.441C85.938 147.441 85.9095 147.441 85.881 147.441C85.8524 147.441 85.8239 147.441 85.7953 147.441C85.7666 147.441 85.738 147.441 85.7093 147.441C85.6806 147.441 85.6519 147.441 85.6232 147.441C85.5944 147.441 85.5657 147.441 85.5368 147.441C85.508 147.441 85.4791 147.441 85.4503 147.441C85.4214 147.441 85.3924 147.441 85.3635 147.441C85.3345 147.441 85.3055 147.441 85.2765 147.441C85.2475 147.441 85.2184 147.441 85.1893 147.441C85.1602 147.441 85.131 147.441 85.1019 147.441C85.0727 147.441 85.0435 147.441 85.0142 147.441C84.985 147.441 84.9557 147.441 84.9264 147.441C84.8971 147.441 84.8677 147.441 84.8383 147.441C84.8089 147.441 84.7795 147.441 84.7501 147.441C84.7206 147.441 84.6911 147.441 84.6616 147.441C84.6321 147.441 84.6025 147.441 84.5729 147.441C84.5433 147.441 84.5137 147.441 84.484 147.441C84.4543 147.441 84.4246 147.441 84.3949 147.441C84.3651 147.441 84.3354 147.441 84.3056 147.441C84.2757 147.441 84.2459 147.441 84.216 147.441C84.1861 147.441 84.1562 147.441 84.1263 147.441C84.0963 147.441 84.0663 147.441 84.0363 147.441C84.0063 147.441 83.9762 147.441 83.9462 147.441C83.9161 147.441 83.8859 147.441 83.8558 147.441C83.8256 147.441 83.7954 147.441 83.7652 147.441C83.735 147.441 83.7047 147.441 83.6744 147.441C83.6441 147.441 83.6138 147.441 83.5834 147.441C83.553 147.441 83.5226 147.441 83.4922 147.441C83.4617 147.441 83.4313 147.441 83.4007 147.441C83.3702 147.441 83.3397 147.441 83.3091 147.441C83.2785 147.441 83.2479 147.441 83.2173 147.441C83.1866 147.441 83.1559 147.441 83.1252 147.441C83.0945 147.441 83.0637 147.441 83.0329 147.441C83.0021 147.441 82.9713 147.441 82.9405 147.441C82.9096 147.441 82.8787 147.441 82.8478 147.441C82.8168 147.441 82.7859 147.441 82.7549 147.441C82.7239 147.441 82.6928 147.441 82.6618 147.441C82.6307 147.441 82.5996 147.441 82.5685 147.441C82.5373 147.441 82.5061 147.441 82.4749 147.441C82.4437 147.441 82.4125 147.441 82.3812 147.441C82.3499 147.441 82.3186 147.441 82.2873 147.441C82.2559 147.441 82.2245 147.441 82.1931 147.441C82.1617 147.441 82.1303 147.441 82.0988 147.441C82.0673 147.441 82.0358 147.441 82.0042 147.441C81.9727 147.441 81.9411 147.441 81.9094 147.441C81.8778 147.441 81.8462 147.441 81.8145 147.441C81.7828 147.441 81.751 147.441 81.7193 147.441C81.6875 147.441 81.6557 147.441 81.6239 147.441C81.5921 147.441 81.5602 147.441 81.5283 147.441C81.4964 147.441 81.4644 147.441 81.4325 147.441C81.4005 147.441 81.3685 147.441 81.3365 147.441C81.3044 147.441 81.2723 147.441 81.2402 147.441C81.2081 147.441 81.176 147.441 81.1438 147.441C81.1116 147.441 81.0794 147.441 81.0472 147.441C81.0149 147.441 80.9826 147.441 80.9503 147.441C80.918 147.441 80.8857 147.441 80.8533 147.441C80.8209 147.441 80.7885 147.441 80.756 147.441C80.7236 147.441 80.6911 147.441 80.6586 147.441C80.626 147.441 80.5935 147.441 80.5609 147.441C80.5283 147.441 80.4957 147.441 80.463 147.441C80.4303 147.441 80.3977 147.441 80.3649 147.441C80.3322 147.441 80.2994 147.441 80.2666 147.441C80.2338 147.441 80.201 147.441 80.1681 147.441C80.1353 147.441 80.1024 147.441 80.0694 147.441C80.0365 147.441 80.0035 147.441 79.9705 147.441C79.9375 147.441 79.9045 147.441 79.8714 147.441C79.8384 147.441 79.8052 147.441 79.7721 147.441C79.739 147.441 79.7058 147.441 79.6726 147.441C79.6394 147.441 79.6061 147.441 79.5729 147.441C79.5396 147.441 79.5063 147.441 79.4729 147.441C79.4396 147.441 79.4062 147.441 79.3728 147.441C79.3394 147.441 79.3059 147.441 79.2724 147.441C79.239 147.441 79.2055 147.441 79.1719 147.441C79.1384 147.441 79.1048 147.441 79.0712 147.441C79.0375 147.441 79.0039 147.441 78.9702 147.441C78.9365 147.441 78.9028 147.441 78.869 147.441C78.8353 147.441 78.8015 147.441 78.7677 147.441C78.7338 147.441 78.7 147.441 78.6661 147.441C78.6322 147.441 78.5983 147.441 78.5643 147.441C78.5304 147.441 78.4964 147.441 78.4624 147.441C78.4283 147.441 78.3943 147.441 78.3602 147.441C78.3261 147.441 78.292 147.441 78.2578 147.441C78.2236 147.441 78.1894 147.441 78.1552 147.441C78.121 147.441 78.0867 147.441 78.0524 147.441C78.0181 147.441 77.9838 147.441 77.9494 147.441C77.9151 147.441 77.8807 147.441 77.8462 147.441C77.8118 147.441 77.7773 147.441 77.7428 147.441C77.7083 147.441 77.6738 147.441 77.6392 147.441C77.6047 147.441 77.5701 147.441 77.5354 147.441C77.5008 147.441 77.4661 147.441 77.4314 147.441C77.3967 147.441 77.362 147.441 77.3272 147.441C77.2924 147.441 77.2576 147.441 77.2228 147.441C77.188 147.441 77.1531 147.441 77.1182 147.441C77.0833 147.441 77.0483 147.441 77.0134 147.441C76.9784 147.441 76.9434 147.441 76.9084 147.441C76.8733 147.441 76.8382 147.441 76.8031 147.441C76.768 147.441 76.7329 147.441 76.6977 147.441C76.6625 147.441 76.6273 147.441 76.5921 147.441C76.5568 147.441 76.5216 147.441 76.4863 147.441C76.451 147.441 76.4156 147.441 76.3802 147.441C76.3449 147.441 76.3094 147.441 76.274 147.441C76.2386 147.441 76.2031 147.441 76.1676 147.441C76.1321 147.441 76.0965 147.441 76.0609 147.441C76.0254 147.441 75.9898 147.441 75.9541 147.441C75.9185 147.441 75.8828 147.441 75.8471 147.441C75.8114 147.441 75.7756 147.441 75.7399 147.441C75.7041 147.441 75.6683 147.441 75.6324 147.441C75.5966 147.441 75.5607 147.441 75.5248 147.441C75.4889 147.441 75.4529 147.441 75.417 147.441C75.381 147.441 75.345 147.441 75.3089 147.441C75.2729 147.441 75.2368 147.441 75.2007 147.441C75.1646 147.441 75.1284 147.441 75.0923 147.441C75.0561 147.441 75.0199 147.441 74.9836 147.441C74.9474 147.441 74.9111 147.441 74.8748 147.441C74.8385 147.441 74.8021 147.441 74.7658 147.441C74.7294 147.441 74.693 147.441 74.6565 147.441C74.6201 147.441 74.5836 147.441 74.5471 147.441C74.5106 147.441 74.474 147.441 74.4375 147.441C74.4009 147.441 74.3643 147.441 74.3276 147.441C74.291 147.441 74.2543 147.441 74.2176 147.441C74.1809 147.441 74.1441 147.441 74.1074 147.441C74.0706 147.441 74.0338 147.441 73.9969 147.441C73.9601 147.441 73.9232 147.441 73.8863 147.441C73.8494 147.441 73.8125 147.441 73.7755 147.441C73.7385 147.441 73.7015 147.441 73.6645 147.441C73.6274 147.441 73.5904 147.441 73.5532 147.441C73.5161 147.441 73.479 147.441 73.4418 147.441C73.4047 147.441 73.3675 147.441 73.3302 147.441C73.293 147.441 73.2557 147.441 73.2184 147.441C73.1811 147.441 73.1438 147.441 73.1064 147.441C73.069 147.441 73.0316 147.441 72.9942 147.441C72.9567 147.441 72.9193 147.441 72.8818 147.441C72.8443 147.441 72.8067 147.441 72.7692 147.441C72.7316 147.441 72.694 147.441 72.6564 147.441C72.6187 147.441 72.5811 147.441 72.5434 147.441C72.5057 147.441 72.4679 147.441 72.4302 147.441C72.3924 147.441 72.3546 147.441 72.3168 147.441C72.2789 147.441 72.2411 147.441 72.2032 147.441C72.1653 147.441 72.1273 147.441 72.0894 147.441C72.0514 147.441 72.0134 147.441 71.9754 147.441C71.9374 147.441 71.8993 147.441 71.8612 147.441C71.8231 147.441 71.785 147.441 71.7468 147.441C71.7087 147.441 71.6705 147.441 71.6323 147.441C71.594 147.441 71.5558 147.441 71.5175 147.441C71.4792 147.441 71.4409 147.441 71.4025 147.441C71.3642 147.441 71.3258 147.441 71.2874 147.441C71.249 147.441 71.2105 147.441 71.172 147.441C71.1335 147.441 71.095 147.441 71.0565 147.441C71.0179 147.441 70.9793 147.441 70.9407 147.441C70.9021 147.441 70.8635 147.441 70.8248 147.441C70.7861 147.441 70.7474 147.441 70.7086 147.441C70.6699 147.441 70.6311 147.441 70.5923 147.441C70.5535 147.441 70.5146 147.441 70.4758 147.441C70.4369 147.441 70.398 147.441 70.359 147.441C70.3201 147.441 70.2811 147.441 70.2421 147.441C70.2031 147.441 70.1641 147.441 70.125 147.441C70.0859 147.441 70.0468 147.441 70.0077 147.441C69.9686 147.441 69.9294 147.441 69.8902 147.441C69.851 147.441 69.8118 147.441 69.7725 147.441C69.7332 147.441 69.6939 147.441 69.6546 147.441C69.6153 147.441 69.5759 147.441 69.5365 147.441C69.4971 147.441 69.4577 147.441 69.4183 147.441C69.3788 147.441 69.3393 147.441 69.2998 147.441C69.2603 147.441 69.2207 147.441 69.1811 147.441C69.1415 147.441 69.1019 147.441 69.0623 147.441C69.0226 147.441 68.9829 147.441 68.9432 147.441C68.9035 147.441 68.8637 147.441 68.824 147.441C68.7842 147.441 68.7444 147.441 68.7045 147.441C68.6647 147.441 68.6248 147.441 68.5849 147.441C68.545 147.441 68.505 147.441 68.465 147.441C68.4251 147.441 68.3851 147.441 68.345 147.441C68.305 147.441 68.2649 147.441 68.2248 147.441C68.1847 147.441 68.1446 147.441 68.1044 147.441C68.0642 147.441 68.024 147.441 67.9838 147.441C67.9436 147.441 67.9033 147.441 67.863 147.441C67.8227 147.441 67.7824 147.441 67.742 147.441C67.7017 147.441 67.6613 147.441 67.6209 147.441C67.5804 147.441 67.54 147.441 67.4995 147.441C67.459 147.441 67.4185 147.441 67.3779 147.441C67.3374 147.441 67.2968 147.441 67.2562 147.441C67.2156 147.441 67.1749 147.441 67.1343 147.441C67.0936 147.441 67.0529 147.441 67.0121 147.441C66.9714 147.441 66.9306 147.441 66.8898 147.441C66.849 147.441 66.8082 147.441 66.7673 147.441C66.7264 147.441 66.6855 147.441 66.6446 147.441C66.6036 147.441 66.5627 147.441 66.5217 147.441C66.4807 147.441 66.4396 147.441 66.3986 147.441C66.3575 147.441 66.3164 147.441 66.2753 147.441C66.2342 147.441 66.193 147.441 66.1518 147.441C66.1106 147.441 66.0694 147.441 66.0282 147.441C65.9869 147.441 65.9456 147.441 65.9043 147.441C65.863 147.441 65.8217 147.441 65.7803 147.441C65.7389 147.441 65.6975 147.441 65.656 147.441C65.6146 147.441 65.5731 147.441 65.5316 147.441C65.4901 147.441 65.4486 147.441 65.407 147.441C65.3654 147.441 65.3238 147.441 65.2822 147.441C65.2406 147.441 65.1989 147.441 65.1572 147.441C65.1155 147.441 65.0738 147.441 65.032 147.441C64.9903 147.441 64.9485 147.441 64.9067 147.441C64.8648 147.441 64.823 147.441 64.7811 147.441C64.7392 147.441 64.6973 147.441 64.6554 147.441C64.6134 147.441 64.5714 147.441 64.5294 147.441C64.4874 147.441 64.4454 147.441 64.4033 147.441C64.3612 147.441 64.3191 147.441 64.277 147.441C64.2348 147.441 64.1927 147.441 64.1505 147.441C64.1083 147.441 64.066 147.441 64.0238 147.441C63.9815 147.441 63.9392 147.441 63.8969 147.441C63.8546 147.441 63.8122 147.441 63.7698 147.441C63.7274 147.441 63.685 147.441 63.6426 147.441C63.6001 147.441 63.5576 147.441 63.5151 147.441C63.4726 147.441 63.43 147.441 63.3875 147.441C63.3449 147.441 63.3023 147.441 63.2596 147.441C63.217 147.441 63.1743 147.441 63.1316 147.441C63.0889 147.441 63.0462 147.441 63.0034 147.441C62.9607 147.441 62.9179 147.441 62.875 147.441C62.8322 147.441 62.7894 147.441 62.7465 147.441C62.7036 147.441 62.6607 147.441 62.6177 147.441C62.5748 147.441 62.5318 147.441 62.4888 147.441C62.4457 147.441 62.4027 147.441 62.3596 147.441C62.3165 147.441 62.2734 147.441 62.2303 147.441C62.1872 147.441 62.144 147.441 62.1008 147.441C62.0576 147.441 62.0144 147.441 61.9711 147.441C61.9278 147.441 61.8845 147.441 61.8412 147.441C61.7979 147.441 61.7545 147.441 61.7111 147.441C61.6678 147.441 61.6243 147.441 61.5809 147.441C61.5374 147.441 61.494 147.441 61.4504 147.441C61.4069 147.441 61.3634 147.441 61.3198 147.441C61.2762 147.441 61.2326 147.441 61.189 147.441C61.1454 147.441 61.1017 147.441 61.058 147.441C61.0143 147.441 60.9706 147.441 60.9268 147.441C60.883 147.441 60.8393 147.441 60.7954 147.441C60.7516 147.441 60.7078 147.441 60.6639 147.441C60.62 147.441 60.5761 147.441 60.5321 147.441C60.4882 147.441 60.4442 147.441 60.4002 147.441C60.3562 147.441 60.3122 147.441 60.2681 147.441C60.224 147.441 60.1799 147.441 60.1358 147.441C60.0917 147.441 60.0475 147.441 60.0033 147.441C59.9591 147.441 59.9149 147.441 59.8706 147.441C59.8264 147.441 59.7821 147.441 59.7378 147.441C59.6935 147.441 59.6491 147.441 59.6047 147.441C59.5604 147.441 59.516 147.441 59.4715 147.441C59.4271 147.441 59.3826 147.441 59.3381 147.441C59.2936 147.441 59.2491 147.441 59.2045 147.441C59.16 147.441 59.1154 147.441 59.0708 147.441C59.0261 147.441 58.9815 147.441 58.9368 147.441C58.8921 147.441 58.8474 147.441 58.8027 147.441C58.7579 147.441 58.7131 147.441 58.6683 147.441C58.6235 147.441 58.5787 147.441 58.5338 147.441C58.4889 147.441 58.444 147.441 58.3991 147.441C58.3542 147.441 58.3092 147.441 58.2642 147.441C58.2192 147.441 58.1742 147.441 58.1292 147.441C58.0841 147.441 58.039 147.441 57.9939 147.441C57.9488 147.441 57.9037 147.441 57.8585 147.441C57.8133 147.441 57.7681 147.441 57.7229 147.441C57.6777 147.441 57.6324 147.441 57.5871 147.441C57.5418 147.441 57.4965 147.441 57.4511 147.441C57.4058 147.441 57.3604 147.441 57.315 147.441C57.2696 147.441 57.2241 147.441 57.1786 147.441C57.1332 147.441 57.0876 147.441 57.0421 147.441C56.9966 147.441 56.951 147.441 56.9054 147.441C56.8598 147.441 56.8142 147.441 56.7685 147.441V148.855ZM237.992 148.855L266.271 148.855V147.441L237.992 147.441V148.855ZM266.387 148.845L283.355 146.017L283.122 144.623L266.155 147.451L266.387 148.845ZM283.415 146.005C288.353 144.73 295.793 141.81 302.109 137.17C308.42 132.535 313.718 126.098 314.11 117.781L312.697 117.714C312.334 125.422 307.421 131.515 301.272 136.031C295.131 140.542 287.865 143.396 283.062 144.635L283.415 146.005ZM18.8271 66.1379C18.8271 60.2447 22.5334 51.5706 29.1974 44.3474C35.8405 37.1467 45.3259 31.4958 56.7685 31.4958V30.0818C44.8336 30.0818 34.9947 35.9782 28.1581 43.3886C21.3423 50.7763 17.4131 59.7768 17.4131 66.1379H18.8271ZM56.7685 31.4958H100.366V30.0818H56.7685V31.4958ZM237.992 31.4958H266.271V30.0818H237.992V31.4958ZM266.155 31.4861L283.122 34.3141L283.355 32.9193L266.387 30.0914L266.155 31.4861ZM283.062 34.3013C287.865 35.5408 295.131 38.3945 301.272 42.906C307.421 47.422 312.334 53.5144 312.697 61.2223L314.11 61.1558C313.718 52.8388 308.42 46.4018 302.11 41.7664C295.793 37.1264 288.353 34.2064 283.415 32.9322L283.062 34.3013ZM314.11 117.748V61.189H312.696V117.748H314.11ZM18.8271 112.799V66.1379H17.4131V112.799H18.8271ZM124.706 148.855H237.992V147.441H124.706V148.855ZM100.366 148.855H114.711V147.441H100.366V148.855ZM100.366 31.4958H114.696V30.0818H100.366V31.4958ZM124.844 31.4958L237.992 31.4958V30.0818L124.844 30.0818V31.4958Z" fill="#2E2C2F"/>
<path d="M69.9653 39.5082C61.293 39.5082 52.2122 40.9222 48.7559 41.6292L57.1714 32.7729L86.3404 31.6061C89.1406 34.173 99.1747 37.9437 103.842 39.5082H102.487H69.9653Z" fill="#D9D9D9"/>
<path d="M48.7559 41.6292L48.5 41.386C48.3938 41.4978 48.3724 41.6655 48.4472 41.8003C48.522 41.9351 48.6756 42.0058 48.8266 41.9749L48.7559 41.6292ZM103.842 39.5082V39.8611L103.954 39.1736L103.842 39.5082ZM86.3404 31.6061L86.5789 31.346L86.4716 31.2477L86.3263 31.2535L86.3404 31.6061ZM57.1714 32.7729L57.1573 32.4202L57.0142 32.426L56.9155 32.5298L57.1714 32.7729ZM48.8266 41.9749C52.2673 41.2712 61.3235 39.8611 69.9653 39.8611V39.1553C61.2626 39.1553 52.1571 40.5732 48.6851 41.2834L48.8266 41.9749ZM69.9653 39.8611H102.487V39.1553H69.9653V39.8611ZM102.487 39.8611H103.842V39.1553H102.487V39.8611ZM103.954 39.1736C101.627 38.3935 97.9605 37.0629 94.5288 35.6081C92.8128 34.8807 91.1598 34.124 89.7641 33.3912C88.3615 32.6549 87.2435 31.9552 86.5789 31.346L86.1019 31.8663C86.8373 32.5405 88.0237 33.2747 89.4359 34.0162C90.8551 34.7613 92.5273 35.5264 94.2533 36.258C97.7054 37.7214 101.389 39.0584 103.73 39.8428L103.954 39.1736ZM86.3263 31.2535L57.1573 32.4202L57.1855 33.1256L86.3545 31.9588L86.3263 31.2535ZM56.9155 32.5298L48.5 41.386L49.0117 41.8723L57.4272 33.016L56.9155 32.5298Z" fill="#2E2C2F"/>
<path d="M70.3424 139.588C61.6174 139.588 52.4813 138.189 49.0039 137.49L57.4706 146.252L86.8171 147.407C89.6344 144.867 99.7295 141.136 104.425 139.588H103.062H70.3424Z" fill="#D9D9D9"/>
<path d="M49.0039 137.49L48.7501 137.735C48.6427 137.624 48.6201 137.456 48.6943 137.32C48.7684 137.185 48.9221 137.113 49.0735 137.143L49.0039 137.49ZM104.425 139.588V139.235L104.535 139.923L104.425 139.588ZM86.8171 147.407L87.0534 147.669L86.9468 147.765L86.8032 147.76L86.8171 147.407ZM57.4706 146.252L57.4568 146.605L57.3152 146.6L57.2168 146.498L57.4706 146.252ZM49.0735 137.143C52.5355 137.84 61.6473 139.235 70.3424 139.235V139.941C61.5874 139.941 52.4271 138.538 48.9343 137.836L49.0735 137.143ZM70.3424 139.235H103.062V139.941H70.3424V139.235ZM103.062 139.235H104.425V139.941H103.062V139.235ZM104.535 139.923C102.194 140.695 98.5054 142.012 95.0525 143.451C93.326 144.171 91.6628 144.92 90.2585 145.645C88.8473 146.374 87.7222 147.066 87.0534 147.669L86.5808 147.145C87.3206 146.478 88.5139 145.751 89.9346 145.018C91.3622 144.281 93.0446 143.524 94.7809 142.8C98.2539 141.352 101.96 140.029 104.314 139.253L104.535 139.923ZM86.8032 147.76L57.4568 146.605L57.4845 145.9L86.831 147.054L86.8032 147.76ZM57.2168 146.498L48.7501 137.735L49.2577 137.244L57.7244 146.007L57.2168 146.498Z" fill="#2E2C2F"/>
<path d="M171.3 148.384C172.431 147.441 173.97 142.492 174.599 140.136C152.368 140.245 107.2 140.267 104.372 139.475C95.5355 142.294 89.3528 145.247 85.9902 147.441C95.5286 147.633 104.814 147.808 114.343 147.956L124.697 148.099C135.59 148.251 145.68 148.36 153.861 148.412C153.311 147.46 152.777 145.462 155.039 145.084C157.867 144.613 164.937 144.378 165.879 145.084C166.822 145.791 168.236 146.376 165.879 148.44C168.113 148.432 169.943 148.414 171.3 148.384Z" fill="#D9D9D9"/>
<path d="M153.861 148.412C153.311 147.46 152.777 145.462 155.039 145.084C157.867 144.613 164.937 144.378 165.879 145.084C166.822 145.791 168.236 146.376 165.879 148.44M153.861 148.412C158.571 148.441 162.648 148.452 165.879 148.44M153.861 148.412C145.68 148.36 135.59 148.251 124.697 148.099L114.343 147.956C104.814 147.808 95.5286 147.633 85.9902 147.441C89.3528 145.247 95.5355 142.294 104.372 139.475C107.2 140.267 152.368 140.245 174.599 140.136C173.97 142.492 172.431 147.441 171.3 148.384C169.943 148.414 168.113 148.432 165.879 148.44" stroke="#2E2C2F" stroke-width="0.706983"/>
<path fill-rule="evenodd" clip-rule="evenodd" d="M174.599 140.135C173.971 142.492 172.431 147.441 171.3 148.384L217.725 148.221C217.254 147.411 216.924 145.744 219.375 145.556C221.558 145.388 224.578 145.459 226.902 145.514C227.839 145.536 228.663 145.556 229.272 145.556C231.393 145.556 231.158 147.734 230.215 148.177L238.463 148.148C239.594 143.435 236.421 140.54 234.693 139.683C232.252 139.953 229.899 140.135 228.094 140.135H180.726H174.599Z" fill="#D9D9D9"/>
<path d="M174.599 140.135C173.971 142.492 172.431 147.441 171.3 148.384L217.725 148.221M174.599 140.135C176.439 140.135 178.505 140.135 180.726 140.135M174.599 140.135H180.726M228.094 140.135C229.899 140.135 232.252 139.953 234.693 139.683C236.421 140.54 239.594 143.435 238.463 148.148L230.215 148.177M228.094 140.135C224.256 140.135 197.853 140.135 180.726 140.135M228.094 140.135H180.726M217.725 148.221C217.254 147.411 216.924 145.744 219.375 145.556C221.558 145.388 224.578 145.459 226.902 145.514C227.839 145.536 228.663 145.556 229.272 145.556C231.393 145.556 231.158 147.734 230.215 148.177M217.725 148.221L230.215 148.177" stroke="#2E2C2F" stroke-width="0.706983"/>
<path fill-rule="evenodd" clip-rule="evenodd" d="M174.599 39.037C173.971 36.6803 172.431 31.7315 171.3 30.7888L217.725 30.9517C217.254 31.7615 216.924 33.4282 219.375 33.6168C221.558 33.7847 224.578 33.7133 226.902 33.6584C227.839 33.6362 228.663 33.6168 229.272 33.6168C231.393 33.6168 231.158 31.4379 230.215 30.9955L238.463 31.0245C239.594 35.7377 236.421 38.6319 234.693 39.4899C232.252 39.2198 229.899 39.037 228.094 39.037H180.726H174.599Z" fill="#D9D9D9"/>
<path d="M174.599 39.037C173.971 36.6803 172.431 31.7315 171.3 30.7888L217.725 30.9517M174.599 39.037C176.439 39.037 178.505 39.037 180.726 39.037M174.599 39.037H180.726M228.094 39.037C229.899 39.037 232.252 39.2198 234.693 39.4899C236.421 38.6319 239.594 35.7377 238.463 31.0245L230.215 30.9955M228.094 39.037C224.256 39.037 197.853 39.037 180.726 39.037M228.094 39.037H180.726M217.725 30.9517C217.254 31.7615 216.924 33.4282 219.375 33.6167C221.558 33.7847 224.578 33.7133 226.902 33.6584C227.839 33.6362 228.663 33.6167 229.272 33.6167C231.393 33.6167 231.158 31.4379 230.215 30.9955M217.725 30.9517L230.215 30.9955" stroke="#2E2C2F" stroke-width="0.706983"/>
<path d="M180.726 39.0369H228.093L219.374 47.3375C210.272 47.8093 198.883 48.1607 184.732 48.2277C184.182 46.9747 182.611 43.5616 180.726 39.0369Z" fill="#ABABAC" stroke="#2E2C2F" stroke-width="0.706983"/>
<path d="M180.726 140.135H228.093L219.374 131.835C210.272 131.363 198.883 131.012 184.732 130.945C184.182 132.198 182.611 135.611 180.726 140.135Z" fill="#ABABAC" stroke="#2E2C2F" stroke-width="0.706983"/>
<path d="M174.599 130.709C143.604 129.988 119.894 134.524 104.372 139.475C106.942 140.195 144.489 140.243 168.001 140.163L174.599 130.709Z" fill="#ABABAC" stroke="#2E2C2F" stroke-width="0.706983"/>
<path d="M174.599 48.2073C143.604 48.9281 119.894 44.3921 104.372 39.4411C106.942 38.7218 144.489 38.674 168.001 38.7536L174.599 48.2073Z" fill="#63A375" fill-opacity="0.4" stroke="#2E2C2F" stroke-width="0.706983"/>
<path fill-rule="evenodd" clip-rule="evenodd" d="M171.3 30.7745C172.431 31.7171 173.97 36.666 174.599 39.0226C152.368 38.9129 107.2 38.8914 104.372 39.6829C95.5355 36.8643 89.3528 33.9113 85.9902 31.7171C95.5521 31.5246 105.446 31.3495 114.996 31.2015L124.764 31.0578C135.631 30.9068 145.697 30.7979 153.861 30.7464C153.311 31.6984 152.777 33.6967 155.039 34.0737C157.867 34.545 164.937 34.7807 165.879 34.0737C165.973 34.0038 166.07 33.935 166.169 33.8659C167.065 33.2365 168.003 32.5777 165.879 30.7177C168.113 30.7257 169.943 30.7443 171.3 30.7745Z" fill="#D9D9D9"/>
<path d="M153.861 30.7464C153.311 31.6984 152.777 33.6967 155.039 34.0737C157.867 34.545 164.937 34.7807 165.879 34.0737C165.973 34.0038 166.07 33.935 166.169 33.8659C167.065 33.2365 168.003 32.5777 165.879 30.7177M153.861 30.7464C158.571 30.7167 162.648 30.7062 165.879 30.7177M153.861 30.7464C145.697 30.7979 135.631 30.9068 124.764 31.0578L114.996 31.2015C105.446 31.3495 95.5521 31.5246 85.9902 31.7171C89.3528 33.9113 95.5355 36.8643 104.372 39.6829C107.2 38.8914 152.368 38.9129 174.599 39.0226C173.97 36.666 172.431 31.7171 171.3 30.7745C169.943 30.7443 168.113 30.7257 165.879 30.7177" stroke="#2E2C2F" stroke-width="0.706983"/>
<path d="M23.0688 120.576L21.4191 124.346C20.3979 122.304 18.1199 117.512 18.1199 114.684C18.1198 111.85 18.0413 80.5133 18.1199 65.1953C18.132 62.8387 19.3453 57.9369 21.4191 54.3549L23.0688 58.3611C22.5189 64.724 22.1262 79.7591 22.1262 88.997C22.1262 98.235 22.5189 113.899 23.0688 120.576Z" fill="#63A375" fill-opacity="0.4" stroke="#2E2C2F" stroke-width="0.706983"/>
<path d="M56.2966 146.027C44.0422 145.461 27.7816 130.002 23.0684 120.575L48.7554 137.307L57.0035 146.059C56.7611 146.048 56.5254 146.037 56.2966 146.027Z" fill="#EAE6E5" fill-opacity="0.8"/>
<path d="M23.0684 120.575L23.2613 120.279L22.7522 120.734L23.0684 120.575ZM56.2966 146.027L56.3129 145.674L56.2966 146.027ZM57.0035 146.059L56.9876 146.412L57.8591 146.451L57.2608 145.817L57.0035 146.059ZM48.7554 137.307L49.0127 137.065L48.9837 137.034L48.9483 137.011L48.7554 137.307ZM22.7522 120.734C25.1378 125.505 30.4194 131.763 36.6293 136.896C42.831 142.023 50.0348 146.092 56.2803 146.38L56.3129 145.674C50.304 145.396 43.2502 141.452 37.0798 136.352C30.9174 131.257 25.7122 125.073 23.3845 120.417L22.7522 120.734ZM56.2803 146.38C56.5092 146.391 56.7451 146.401 56.9876 146.412L57.0194 145.706C56.7771 145.695 56.5415 145.684 56.3129 145.674L56.2803 146.38ZM57.2608 145.817L49.0127 137.065L48.4982 137.55L56.7463 146.302L57.2608 145.817ZM48.9483 137.011L23.2613 120.279L22.8754 120.872L48.5625 137.604L48.9483 137.011Z" fill="#2E2C2F"/>
<path d="M23.0684 58.3933C27.7816 48.9668 44.0422 33.5075 56.2966 32.9419L57.0035 32.9097L48.7554 41.6613L23.0684 58.3933Z" fill="#63A375" fill-opacity="0.4"/>
<path d="M23.0684 58.3933L23.2613 58.6895L22.7522 58.2352L23.0684 58.3933ZM56.2966 32.9419L56.2803 32.5888L56.2805 32.5888L56.2966 32.9419ZM57.0035 32.9097L56.9874 32.5565L57.8595 32.5168L57.2608 33.1521L57.0035 32.9097ZM48.7554 41.6613L49.0127 41.9038L48.9837 41.9345L48.9483 41.9575L48.7554 41.6613ZM22.7522 58.2352C25.1378 53.464 30.4194 47.2058 36.6293 42.0723C42.831 36.9455 50.0348 32.877 56.2803 32.5888L56.3129 33.295C50.304 33.5723 43.2502 37.5163 37.0798 42.6172C30.9174 47.7114 25.7122 53.8961 23.3845 58.5514L22.7522 58.2352ZM57.2608 33.1521L49.0127 41.9038L48.4982 41.4189L56.7463 32.6672L57.2608 33.1521ZM48.9483 41.9575L23.2613 58.6895L22.8754 58.0971L48.5625 41.3651L48.9483 41.9575ZM56.2805 32.5888L56.9874 32.5565L57.0196 33.2628L56.3126 33.295L56.2805 32.5888Z" fill="#2E2C2F"/>
<path d="M64.5445 134.715C52.4787 133.961 31.7091 122.461 22.8325 116.805L22.3613 89.2327L22.8325 62.0728C31.7091 56.4169 52.4787 44.9166 64.5445 44.1625C79.2791 43.2416 91.5395 43.4453 94.5141 43.8947C94.5853 43.8989 94.6504 43.9099 94.7091 43.9269C94.6493 43.916 94.5843 43.9053 94.5141 43.8947C93.3478 43.8256 90.5441 45.5942 87.1681 53.4122C82.6905 63.7813 83.7147 117.655 87.5066 125.239C90.2777 130.781 93.3404 135.035 94.7989 134.864C92.2066 135.336 79.6268 135.658 64.5445 134.715Z" fill="#EAE6E5" fill-opacity="0.8"/>
<path d="M22.8325 116.805L22.4791 116.811L22.4823 117.001L22.6426 117.103L22.8325 116.805ZM64.5445 134.715L64.5666 134.362L64.5445 134.715ZM94.7989 134.864L94.8621 135.212L94.7579 134.513L94.7989 134.864ZM22.8325 62.0728L22.6426 61.7747L22.4824 61.8767L22.4791 62.0666L22.8325 62.0728ZM64.5445 44.1625L64.5666 44.5153L64.5445 44.1625ZM94.7091 43.9269L94.6459 44.2747L94.8071 43.5872L94.7091 43.9269ZM22.3613 89.2327L22.0077 89.2266L22.0079 89.2387L22.3613 89.2327ZM87.5066 125.239L87.1905 125.397V125.397L87.5066 125.239ZM87.1681 53.4122L86.8436 53.2721L87.1681 53.4122ZM22.6426 117.103C27.0916 119.938 34.5163 124.235 42.342 127.918C50.1546 131.596 58.4167 134.686 64.5225 135.068L64.5666 134.362C58.6065 133.99 50.4509 130.954 42.6431 127.278C34.8484 123.609 27.45 119.328 23.0225 116.507L22.6426 117.103ZM64.5225 135.068C72.0718 135.54 78.9952 135.695 84.3569 135.674C89.7044 135.652 93.5298 135.454 94.8621 135.212L94.7357 134.517C93.4757 134.746 89.715 134.945 84.354 134.967C79.0072 134.988 72.0996 134.833 64.5666 134.362L64.5225 135.068ZM23.0225 62.3709C27.45 59.5498 34.8484 55.2683 42.6431 51.5993C50.4509 47.9242 58.6065 44.8878 64.5666 44.5153L64.5225 43.8097C58.4167 44.1913 50.1546 47.2822 42.342 50.9597C34.5163 54.6433 27.0916 58.9399 22.6426 61.7747L23.0225 62.3709ZM64.5666 44.5153C71.9265 44.0553 78.6681 43.8763 83.9398 43.8682C89.2221 43.8602 93.0046 44.0241 94.4613 44.2442L94.5669 43.5451C93.049 43.3158 89.214 43.1532 83.9387 43.1613C78.653 43.1693 71.8971 43.3488 64.5225 43.8097L64.5666 44.5153ZM94.4613 44.2442C94.5286 44.2543 94.5901 44.2645 94.6459 44.2747L94.7723 43.5791C94.7086 43.5675 94.64 43.5562 94.5669 43.5451L94.4613 44.2442ZM23.186 116.799L22.7148 89.2267L22.0079 89.2387L22.4791 116.811L23.186 116.799ZM22.7148 89.2388L23.186 62.0789L22.4791 62.0666L22.0079 89.2266L22.7148 89.2388ZM94.7579 134.513C94.666 134.524 94.5284 134.503 94.3346 134.409C94.1428 134.316 93.9185 134.163 93.6646 133.944C93.1568 133.506 92.5683 132.84 91.9283 131.982C90.6505 130.269 89.2026 127.84 87.8228 125.081L87.1905 125.397C88.5818 128.179 90.0508 130.648 91.3617 132.405C92.0161 133.282 92.6399 133.994 93.2031 134.479C93.4848 134.722 93.7607 134.916 94.0263 135.045C94.29 135.173 94.5672 135.247 94.8399 135.216L94.7579 134.513ZM87.8228 125.081C87.3744 124.184 86.9501 122.559 86.5681 120.34C86.1882 118.134 85.8556 115.377 85.5765 112.243C85.0182 105.975 84.6749 98.2156 84.5898 90.366C84.5047 82.5164 84.6779 74.5833 85.1514 67.9683C85.3881 64.6606 85.6997 61.6868 86.0907 59.2199C86.4828 56.7462 86.9511 54.8063 87.4926 53.5524L86.8436 53.2721C86.2657 54.6104 85.7866 56.6223 85.3924 59.1092C84.9972 61.6028 84.6838 64.5982 84.4462 67.9178C83.9709 74.5574 83.7976 82.5108 83.8828 90.3737C83.9681 98.2366 84.312 106.015 84.8723 112.306C85.1524 115.451 85.487 118.228 85.8714 120.46C86.2537 122.68 86.6909 124.398 87.1905 125.397L87.8228 125.081ZM87.4926 53.5524C89.1719 49.6636 90.6985 47.3044 91.9326 45.9322C92.5493 45.2464 93.0867 44.8141 93.5264 44.559C93.9697 44.3018 94.294 44.2357 94.4932 44.2475L94.535 43.5418C94.1511 43.5191 93.6875 43.6482 93.1716 43.9475C92.6521 44.2489 92.0589 44.7345 91.4069 45.4594C90.1035 46.9087 88.5403 49.3428 86.8436 53.2721L87.4926 53.5524ZM94.4932 44.2475C94.5408 44.2503 94.5798 44.2575 94.6112 44.2665L94.8071 43.5872C94.721 43.5624 94.6298 43.5474 94.535 43.5418L94.4932 44.2475Z" fill="#2E2C2F"/>
<path d="M138.542 89.2327C138.354 103.749 139.72 120.497 140.427 127.174L94.7092 134.951C92.6668 134.872 86.7698 127.825 85.5184 117.276C83.8689 103.372 83.6332 73.4434 85.5184 60.0107C87.875 47.992 92.6668 43.9881 94.7092 43.9095L140.427 51.6863C139.862 56.7155 138.542 75.8 138.542 89.2327Z" fill="#63A375" fill-opacity="0.4" stroke="#2E2C2F" stroke-width="0.70589"/>
<path d="M138.542 89.2323C138.534 104.068 140.427 127.174 140.427 127.174C162.972 125.996 214.519 124.346 240.348 127.174C241.055 121.518 241.997 106.016 241.997 89.2327C241.997 72.0294 240.74 57.2104 240.348 51.6862C227.858 52.4187 192.273 54.8261 140.427 51.6859C140.427 51.6859 138.55 74.5511 138.542 89.2323Z" fill="#EAE6E5" fill-opacity="0.8" stroke="#2E2C2F" stroke-width="0.706983"/>
<path d="M241.998 89.2327C242.005 104.064 240.349 127.174 240.349 127.174C255.345 127.609 272.547 128.444 279.937 128.757C281.021 128.802 282.091 128.541 282.994 127.939C288.034 124.576 295.965 117.389 295.965 109.5V89.2327V71.0868C295.965 64.017 287.481 51.5269 281.589 50.113C274.802 50.113 251.268 51.1618 240.349 51.6863C240.349 51.6863 241.992 74.5558 241.998 89.2327Z" fill="#2E2C2F" fill-opacity="0.4" stroke="#ABABAC" stroke-width="0.706983"/>
<path d="M310.575 118.69L312.932 117.748V61.8961L310.575 60.0108V118.69Z" fill="#EAE6E5" fill-opacity="0.8"/>
<path d="M312.932 117.748L313.063 118.076L313.285 117.987V117.748H312.932ZM310.575 118.69H310.222L310.706 119.019L310.575 118.69ZM310.575 60.0108L310.796 59.7348L310.222 60.0108H310.575ZM312.932 61.8961H313.285V61.7262L313.153 61.6201L312.932 61.8961ZM312.801 117.42L310.444 118.362L310.706 119.019L313.063 118.076L312.801 117.42ZM310.929 118.69V60.0108H310.222V118.69H310.929ZM310.354 60.2869L312.711 62.1722L313.153 61.6201L310.796 59.7348L310.354 60.2869ZM313.285 117.748V61.8961H312.578V117.748H313.285Z" fill="#2E2C2F"/>
<path d="M302.141 129.06C295.71 136.268 287.086 141.244 282.296 143.199C293.136 142.021 303.361 133.662 307.512 126.232M302.141 129.06C306.046 124.683 309.079 119.396 310.575 113.27V118.69C310.03 120.684 309.025 123.523 307.512 126.232M302.141 129.06C303.303 128.479 305.815 127.515 307.512 126.232M307.512 126.232C308.847 125.446 312.225 122.697 312.225 122.697" stroke="#2E2C2F" stroke-width="0.706983"/>
<path d="M302.141 129.06C295.71 136.268 287.086 141.244 282.296 143.199C293.136 142.021 303.361 133.662 307.512 126.232C305.815 127.515 303.303 128.479 302.141 129.06Z" fill="#EAE6E5" fill-opacity="0.8" stroke="#2E2C2F" stroke-width="0.706983"/>
<path d="M302.141 49.6416C295.71 42.4333 287.086 37.457 282.296 35.502C293.136 36.6803 303.361 45.0392 307.512 52.4695M302.141 49.6416C306.046 54.0186 309.079 59.3054 310.575 65.4309V60.0107C310.03 58.0168 309.025 55.1786 307.512 52.4695M302.141 49.6416C303.303 50.2219 305.815 51.1863 307.512 52.4695M307.512 52.4695C308.847 53.2551 312.225 56.0045 312.225 56.0045" stroke="#2E2C2F" stroke-width="0.706983"/>
<path d="M302.141 49.8772C295.71 42.6689 287.086 37.6926 282.296 35.7375C293.136 36.9159 303.361 45.2748 307.512 52.7051C305.815 51.4219 303.303 50.4575 302.141 49.8772Z" fill="#EAE6E5" fill-opacity="0.8" stroke="#2E2C2F" stroke-width="0.706983"/>
<path d="M295.722 108.321C295.722 119.397 286.144 125.76 281.353 128.588C281.353 128.588 301.143 128.823 301.85 129.059C305.754 124.682 308.788 119.867 310.284 113.741V64.488C308.788 58.3625 305.754 54.0183 301.85 49.6413C297.325 49.0757 286.61 49.877 281.818 50.3483C287.71 51.7623 295.722 64.017 295.722 72.0291V90.175V108.321Z" fill="#EAE6E5" fill-opacity="0.8"/>
<path d="M281.353 128.588L281.173 128.284L280.084 128.927L281.348 128.942L281.353 128.588ZM281.818 50.3483L281.784 49.9965L281.736 50.692L281.818 50.3483ZM301.85 129.059L301.737 129.394L302.113 129.294L301.85 129.059ZM310.284 113.741L310.627 113.825L310.637 113.784V113.741H310.284ZM301.85 49.6413L302.113 49.406L302.025 49.307L301.893 49.2906L301.85 49.6413ZM310.284 64.488H310.637V64.4454L310.627 64.4041L310.284 64.488ZM281.532 128.893C286.314 126.07 296.076 119.616 296.076 108.321H295.369C295.369 119.179 285.975 125.45 281.173 128.284L281.532 128.893ZM296.076 108.321V90.175H295.369V108.321H296.076ZM296.076 90.175V72.0291H295.369V90.175H296.076ZM296.076 72.0291C296.076 67.9266 294.034 62.7919 291.277 58.5226C289.894 56.3824 288.322 54.4438 286.717 52.9472C285.118 51.456 283.459 50.3786 281.901 50.0046L281.736 50.692C283.123 51.025 284.675 52.0097 286.235 53.4643C287.789 54.9135 289.325 56.8044 290.683 58.9062C293.405 63.1207 295.369 68.1195 295.369 72.0291H296.076ZM302.113 129.294C306.045 124.887 309.114 120.022 310.627 113.825L309.94 113.657C308.462 119.712 305.464 124.477 301.586 128.824L302.113 129.294ZM301.586 49.8766C305.472 54.2324 308.464 58.5255 309.94 64.5718L310.627 64.4041C309.112 58.1994 306.037 53.8042 302.113 49.406L301.586 49.8766ZM310.637 113.741V64.488H309.93V113.741H310.637ZM281.853 50.7001C284.244 50.4649 288.115 50.1472 291.951 49.959C295.797 49.7704 299.578 49.7136 301.806 49.9921L301.893 49.2906C299.596 49.0034 295.758 49.0645 291.917 49.2529C288.067 49.4418 284.184 49.7604 281.784 49.9965L281.853 50.7001ZM281.353 128.588C281.348 128.942 281.348 128.942 281.349 128.942C281.349 128.942 281.349 128.942 281.349 128.942C281.35 128.942 281.351 128.942 281.352 128.942C281.354 128.942 281.358 128.942 281.363 128.942C281.372 128.942 281.386 128.942 281.405 128.942C281.443 128.943 281.498 128.943 281.571 128.944C281.716 128.946 281.929 128.949 282.2 128.952C282.742 128.959 283.518 128.969 284.451 128.982C286.317 129.008 288.812 129.044 291.33 129.088C293.847 129.133 296.386 129.184 298.339 129.239C299.315 129.267 300.144 129.295 300.749 129.324C301.052 129.339 301.296 129.353 301.475 129.367C301.564 129.374 301.634 129.381 301.684 129.388C301.744 129.395 301.753 129.399 301.737 129.394L301.962 128.724C301.902 128.704 301.829 128.693 301.773 128.686C301.707 128.678 301.625 128.67 301.531 128.662C301.342 128.647 301.088 128.633 300.783 128.618C300.17 128.589 299.337 128.56 298.359 128.532C296.402 128.477 293.86 128.426 291.342 128.382C288.824 128.337 286.327 128.301 284.461 128.275C283.527 128.262 282.751 128.252 282.209 128.245C281.937 128.242 281.724 128.239 281.579 128.237C281.507 128.236 281.451 128.236 281.414 128.235C281.395 128.235 281.381 128.235 281.371 128.235C281.366 128.235 281.363 128.235 281.36 128.235C281.359 128.235 281.358 128.235 281.358 128.235C281.357 128.235 281.357 128.235 281.357 128.235C281.357 128.235 281.357 128.235 281.353 128.588Z" fill="#2E2C2F"/>
<path d="M114.034 142.492C113.845 141.738 112.227 140.45 111.441 139.9L116.626 140.135L118.276 140.842C118.621 140.67 119.852 141.298 120.856 141.894C121.491 142.271 121.984 142.839 122.314 143.5L124.874 148.619C126.052 150.897 127.561 155.218 124.167 154.275C112.384 150.976 114.269 143.435 114.034 142.492Z" fill="#EEEBEA"/>
<path d="M114.034 142.492C113.845 141.738 112.227 140.45 111.441 139.9L116.626 140.135L118.276 140.842M114.034 142.492C114.269 143.435 112.384 150.976 124.167 154.275C127.561 155.218 126.052 150.897 124.874 148.619L122.314 143.5C121.984 142.839 121.491 142.271 120.856 141.894C119.852 141.298 118.621 140.67 118.276 140.842M114.034 142.492C115.212 141.078 117.871 140.669 118.276 140.842" stroke="#2E2C2F" stroke-width="0.706983"/>
<path d="M114.034 36.8127C113.845 37.5668 112.227 38.8551 111.441 39.405L116.626 39.1693L118.276 38.4623C118.688 38.5998 119.877 37.9937 120.857 37.4117C121.492 37.0346 121.984 36.4654 122.314 35.8051L124.874 30.6855C126.052 28.4075 127.561 24.087 124.167 25.0296C112.384 28.3289 114.269 35.8701 114.034 36.8127Z" fill="#63A375" fill-opacity="0.4"/>
<path d="M114.034 36.8127C113.845 37.5668 112.227 38.8551 111.441 39.405L116.626 39.1693L118.276 38.4623M114.034 36.8127C114.269 35.8701 112.384 28.3289 124.167 25.0296C127.561 24.087 126.052 28.4075 124.874 30.6855L122.314 35.8051C121.984 36.4654 121.492 37.0346 120.857 37.4117C119.877 37.9937 118.688 38.5998 118.276 38.4623M114.034 36.8127C114.348 37.4067 115.636 38.5683 118.276 38.4623" stroke="#2E2C2F" stroke-width="0.706983"/>
<path d="M238.463 148.148C239.594 143.435 236.42 140.541 234.692 139.683C239.582 139.142 244.867 138.391 246.753 137.919C249.581 137.212 255.708 135.563 251.231 134.856C248.536 134.43 240.892 133.066 224.601 132.047C223.24 130.886 220.284 128.027 219.351 125.88C227.252 126.118 234.467 126.53 240.348 127.174C256.534 127.643 275.288 128.579 281.503 128.82C281.563 128.823 281.61 128.824 281.67 128.824C283.047 128.824 301.46 128.832 302.14 129.059C296.897 134.938 290.194 139.331 285.301 141.813C283.602 142.675 281.75 143.147 279.859 143.376C273.885 144.098 261.068 145.62 238.463 148.148Z" fill="#D9D9D9"/>
<path d="M234.692 139.683L234.653 139.332L233.458 139.464L234.535 139.999L234.692 139.683ZM238.463 148.148L238.119 148.066L238.002 148.555L238.502 148.499L238.463 148.148ZM251.231 134.856L251.286 134.507L251.231 134.856ZM246.753 137.919L246.668 137.577V137.577L246.753 137.919ZM224.601 132.047L224.372 132.316L224.462 132.392L224.579 132.399L224.601 132.047ZM219.351 125.88L219.361 125.528L218.805 125.511L219.027 126.021L219.351 125.88ZM240.348 127.174L240.309 127.525L240.324 127.527L240.338 127.527L240.348 127.174ZM281.503 128.82L281.517 128.468H281.517L281.503 128.82ZM281.67 128.824L281.67 129.177H281.67L281.67 128.824ZM302.14 129.059L302.404 129.294L302.761 128.895L302.252 128.725L302.14 129.059ZM285.301 141.813L285.142 141.498L285.301 141.813ZM279.859 143.376L279.817 143.026L279.859 143.376ZM234.535 139.999C236.18 140.815 239.198 143.573 238.119 148.066L238.806 148.23C239.99 143.297 236.66 140.266 234.849 139.366L234.535 139.999ZM251.176 135.204C251.726 135.291 252.083 135.389 252.296 135.484C252.537 135.592 252.469 135.636 252.465 135.548C252.464 135.511 252.479 135.503 252.458 135.532C252.437 135.562 252.394 135.608 252.315 135.668C252.156 135.787 251.911 135.922 251.588 136.065C250.296 136.639 248.088 137.222 246.668 137.577L246.839 138.262C248.246 137.91 250.516 137.314 251.875 136.71C252.215 136.559 252.518 136.399 252.74 136.231C252.851 136.147 252.955 136.051 253.033 135.942C253.112 135.832 253.177 135.688 253.17 135.519C253.156 135.165 252.853 134.96 252.584 134.839C252.286 134.706 251.855 134.597 251.286 134.507L251.176 135.204ZM224.579 132.399C240.854 133.417 248.486 134.78 251.176 135.204L251.286 134.507C248.586 134.081 240.93 132.715 224.623 131.695L224.579 132.399ZM246.668 137.577C244.808 138.042 239.547 138.79 234.653 139.332L234.731 140.033C239.617 139.493 244.925 138.74 246.839 138.262L246.668 137.577ZM219.34 126.233C227.237 126.471 234.441 126.883 240.309 127.525L240.386 126.823C234.492 126.178 227.268 125.766 219.361 125.528L219.34 126.233ZM224.83 131.779C224.16 131.207 223.091 130.212 222.077 129.096C221.055 127.973 220.117 126.757 219.674 125.74L219.027 126.021C219.518 127.151 220.524 128.438 221.554 129.571C222.591 130.711 223.681 131.727 224.372 132.316L224.83 131.779ZM240.338 127.527C256.522 127.996 275.268 128.932 281.49 129.173L281.517 128.468C275.309 128.227 256.546 127.291 240.358 126.821L240.338 127.527ZM281.67 129.177C282.358 129.177 287.305 129.179 292.164 129.209C294.594 129.225 297.001 129.247 298.842 129.28C299.763 129.296 300.541 129.315 301.108 129.337C301.393 129.348 301.621 129.359 301.788 129.371C301.871 129.377 301.936 129.383 301.983 129.389C302.039 129.396 302.045 129.4 302.029 129.394L302.252 128.725C302.193 128.705 302.122 128.695 302.068 128.688C302.006 128.681 301.928 128.674 301.839 128.667C301.661 128.654 301.423 128.642 301.136 128.631C300.561 128.609 299.777 128.59 298.855 128.574C297.009 128.541 294.599 128.519 292.169 128.504C287.307 128.473 282.359 128.471 281.67 128.471L281.67 129.177ZM285.461 142.128C290.381 139.632 297.123 135.214 302.404 129.294L301.877 128.825C296.67 134.661 290.007 139.03 285.142 141.498L285.461 142.128ZM238.502 148.499C261.108 145.97 273.926 144.449 279.901 143.726L279.817 143.026C273.844 143.748 261.027 145.269 238.423 147.797L238.502 148.499ZM285.142 141.498C283.488 142.337 281.679 142.8 279.817 143.026L279.901 143.726C281.822 143.494 283.716 143.013 285.461 142.128L285.142 141.498ZM281.49 129.173C281.554 129.176 281.605 129.177 281.67 129.177L281.67 128.471C281.615 128.471 281.573 128.47 281.517 128.468L281.49 129.173Z" fill="#2E2C2F"/>
<path d="M238.463 30.7896C239.594 35.5028 236.42 38.397 234.692 39.2549C239.582 39.796 244.867 40.5465 246.753 41.0181C249.581 41.7251 255.708 43.3747 251.231 44.0817C248.536 44.5071 240.892 45.8713 224.601 46.8903C223.24 48.0514 220.284 50.9102 219.351 53.0571C227.252 52.819 234.467 52.4073 240.348 51.7633C256.534 51.2942 275.288 50.3581 281.503 50.117C281.563 50.1147 281.61 50.1138 281.67 50.1137C283.047 50.1135 301.46 50.1054 302.14 49.878C296.897 44 290.194 39.6062 285.301 37.1245C283.602 36.2628 281.75 35.7903 279.859 35.5616C273.885 34.839 261.068 33.3177 238.463 30.7896Z" fill="#D9D9D9"/>
<path d="M234.692 39.2549L234.653 39.6057L233.458 39.4735L234.535 38.9388L234.692 39.2549ZM238.463 30.7896L238.119 30.8719L238.002 30.3829L238.502 30.4388L238.463 30.7896ZM251.231 44.0817L251.286 44.4303L251.231 44.0817ZM246.753 41.0181L246.668 41.3605V41.3605L246.753 41.0181ZM224.601 46.8903L224.372 46.6218L224.462 46.5454L224.579 46.5381L224.601 46.8903ZM219.351 53.0571L219.361 53.4099L218.805 53.4266L219.027 52.9164L219.351 53.0571ZM240.348 51.7633L240.309 51.4125L240.324 51.411L240.338 51.4105L240.348 51.7633ZM281.503 50.117L281.517 50.4697H281.517L281.503 50.117ZM281.67 50.1137L281.67 49.7608H281.67L281.67 50.1137ZM302.14 49.878L302.404 49.6431L302.761 50.043L302.252 50.2128L302.14 49.878ZM285.301 37.1245L285.142 37.4393L285.301 37.1245ZM279.859 35.5616L279.817 35.9119L279.859 35.5616ZM234.535 38.9388C236.18 38.1222 239.198 35.3646 238.119 30.8719L238.806 30.7072C239.99 35.6409 236.66 38.6718 234.849 39.5711L234.535 38.9388ZM251.176 43.7331C251.726 43.6462 252.083 43.5489 252.296 43.4538C252.537 43.346 252.469 43.301 252.465 43.3895C252.464 43.4261 252.479 43.4341 252.458 43.4051C252.437 43.3755 252.394 43.3294 252.315 43.2697C252.156 43.1502 251.911 43.0158 251.588 42.8724C250.296 42.298 248.088 41.7157 246.668 41.3605L246.839 40.6757C248.246 41.0275 250.516 41.6235 251.875 42.2274C252.215 42.3786 252.518 42.5388 252.74 42.7065C252.851 42.7903 252.955 42.8861 253.033 42.9954C253.112 43.1054 253.177 43.2497 253.17 43.4189C253.156 43.7725 252.853 43.9779 252.584 44.0983C252.286 44.2315 251.855 44.3404 251.286 44.4303L251.176 43.7331ZM224.579 46.5381C240.854 45.52 248.486 44.1577 251.176 43.7331L251.286 44.4303C248.586 44.8565 240.93 46.2226 224.623 47.2426L224.579 46.5381ZM246.668 41.3605C244.808 40.8956 239.547 40.1472 234.653 39.6057L234.731 38.9041C239.617 39.4447 244.925 40.1974 246.839 40.6757L246.668 41.3605ZM219.34 52.7043C227.237 52.4664 234.441 52.055 240.309 51.4125L240.386 52.1142C234.492 52.7595 227.268 53.1717 219.361 53.4099L219.34 52.7043ZM224.83 47.1589C224.16 47.7308 223.091 48.7255 222.077 49.8415C221.055 50.9646 220.117 52.1804 219.674 53.1978L219.027 52.9164C219.518 51.7869 220.524 50.4998 221.554 49.3666C222.591 48.2262 223.681 47.2109 224.372 46.6218L224.83 47.1589ZM240.338 51.4105C256.522 50.9414 275.268 50.0057 281.49 49.7644L281.517 50.4697C275.309 50.7105 256.546 51.6469 240.358 52.1161L240.338 51.4105ZM281.67 49.7608C282.358 49.7607 287.305 49.7586 292.164 49.7281C294.594 49.7129 297.001 49.6906 298.842 49.6579C299.763 49.6415 300.541 49.6226 301.108 49.6008C301.393 49.5898 301.621 49.5783 301.788 49.5661C301.871 49.5601 301.936 49.5541 301.983 49.5484C302.039 49.5415 302.045 49.5377 302.029 49.5433L302.252 50.2128C302.193 50.2325 302.122 50.2426 302.068 50.2491C302.006 50.2567 301.928 50.2637 301.839 50.2702C301.661 50.2832 301.423 50.2951 301.136 50.3061C300.561 50.3283 299.777 50.3473 298.855 50.3636C297.009 50.3964 294.599 50.4188 292.169 50.434C287.307 50.4645 282.359 50.4666 281.67 50.4667L281.67 49.7608ZM285.461 36.8097C290.381 39.3052 297.123 43.7234 302.404 49.6431L301.877 50.113C296.67 44.2765 290.007 39.9071 285.142 37.4393L285.461 36.8097ZM238.502 30.4388C261.108 32.9671 273.926 34.4885 279.901 35.2112L279.817 35.9119C273.844 35.1895 261.027 33.6684 238.423 31.1403L238.502 30.4388ZM285.142 37.4393C283.488 36.6008 281.679 36.1371 279.817 35.9119L279.901 35.2112C281.822 35.4435 283.716 35.9248 285.461 36.8097L285.142 37.4393ZM281.49 49.7644C281.554 49.7619 281.605 49.7608 281.67 49.7608L281.67 50.4667C281.615 50.4667 281.573 50.4676 281.517 50.4697L281.49 49.7644Z" fill="#2E2C2F"/>
<path d="M246.754 137.919C249.582 137.212 255.709 135.563 251.231 134.856C248.537 134.43 240.893 133.066 224.602 132.047C225.858 133.231 229.645 136.444 234.735 139.823C239.625 139.282 244.867 138.391 246.754 137.919Z" fill="#ABABAC" stroke="#2E2C2F" stroke-width="0.706983"/>
<path d="M246.711 41.3935C249.539 42.1004 255.666 43.7501 251.188 44.457C248.494 44.8825 240.85 46.2466 224.559 47.2657C225.815 46.0815 229.602 42.8685 234.692 39.4897C239.582 40.0308 244.824 40.9219 246.711 41.3935Z" fill="#ABABAC" stroke="#2E2C2F" stroke-width="0.706983"/>
<path d="M8.16699 87.8894H2.52348V84.0678H3.09746V87.2451H4.949V84.5788H5.50076V87.2451H8.16699V87.8894ZM8.16699 83.5383H4.09359V82.9569H4.85272V82.931C4.61079 82.805 4.41576 82.6372 4.26763 82.4273C4.11704 82.2175 4.04174 81.9768 4.04174 81.7052C4.04174 81.6484 4.04668 81.5978 4.05656 81.5534C4.06396 81.5065 4.07384 81.4645 4.08618 81.4275H4.64535V81.446C4.63054 81.4954 4.62066 81.5423 4.61572 81.5867C4.60832 81.6312 4.60462 81.6842 4.60462 81.746C4.60462 81.9138 4.63671 82.0706 4.7009 82.2163C4.76261 82.3594 4.85025 82.4866 4.96382 82.5977C5.07491 82.7063 5.20575 82.7915 5.35634 82.8532C5.50694 82.9149 5.67358 82.9458 5.85626 82.9458H8.16699V83.5383ZM8.26698 79.1427C8.26698 79.5451 8.1707 79.8944 7.97813 80.1907C7.78557 80.4844 7.52759 80.7116 7.20419 80.872C6.88078 81.03 6.52282 81.109 6.13029 81.109C5.73776 81.109 5.38103 81.03 5.0601 80.872C4.73916 80.7116 4.48365 80.4844 4.29356 80.1907C4.10099 79.8944 4.00471 79.5451 4.00471 79.1427C4.00471 78.7353 4.10099 78.386 4.29356 78.0947C4.48365 77.8009 4.73916 77.575 5.0601 77.417C5.38103 77.259 5.73653 77.18 6.12659 77.18C6.52158 77.18 6.88078 77.259 7.20419 77.417C7.52759 77.575 7.78557 77.8009 7.97813 78.0947C8.1707 78.386 8.26698 78.7353 8.26698 79.1427ZM7.78187 79.1464C7.78187 78.8625 7.71028 78.6193 7.56709 78.4169C7.4239 78.212 7.22764 78.0552 6.9783 77.9466C6.72896 77.838 6.44505 77.7837 6.12659 77.7837C5.80812 77.7837 5.52545 77.838 5.27858 77.9466C5.02924 78.0552 4.83297 78.212 4.68979 78.4169C4.5466 78.6193 4.47501 78.8625 4.47501 79.1464C4.47501 79.4303 4.5466 79.6747 4.68979 79.8796C4.83297 80.082 5.02924 80.2376 5.27858 80.3462C5.52792 80.4548 5.81182 80.5091 6.13029 80.5091C6.44876 80.5091 6.73266 80.4561 6.982 80.3499C7.22887 80.2413 7.4239 80.0845 7.56709 79.8796C7.71028 79.6747 7.78187 79.4303 7.78187 79.1464ZM8.16699 76.4061H4.09359V75.8247H4.7083V75.7988C4.57252 75.705 4.45279 75.5964 4.3491 75.4729C4.24295 75.347 4.16024 75.2014 4.10099 75.036C4.03928 74.8706 4.00842 74.6817 4.00842 74.4694C4.00842 74.183 4.06149 73.9398 4.16765 73.7399C4.27134 73.5374 4.41946 73.3831 4.61202 73.277C4.80458 73.1684 5.03664 73.1141 5.3082 73.1141H8.16699V73.6954H5.37856C5.09713 73.6954 4.88111 73.7806 4.73052 73.9509C4.57746 74.1188 4.50093 74.3521 4.50093 74.6508C4.50093 74.878 4.5503 75.0792 4.64905 75.2544C4.7478 75.4297 4.88235 75.5667 5.05269 75.6655C5.22056 75.7642 5.40942 75.8136 5.61926 75.8136H8.16699V76.4061ZM8.20032 70.9663C8.20032 71.1465 8.17316 71.3032 8.11885 71.4365C8.06454 71.5674 7.97937 71.6686 7.86334 71.7402C7.74484 71.8093 7.59301 71.8439 7.40786 71.8439H4.55647V72.4697H4.09359V71.8439H2.81232V71.2625H4.09359V70.3886H4.55647V71.2625H7.27825C7.42884 71.2625 7.535 71.2255 7.59672 71.1514C7.65843 71.0749 7.68929 70.9626 7.68929 70.8144C7.68929 70.7527 7.68436 70.6873 7.67448 70.6182C7.66214 70.5466 7.64979 70.4886 7.63745 70.4441V70.4256H8.13737C8.15712 70.512 8.17193 70.6021 8.1818 70.6959C8.19415 70.7873 8.20032 70.8774 8.20032 70.9663Z" fill="#2E2C2F" fill-opacity="0.4"/>
<path d="M329.025 87.3061H323.382V84.7732C323.382 84.4325 323.446 84.1351 323.574 83.8808C323.7 83.6265 323.879 83.429 324.111 83.2883C324.341 83.1451 324.613 83.0735 324.926 83.0735C325.274 83.0735 325.57 83.155 325.815 83.3179C326.057 83.4784 326.232 83.7475 326.341 84.1252H326.359C326.416 83.9104 326.5 83.7413 326.611 83.6179C326.722 83.492 326.869 83.4006 327.052 83.3438C327.232 83.2846 327.459 83.2451 327.733 83.2253C327.95 83.213 328.134 83.1982 328.285 83.1809C328.435 83.1636 328.56 83.1451 328.659 83.1254C328.755 83.1056 328.83 83.0834 328.885 83.0587C328.937 83.0315 328.972 83.0031 328.992 82.9735H329.025V83.666C328.991 83.7055 328.935 83.7376 328.859 83.7623C328.78 83.7845 328.654 83.8043 328.481 83.8215C328.306 83.8363 328.06 83.8536 327.744 83.8734C327.347 83.8956 327.06 83.998 326.885 84.1807C326.707 84.361 326.618 84.6436 326.618 85.0287V86.6618H329.025V87.3061ZM326.096 86.6618V84.9843C326.096 84.5646 326 84.2523 325.807 84.0474C325.615 83.84 325.352 83.7364 325.019 83.7364C324.666 83.7364 324.398 83.8339 324.215 84.0289C324.032 84.2215 323.941 84.5251 323.941 84.9399V86.6618H326.096ZM329.122 80.4554C329.122 80.8702 329.027 81.2244 328.837 81.5182C328.644 81.8095 328.386 82.0317 328.063 82.1848C327.737 82.3378 327.374 82.4144 326.974 82.4144C326.584 82.4144 326.23 82.3354 325.911 82.1774C325.59 82.0169 325.335 81.7922 325.145 81.5034C324.954 81.2146 324.859 80.8776 324.859 80.4925C324.859 80.1987 324.914 79.9382 325.022 79.7111C325.129 79.4815 325.275 79.2877 325.463 79.1297C325.661 78.9618 325.9 78.8359 326.181 78.752C326.463 78.6681 326.773 78.6249 327.111 78.6224V81.8145C327.4 81.7996 327.66 81.7379 327.892 81.6293C328.122 81.5207 328.303 81.3676 328.437 81.1701C328.57 80.9702 328.637 80.7294 328.637 80.448C328.637 80.1468 328.567 79.895 328.429 79.6926C328.291 79.4877 328.1 79.3507 327.855 79.2815V78.7039C328.1 78.7606 328.318 78.868 328.511 79.026C328.701 79.1816 328.85 79.3803 328.959 79.6222C329.067 79.8642 329.122 80.1419 329.122 80.4554ZM326.681 81.8033V79.2482C326.383 79.2655 326.133 79.3272 325.933 79.4334C325.731 79.5395 325.578 79.6827 325.474 79.8629C325.37 80.0431 325.319 80.253 325.319 80.4925C325.319 80.7492 325.377 80.9702 325.493 81.1553C325.606 81.3405 325.765 81.4886 325.97 81.5997C326.175 81.7083 326.412 81.7762 326.681 81.8033ZM329.107 76.6635C329.107 76.9202 329.064 77.1523 328.977 77.3596C328.891 77.567 328.762 77.7312 328.592 77.8521C328.422 77.9706 328.211 78.0299 327.959 78.0299C327.653 78.0299 327.417 77.9583 327.252 77.8151C327.084 77.6695 326.962 77.4683 326.885 77.2115C326.806 76.9523 326.746 76.6548 326.704 76.3191C326.676 76.0895 326.643 75.8957 326.604 75.7377C326.564 75.5797 326.505 75.4599 326.426 75.3785C326.344 75.297 326.233 75.2563 326.093 75.2563C325.846 75.2563 325.652 75.3365 325.511 75.497C325.37 75.6574 325.3 75.8907 325.3 76.1969C325.3 76.5375 325.375 76.7943 325.526 76.9671C325.677 77.1399 325.886 77.2337 326.155 77.2485V77.8225C325.926 77.8102 325.714 77.746 325.519 77.63C325.321 77.5115 325.163 77.3349 325.045 77.1004C324.924 76.8634 324.863 76.5635 324.863 76.2006C324.863 76.0031 324.883 75.8204 324.922 75.6525C324.962 75.4846 325.022 75.339 325.104 75.2155C325.205 75.0551 325.345 74.9316 325.522 74.8452C325.7 74.7564 325.917 74.7119 326.174 74.7119H328.166C328.317 74.7119 328.433 74.6897 328.514 74.6453C328.596 74.6008 328.637 74.5206 328.637 74.4046C328.637 74.3749 328.634 74.3465 328.629 74.3194C328.622 74.2898 328.614 74.2651 328.607 74.2453V74.2231H329.022C329.036 74.2651 329.05 74.3157 329.062 74.3749C329.075 74.4317 329.081 74.4996 329.081 74.5786C329.081 74.7169 329.051 74.8366 328.992 74.9378C328.93 75.039 328.84 75.1168 328.722 75.1711C328.603 75.2254 328.458 75.2526 328.285 75.2526H328.155L328.363 75.1933V75.2526C328.563 75.3661 328.737 75.5402 328.885 75.7747C329.033 76.0092 329.107 76.3055 329.107 76.6635ZM328.67 76.5227C328.67 76.2462 328.613 76.0142 328.5 75.8266C328.384 75.6365 328.239 75.4933 328.066 75.397C327.891 75.3007 327.712 75.2526 327.529 75.2526H326.789C326.833 75.3118 326.876 75.3908 326.918 75.4896C326.958 75.5859 326.994 75.6957 327.026 75.8191C327.055 75.9426 327.083 76.0784 327.107 76.2265C327.144 76.4684 327.192 76.6783 327.252 76.856C327.308 77.0313 327.391 77.1671 327.5 77.2634C327.606 77.3596 327.758 77.4078 327.955 77.4078C328.14 77.4078 328.285 77.3646 328.388 77.2782C328.492 77.1918 328.565 77.0807 328.607 76.9449C328.649 76.8091 328.67 76.6684 328.67 76.5227ZM329.025 73.6232H324.952V73.0418H325.711V73.0159C325.469 72.89 325.274 72.7221 325.126 72.5123C324.975 72.3024 324.9 72.0617 324.9 71.7902C324.9 71.7334 324.905 71.6828 324.915 71.6384C324.922 71.5914 324.932 71.5495 324.945 71.5124H325.504V71.531C325.489 71.5803 325.479 71.6272 325.474 71.6717C325.467 71.7161 325.463 71.7692 325.463 71.8309C325.463 71.9988 325.495 72.1556 325.559 72.3012C325.621 72.4444 325.709 72.5715 325.822 72.6826C325.933 72.7912 326.064 72.8764 326.215 72.9381C326.365 72.9999 326.532 73.0307 326.715 73.0307H329.025V73.6232Z" fill="#2E2C2F" fill-opacity="0.4"/>
<path d="M156.942 10.8955V5.25199H159.475C159.816 5.25199 160.113 5.31618 160.367 5.44455C160.622 5.57046 160.819 5.74944 160.96 5.9815C161.103 6.21109 161.175 6.48265 161.175 6.79618C161.175 7.14427 161.093 7.44052 160.93 7.68492C160.77 7.92686 160.501 8.10214 160.123 8.21076V8.22928C160.338 8.28606 160.507 8.37 160.63 8.48109C160.756 8.59218 160.847 8.73907 160.904 8.92176C160.963 9.10198 161.003 9.3291 161.023 9.60313C161.035 9.82038 161.05 10.0043 161.067 10.1549C161.084 10.3055 161.103 10.4302 161.123 10.5289C161.142 10.6252 161.165 10.7005 161.189 10.7548C161.217 10.8066 161.245 10.8424 161.275 10.8622V10.8955H160.582C160.543 10.8609 160.51 10.8054 160.486 10.7289C160.464 10.6499 160.444 10.524 160.427 10.3512C160.412 10.1759 160.394 9.93023 160.375 9.61424C160.352 9.21677 160.25 8.9304 160.067 8.75512C159.887 8.57737 159.604 8.4885 159.219 8.4885H157.586V10.8955H156.942ZM157.586 7.96636H159.264C159.683 7.96636 159.996 7.87008 160.201 7.67752C160.408 7.48496 160.512 7.22204 160.512 6.88876C160.512 6.53573 160.414 6.26787 160.219 6.08519C160.027 5.9025 159.723 5.81116 159.308 5.81116H157.586V7.96636ZM162.108 10.8955V6.8221H162.7V10.8955H162.108ZM162.097 6.01483V5.2668H162.711V6.01483H162.097ZM165.396 12.3101C164.873 12.3101 164.463 12.2126 164.167 12.0175C163.87 11.825 163.704 11.5534 163.667 11.2029H164.218C164.251 11.4251 164.368 11.5892 164.57 11.6954C164.775 11.8015 165.047 11.8546 165.385 11.8546C165.78 11.8546 166.08 11.7608 166.285 11.5732C166.49 11.388 166.592 11.1165 166.592 10.7585V10.5326C166.592 10.424 166.593 10.3203 166.596 10.2215C166.601 10.1203 166.603 10.0364 166.603 9.96973H166.592C166.459 10.2067 166.287 10.3956 166.077 10.5363C165.87 10.6746 165.61 10.7437 165.296 10.7437C164.953 10.7437 164.648 10.6597 164.381 10.4919C164.115 10.3215 163.905 10.0858 163.752 9.78458C163.599 9.48339 163.522 9.13407 163.522 8.7366C163.522 8.31198 163.601 7.95031 163.759 7.6516C163.92 7.35288 164.132 7.12576 164.396 6.97023C164.66 6.81223 164.949 6.73323 165.263 6.73323C165.478 6.73323 165.669 6.76532 165.837 6.82951C166.007 6.89123 166.153 6.9801 166.274 7.09613C166.397 7.20969 166.5 7.34671 166.581 7.50718H166.592V6.8221H167.177V10.7363C167.177 10.9955 167.134 11.2263 167.048 11.4288C166.964 11.6312 166.843 11.7991 166.685 11.9324C166.529 12.0607 166.342 12.1558 166.122 12.2175C165.905 12.2792 165.663 12.3101 165.396 12.3101ZM165.355 10.2549C165.657 10.2549 165.9 10.1895 166.085 10.0586C166.272 9.9253 166.409 9.74385 166.496 9.51425C166.585 9.28219 166.629 9.0168 166.629 8.71809C166.629 8.4095 166.581 8.14411 166.485 7.92192C166.388 7.69727 166.245 7.52446 166.055 7.40349C165.865 7.28252 165.631 7.22204 165.352 7.22204C165.095 7.22204 164.875 7.28376 164.692 7.40719C164.51 7.52816 164.369 7.70221 164.27 7.92933C164.174 8.15645 164.126 8.42801 164.126 8.74401C164.126 9.0526 164.175 9.32046 164.274 9.54758C164.373 9.7747 164.513 9.94998 164.696 10.0734C164.879 10.1944 165.099 10.2549 165.355 10.2549ZM168.196 10.8955V5.25199H168.788V6.74434C168.788 6.85049 168.786 6.96899 168.781 7.09984C168.776 7.22821 168.771 7.34547 168.766 7.45163H168.792C168.886 7.30844 168.995 7.18377 169.121 7.07762C169.25 6.96899 169.397 6.88506 169.562 6.82581C169.73 6.76656 169.92 6.73693 170.132 6.73693C170.419 6.73693 170.662 6.79001 170.862 6.89617C171.064 6.99985 171.219 7.14798 171.325 7.34054C171.433 7.5331 171.488 7.76516 171.488 8.03672V10.8955H170.906V8.10708C170.906 7.82564 170.821 7.60963 170.651 7.45904C170.483 7.30597 170.25 7.22944 169.951 7.22944C169.724 7.22944 169.523 7.27882 169.347 7.37757C169.172 7.47632 169.035 7.61086 168.936 7.78121C168.837 7.94908 168.788 8.13794 168.788 8.34778V10.8955H168.196ZM173.635 10.9288C173.455 10.9288 173.298 10.9017 173.165 10.8474C173.034 10.7931 172.933 10.7079 172.862 10.5919C172.792 10.4734 172.758 10.3215 172.758 10.1364V7.28499H172.132V6.8221H172.758V5.54083H173.339V6.8221H174.213V7.28499H173.339V10.0068C173.339 10.1574 173.376 10.2635 173.45 10.3252C173.527 10.3869 173.639 10.4178 173.787 10.4178C173.849 10.4178 173.914 10.4129 173.984 10.403C174.055 10.3907 174.113 10.3783 174.158 10.366H174.176V10.8659C174.09 10.8856 174 10.9004 173.906 10.9103C173.814 10.9227 173.724 10.9288 173.635 10.9288Z" fill="#2E2C2F" fill-opacity="0.4"/>
<path d="M159.276 173.658V168.015H159.92V173.07H162.935V173.658H159.276ZM165.245 173.755C164.831 173.755 164.476 173.66 164.182 173.47C163.891 173.277 163.669 173.019 163.516 172.696C163.363 172.37 163.286 172.007 163.286 171.607C163.286 171.217 163.365 170.863 163.523 170.544C163.684 170.223 163.908 169.968 164.197 169.778C164.486 169.588 164.823 169.492 165.208 169.492C165.502 169.492 165.762 169.547 165.99 169.655C166.219 169.762 166.413 169.908 166.571 170.096C166.739 170.294 166.865 170.533 166.949 170.814C167.033 171.096 167.076 171.406 167.078 171.744H163.886C163.901 172.033 163.963 172.293 164.071 172.525C164.18 172.755 164.333 172.936 164.531 173.07C164.731 173.203 164.971 173.27 165.253 173.27C165.554 173.27 165.806 173.2 166.008 173.062C166.213 172.924 166.35 172.733 166.419 172.488H166.997C166.94 172.733 166.833 172.951 166.675 173.144C166.519 173.334 166.32 173.483 166.078 173.592C165.837 173.7 165.559 173.755 165.245 173.755ZM163.897 171.314H166.452C166.435 171.016 166.373 170.766 166.267 170.566C166.161 170.364 166.018 170.211 165.838 170.107C165.658 170.003 165.448 169.952 165.208 169.952C164.951 169.952 164.731 170.01 164.545 170.126C164.36 170.239 164.212 170.398 164.101 170.603C163.992 170.808 163.925 171.045 163.897 171.314ZM168.126 173.658V170.055H167.512V169.585H168.126V168.993C168.126 168.815 168.148 168.661 168.193 168.53C168.237 168.399 168.306 168.293 168.4 168.211C168.494 168.13 168.61 168.073 168.748 168.041C168.889 168.006 169.05 167.989 169.23 167.989C169.287 167.989 169.343 167.99 169.4 167.993C169.457 167.993 169.519 167.995 169.585 168V168.493C169.536 168.488 169.49 168.485 169.448 168.485C169.409 168.485 169.367 168.485 169.322 168.485C169.093 168.485 168.935 168.526 168.848 168.607C168.762 168.689 168.719 168.826 168.719 169.018V169.585H169.578V170.055H168.719V173.658H168.126ZM171.496 173.692C171.316 173.692 171.159 173.665 171.026 173.61C170.895 173.556 170.794 173.471 170.722 173.355C170.653 173.236 170.618 173.084 170.618 172.899V170.048H169.993V169.585H170.618V168.304H171.2V169.585H172.074V170.048H171.2V172.77C171.2 172.92 171.237 173.026 171.311 173.088C171.387 173.15 171.5 173.181 171.648 173.181C171.71 173.181 171.775 173.176 171.844 173.166C171.916 173.154 171.974 173.141 172.018 173.129H172.037V173.629C171.95 173.649 171.86 173.663 171.766 173.673C171.675 173.686 171.585 173.692 171.496 173.692Z" fill="#2E2C2F" fill-opacity="0.4"/>
</svg>
